<mxfile host="app.diagrams.net" modified="2020-12-09T10:31:47.620Z" agent="5.0 (Windows NT 10.0; Win64; x64) AppleWebKit/537.36 (KHTML, like Gecko) Chrome/87.0.4280.88 Safari/537.36" etag="lbN7EIzBaRkkDRmvjGWX" version="13.10.6" type="github">
  <diagram id="C5RBs43oDa-KdzZeNtuy" name="Page-1">
    <mxGraphModel dx="1292" dy="723" grid="1" gridSize="10" guides="1" tooltips="1" connect="1" arrows="1" fold="1" page="1" pageScale="1" pageWidth="3300" pageHeight="2339" math="0" shadow="0">
      <root>
        <mxCell id="WIyWlLk6GJQsqaUBKTNV-0" />
        <mxCell id="WIyWlLk6GJQsqaUBKTNV-1" parent="WIyWlLk6GJQsqaUBKTNV-0" />
        <mxCell id="3pJFGj4-_oHTbB4DjswW-112" value="Essential Biodiversity Variables" style="swimlane;labelBackgroundColor=none;fontSize=12;align=center;fillColor=#d5e8d4;strokeColor=#82b366;" parent="WIyWlLk6GJQsqaUBKTNV-1" vertex="1">
          <mxGeometry x="3100" width="1100" height="1800" as="geometry" />
        </mxCell>
        <mxCell id="awDAAARCZt9qaH9nBusd-10" value="Diversity" style="swimlane;container=1;fillColor=#d5e8d4;strokeColor=#82b366;" parent="3pJFGj4-_oHTbB4DjswW-112" vertex="1">
          <mxGeometry x="20" y="840" width="710" height="550" as="geometry">
            <mxRectangle width="80" height="23" as="alternateBounds" />
          </mxGeometry>
        </mxCell>
        <mxCell id="mfQDYrMZqN6Y804PRQHQ-18" style="edgeStyle=orthogonalEdgeStyle;rounded=1;orthogonalLoop=1;jettySize=auto;html=1;entryX=0;entryY=0.5;entryDx=0;entryDy=0;fontSize=24;" parent="awDAAARCZt9qaH9nBusd-10" edge="1">
          <mxGeometry x="900" y="118.05999999999992" as="geometry">
            <mxPoint x="1690" y="647.5999999999999" as="sourcePoint" />
          </mxGeometry>
        </mxCell>
        <mxCell id="3pJFGj4-_oHTbB4DjswW-29" value="&lt;div style=&quot;color: rgb(0 , 0 , 0) ; font-family: &amp;#34;helvetica&amp;#34; ; font-style: normal ; letter-spacing: normal ; text-align: center ; text-indent: 0px ; text-transform: none ; word-spacing: 0px ; background-color: rgb(248 , 249 , 250)&quot;&gt;&lt;span style=&quot;font-size: 20px&quot;&gt;&lt;b&gt;Diversity&lt;/b&gt;&lt;/span&gt;&lt;/div&gt;" style="text;whiteSpace=wrap;html=1;fontSize=16;" parent="awDAAARCZt9qaH9nBusd-10" vertex="1">
          <mxGeometry x="100" y="40" width="100" height="40" as="geometry" />
        </mxCell>
        <mxCell id="3pJFGj4-_oHTbB4DjswW-100" value="" style="aspect=fixed;html=1;points=[];align=center;image;fontSize=12;image=img/lib/mscae/LogDiagnostics.svg;" parent="awDAAARCZt9qaH9nBusd-10" vertex="1">
          <mxGeometry x="20" y="39.99999999999994" width="67" height="74.44" as="geometry" />
        </mxCell>
        <mxCell id="3pJFGj4-_oHTbB4DjswW-105" value="" style="group" parent="awDAAARCZt9qaH9nBusd-10" vertex="1" connectable="0">
          <mxGeometry x="10" y="90" width="684" height="446.5" as="geometry" />
        </mxCell>
        <mxCell id="3pJFGj4-_oHTbB4DjswW-9" value="&lt;div&gt;&lt;br&gt;&lt;/div&gt;&lt;div&gt;rank&amp;nbsp;&lt;/div&gt;&lt;div&gt;abundance&lt;/div&gt;" style="rhombus;whiteSpace=wrap;html=1;fontSize=15;rounded=0;fontStyle=1;strokeColor=#6c8ebf;strokeWidth=4;fillColor=#dae8fc;spacing=5;spacingTop=-20;" parent="3pJFGj4-_oHTbB4DjswW-105" vertex="1">
          <mxGeometry x="81" width="125" height="95" as="geometry" />
        </mxCell>
        <mxCell id="3pJFGj4-_oHTbB4DjswW-10" value="&lt;div&gt;&lt;br&gt;&lt;/div&gt;&lt;div&gt;species pool&lt;/div&gt;" style="rhombus;whiteSpace=wrap;html=1;fontSize=15;rounded=0;fontStyle=1;strokeColor=#6c8ebf;strokeWidth=4;fillColor=#dae8fc;spacing=5;spacingTop=-20;" parent="3pJFGj4-_oHTbB4DjswW-105" vertex="1">
          <mxGeometry x="11" y="65.00000000000003" width="125" height="95" as="geometry" />
        </mxCell>
        <mxCell id="3pJFGj4-_oHTbB4DjswW-12" value="&lt;div&gt;&lt;br&gt;&lt;/div&gt;&lt;div&gt;dark diversity&lt;/div&gt;" style="rhombus;whiteSpace=wrap;html=1;fontSize=15;rounded=0;fontStyle=1;strokeColor=#6c8ebf;strokeWidth=4;fillColor=#dae8fc;spacing=5;spacingTop=-20;" parent="3pJFGj4-_oHTbB4DjswW-105" vertex="1">
          <mxGeometry x="81" y="316.75" width="125" height="95" as="geometry" />
        </mxCell>
        <mxCell id="3pJFGj4-_oHTbB4DjswW-14" value="&lt;div&gt;&lt;br&gt;&lt;/div&gt;&lt;div&gt;rarefaction&lt;/div&gt;" style="rhombus;whiteSpace=wrap;html=1;fontSize=15;rounded=0;fontStyle=1;strokeColor=#6c8ebf;strokeWidth=4;fillColor=#dae8fc;spacing=5;spacingTop=-20;" parent="3pJFGj4-_oHTbB4DjswW-105" vertex="1">
          <mxGeometry y="160.00000000000003" width="125" height="95" as="geometry" />
        </mxCell>
        <mxCell id="3pJFGj4-_oHTbB4DjswW-26" value="&lt;span&gt;&lt;br&gt;other measures&lt;/span&gt;" style="shape=hexagon;perimeter=hexagonPerimeter2;whiteSpace=wrap;html=1;fixedSize=1;rounded=0;labelBackgroundColor=none;strokeColor=#6c8ebf;fillColor=#dae8fc;gradientColor=none;fontSize=15;direction=south;strokeWidth=4;spacing=5;spacingTop=-20;fontStyle=1;verticalAlign=middle;size=20.000000000000227;" parent="3pJFGj4-_oHTbB4DjswW-105" vertex="1">
          <mxGeometry x="245.57223880596968" y="375" width="204.23507462686567" height="71.5" as="geometry" />
        </mxCell>
        <mxCell id="3pJFGj4-_oHTbB4DjswW-11" value="&lt;div&gt;&lt;br&gt;&lt;/div&gt;&lt;div&gt;Z diversity&lt;/div&gt;" style="rhombus;whiteSpace=wrap;html=1;fontSize=15;rounded=0;fontStyle=1;strokeColor=#6c8ebf;strokeWidth=4;fillColor=#dae8fc;spacing=5;spacingTop=-20;" parent="3pJFGj4-_oHTbB4DjswW-105" vertex="1">
          <mxGeometry x="11" y="255" width="125" height="95" as="geometry" />
        </mxCell>
        <mxCell id="3pJFGj4-_oHTbB4DjswW-40" value="" style="verticalLabelPosition=bottom;verticalAlign=middle;html=1;shape=mxgraph.basic.polygon;polyCoords=[[0.25,0],[0.75,0],[1,0.25],[1,0.75],[0.75,1],[0.25,1],[0,0.75],[0,0.25]];polyline=0;rounded=0;fontSize=15;fontStyle=1;strokeWidth=2;fillColor=#d5e8d4;spacing=5;spacingTop=-20;gradientDirection=west;opacity=60;gradientColor=#ffffff;strokeColor=#97D077;" parent="3pJFGj4-_oHTbB4DjswW-105" vertex="1">
          <mxGeometry x="296.3699999999999" y="55" width="248" height="297" as="geometry" />
        </mxCell>
        <mxCell id="3pJFGj4-_oHTbB4DjswW-41" value="" style="verticalLabelPosition=bottom;verticalAlign=middle;html=1;shape=mxgraph.basic.polygon;polyCoords=[[0.25,0],[0.75,0],[1,0.25],[1,0.75],[0.75,1],[0.25,1],[0,0.75],[0,0.25]];polyline=0;rounded=0;fontSize=15;fontStyle=1;strokeWidth=2;fillColor=#dae8fc;spacing=5;spacingTop=-20;gradientDirection=east;gradientColor=#ffffff;opacity=60;strokeColor=#7EA6E0;" parent="3pJFGj4-_oHTbB4DjswW-105" vertex="1">
          <mxGeometry x="149" y="55" width="248" height="297" as="geometry" />
        </mxCell>
        <mxCell id="3pJFGj4-_oHTbB4DjswW-42" value="&lt;span style=&quot;font-size: 15px&quot;&gt;α diversity&lt;/span&gt;" style="text;html=1;align=center;verticalAlign=middle;resizable=0;points=[];autosize=1;fontStyle=1" parent="3pJFGj4-_oHTbB4DjswW-105" vertex="1">
          <mxGeometry x="224.25" y="61" width="90" height="20" as="geometry" />
        </mxCell>
        <mxCell id="Y2ZBj6na6wr-5ao4Nka5-165" value="vegan" style="shape=image;html=1;verticalAlign=top;verticalLabelPosition=bottom;labelBackgroundColor=#ffffff;imageAspect=0;aspect=fixed;image=https://cdn4.iconfinder.com/data/icons/logos-and-brands/512/285_R_Project_logo-128.png" parent="3pJFGj4-_oHTbB4DjswW-105" vertex="1">
          <mxGeometry x="313.8189552238803" y="65" width="67.74626865671642" height="67.74626865671642" as="geometry" />
        </mxCell>
        <mxCell id="3pJFGj4-_oHTbB4DjswW-3" value="adiv" style="shape=image;html=1;verticalAlign=top;verticalLabelPosition=bottom;labelBackgroundColor=#ffffff;imageAspect=0;aspect=fixed;image=https://cdn4.iconfinder.com/data/icons/logos-and-brands/512/285_R_Project_logo-128.png" parent="3pJFGj4-_oHTbB4DjswW-105" vertex="1">
          <mxGeometry x="280" y="140.0000000000001" width="67.74626865671642" height="67.74626865671642" as="geometry" />
        </mxCell>
        <mxCell id="3pJFGj4-_oHTbB4DjswW-4" value="bipartite" style="shape=image;html=1;verticalAlign=top;verticalLabelPosition=bottom;labelBackgroundColor=#ffffff;imageAspect=0;aspect=fixed;image=https://cdn4.iconfinder.com/data/icons/logos-and-brands/512/285_R_Project_logo-128.png" parent="3pJFGj4-_oHTbB4DjswW-105" vertex="1">
          <mxGeometry x="296.37" y="255" width="67.74626865671642" height="67.74626865671642" as="geometry" />
        </mxCell>
        <mxCell id="3pJFGj4-_oHTbB4DjswW-5" value="BAT" style="shape=image;html=1;verticalAlign=top;verticalLabelPosition=bottom;labelBackgroundColor=#ffffff;imageAspect=0;aspect=fixed;image=https://cdn4.iconfinder.com/data/icons/logos-and-brands/512/285_R_Project_logo-128.png" parent="3pJFGj4-_oHTbB4DjswW-105" vertex="1">
          <mxGeometry x="205.49895522388033" y="158.75" width="67.74626865671642" height="67.74626865671642" as="geometry" />
        </mxCell>
        <mxCell id="3pJFGj4-_oHTbB4DjswW-19" value="betapart" style="shape=image;html=1;verticalAlign=top;verticalLabelPosition=bottom;labelBackgroundColor=#ffffff;imageAspect=0;aspect=fixed;image=https://cdn4.iconfinder.com/data/icons/logos-and-brands/512/285_R_Project_logo-128.png" parent="3pJFGj4-_oHTbB4DjswW-105" vertex="1">
          <mxGeometry x="393.1289552238803" y="144.25" width="67.74626865671642" height="67.74626865671642" as="geometry" />
        </mxCell>
        <mxCell id="3pJFGj4-_oHTbB4DjswW-43" value="&lt;span style=&quot;font-size: 15px&quot;&gt;β&lt;/span&gt;&lt;span style=&quot;font-size: 15px&quot;&gt;&amp;nbsp;diversity&lt;/span&gt;" style="text;html=1;align=center;verticalAlign=middle;resizable=0;points=[];autosize=1;fontStyle=1" parent="3pJFGj4-_oHTbB4DjswW-105" vertex="1">
          <mxGeometry x="381.9999999999999" y="62" width="90" height="20" as="geometry" />
        </mxCell>
        <mxCell id="3pJFGj4-_oHTbB4DjswW-22" value="ade4&lt;span style=&quot;color: rgba(0 , 0 , 0 , 0) ; font-family: monospace ; font-size: 0px ; background-color: rgb(248 , 249 , 250)&quot;&gt;%3CmxGraphModel%3E%3Croot%3E%3CmxCell%20id%3D%220%22%2F%3E%3CmxCell%20id%3D%221%22%20parent%3D%220%22%2F%3E%3CmxCell%20id%3D%222%22%20value%3D%22adiv%22%20style%3D%22shape%3Dimage%3Bhtml%3D1%3BverticalAlign%3Dtop%3BverticalLabelPosition%3Dbottom%3BlabelBackgroundColor%3D%23ffffff%3BimageAspect%3D0%3Baspect%3Dfixed%3Bimage%3Dhttps%3A%2F%2Fcdn4.iconfinder.com%2Fdata%2Ficons%2Flogos-and-brands%2F512%2F285_R_Project_logo-128.png%22%20vertex%3D%221%22%20parent%3D%221%22%3E%3CmxGeometry%20x%3D%223957%22%20y%3D%221850%22%20width%3D%2267.74626865671642%22%20height%3D%2267.74626865671642%22%20as%3D%22geometry%22%2F%3E%3C%2FmxCell%3E%3C%2Froot%3E%3C%2FmxGraphModel%3E&lt;/span&gt;" style="shape=image;html=1;verticalAlign=top;verticalLabelPosition=bottom;labelBackgroundColor=#ffffff;imageAspect=0;aspect=fixed;image=https://cdn4.iconfinder.com/data/icons/logos-and-brands/512/285_R_Project_logo-128.png" parent="3pJFGj4-_oHTbB4DjswW-105" vertex="1">
          <mxGeometry x="397" y="255" width="67.74626865671642" height="67.74626865671642" as="geometry" />
        </mxCell>
        <mxCell id="3pJFGj4-_oHTbB4DjswW-23" value="phytools" style="shape=image;html=1;verticalAlign=top;verticalLabelPosition=bottom;labelBackgroundColor=#ffffff;imageAspect=0;aspect=fixed;image=https://cdn4.iconfinder.com/data/icons/logos-and-brands/512/285_R_Project_logo-128.png" parent="3pJFGj4-_oHTbB4DjswW-105" vertex="1">
          <mxGeometry x="449.81" y="82" width="67.74626865671642" height="67.74626865671642" as="geometry" />
        </mxCell>
        <mxCell id="3pJFGj4-_oHTbB4DjswW-24" value="Juice" style="shape=image;html=1;verticalAlign=top;verticalLabelPosition=bottom;labelBackgroundColor=#ffffff;imageAspect=0;aspect=fixed;image=https://cdn3.iconfinder.com/data/icons/google-suits-1/32/3_sites_google_window_website_search_engine-128.png;fontSize=12;" parent="3pJFGj4-_oHTbB4DjswW-105" vertex="1">
          <mxGeometry x="477.37" y="199" width="67" height="67" as="geometry" />
        </mxCell>
        <mxCell id="3pJFGj4-_oHTbB4DjswW-102" value="" style="group" parent="3pJFGj4-_oHTbB4DjswW-105" vertex="1" connectable="0">
          <mxGeometry x="489" y="2.842170943040401e-14" width="195" height="411.75" as="geometry" />
        </mxCell>
        <mxCell id="3pJFGj4-_oHTbB4DjswW-13" value="&lt;div&gt;&lt;br&gt;&lt;/div&gt;&lt;div&gt;community matrices&lt;/div&gt;" style="rhombus;whiteSpace=wrap;html=1;fontSize=15;rounded=0;fontStyle=1;strokeColor=#6c8ebf;strokeWidth=4;fillColor=#dae8fc;spacing=5;spacingTop=-20;" parent="3pJFGj4-_oHTbB4DjswW-102" vertex="1">
          <mxGeometry width="125" height="95" as="geometry" />
        </mxCell>
        <mxCell id="3pJFGj4-_oHTbB4DjswW-20" value="&lt;div&gt;&lt;br&gt;&lt;/div&gt;&lt;div&gt;clustering&lt;/div&gt;" style="rhombus;whiteSpace=wrap;html=1;fontSize=15;rounded=0;fontStyle=1;strokeColor=#6c8ebf;strokeWidth=4;fillColor=#dae8fc;spacing=5;spacingTop=-20;" parent="3pJFGj4-_oHTbB4DjswW-102" vertex="1">
          <mxGeometry x="70" y="215" width="125" height="95" as="geometry" />
        </mxCell>
        <mxCell id="3pJFGj4-_oHTbB4DjswW-21" value="&lt;div&gt;&lt;br&gt;&lt;/div&gt;&lt;div&gt;ordination&lt;/div&gt;" style="rhombus;whiteSpace=wrap;html=1;fontSize=15;rounded=0;fontStyle=1;strokeColor=#6c8ebf;strokeWidth=4;fillColor=#dae8fc;spacing=5;spacingTop=-20;" parent="3pJFGj4-_oHTbB4DjswW-102" vertex="1">
          <mxGeometry x="70" y="95" width="125" height="95" as="geometry" />
        </mxCell>
        <mxCell id="3pJFGj4-_oHTbB4DjswW-25" value="&lt;div&gt;&lt;br&gt;&lt;/div&gt;&lt;div&gt;hypervolumes&lt;/div&gt;" style="rhombus;whiteSpace=wrap;html=1;fontSize=15;rounded=0;fontStyle=1;strokeColor=#6c8ebf;strokeWidth=4;fillColor=#dae8fc;spacing=5;spacingTop=-20;" parent="3pJFGj4-_oHTbB4DjswW-102" vertex="1">
          <mxGeometry y="316.75" width="125" height="95" as="geometry" />
        </mxCell>
        <mxCell id="3pJFGj4-_oHTbB4DjswW-110" value="BiodiversityR" style="shape=image;html=1;verticalAlign=top;verticalLabelPosition=bottom;labelBackgroundColor=#ffffff;imageAspect=0;aspect=fixed;image=https://cdn4.iconfinder.com/data/icons/logos-and-brands/512/285_R_Project_logo-128.png" parent="3pJFGj4-_oHTbB4DjswW-105" vertex="1">
          <mxGeometry x="340" y="180" width="67.74626865671642" height="67.74626865671642" as="geometry" />
        </mxCell>
        <mxCell id="awDAAARCZt9qaH9nBusd-19" value="SDM" style="swimlane;fontSize=16;fillColor=#d5e8d4;strokeColor=#82b366;" parent="3pJFGj4-_oHTbB4DjswW-112" vertex="1">
          <mxGeometry x="20" y="40" width="1060" height="780" as="geometry" />
        </mxCell>
        <mxCell id="Y2ZBj6na6wr-5ao4Nka5-161" value="&lt;div style=&quot;color: rgb(0 , 0 , 0) ; font-family: &amp;#34;helvetica&amp;#34; ; font-style: normal ; letter-spacing: normal ; text-align: center ; text-indent: 0px ; text-transform: none ; word-spacing: 0px ; background-color: rgb(248 , 249 , 250)&quot;&gt;&lt;span style=&quot;font-size: 20px&quot;&gt;&lt;b&gt;Species Distribution Models&lt;/b&gt;&lt;/span&gt;&lt;/div&gt;" style="text;whiteSpace=wrap;html=1;fontSize=16;" parent="awDAAARCZt9qaH9nBusd-19" vertex="1">
          <mxGeometry x="99" y="40" width="310" height="40" as="geometry" />
        </mxCell>
        <mxCell id="aQgeZc3YTdZVwDT0ifam-16" style="edgeStyle=orthogonalEdgeStyle;rounded=1;orthogonalLoop=1;jettySize=auto;html=1;entryX=0.842;entryY=0.104;entryDx=0;entryDy=0;entryPerimeter=0;strokeColor=#4D9AFF;strokeWidth=6;fillColor=#7EA6E0;endFill=0;endArrow=openThin;startFill=0;" parent="awDAAARCZt9qaH9nBusd-19" source="Y2ZBj6na6wr-5ao4Nka5-167" target="aQgeZc3YTdZVwDT0ifam-7" edge="1">
          <mxGeometry relative="1" as="geometry" />
        </mxCell>
        <mxCell id="Y2ZBj6na6wr-5ao4Nka5-167" value="&lt;br&gt;spatial correlation" style="shape=hexagon;perimeter=hexagonPerimeter2;whiteSpace=wrap;html=1;fixedSize=1;rounded=0;labelBackgroundColor=none;strokeColor=#6c8ebf;fillColor=#dae8fc;gradientColor=none;fontSize=15;direction=south;strokeWidth=4;spacing=5;spacingTop=-20;fontStyle=1;verticalAlign=middle;size=20.000000000000227;" parent="awDAAARCZt9qaH9nBusd-19" vertex="1">
          <mxGeometry x="615.0022388059699" y="34.00000000000001" width="205.23507462686567" height="71.5" as="geometry" />
        </mxCell>
        <mxCell id="Y2ZBj6na6wr-5ao4Nka5-175" style="edgeStyle=orthogonalEdgeStyle;jumpStyle=none;orthogonalLoop=1;jettySize=auto;html=1;entryX=0.5;entryY=0;entryDx=0;entryDy=0;startFill=0;endArrow=openThin;endFill=0;strokeColor=#4D9AFF;strokeWidth=6;fillColor=#7EA6E0;fontSize=11;exitX=1;exitY=0.5;exitDx=0;exitDy=0;" parent="awDAAARCZt9qaH9nBusd-19" source="Y2ZBj6na6wr-5ao4Nka5-172" target="3pJFGj4-_oHTbB4DjswW-6" edge="1">
          <mxGeometry relative="1" as="geometry">
            <Array as="points">
              <mxPoint x="184" y="400" />
              <mxPoint x="113" y="400" />
            </Array>
            <mxPoint x="152.11977611940256" y="450" as="targetPoint" />
          </mxGeometry>
        </mxCell>
        <mxCell id="Y2ZBj6na6wr-5ao4Nka5-176" style="edgeStyle=orthogonalEdgeStyle;jumpStyle=none;orthogonalLoop=1;jettySize=auto;html=1;startFill=0;endArrow=openThin;endFill=0;strokeColor=#4D9AFF;strokeWidth=6;fillColor=#7EA6E0;fontSize=11;entryX=0.5;entryY=0;entryDx=0;entryDy=0;exitX=1;exitY=0.5;exitDx=0;exitDy=0;" parent="awDAAARCZt9qaH9nBusd-19" source="Y2ZBj6na6wr-5ao4Nka5-172" target="3pJFGj4-_oHTbB4DjswW-7" edge="1">
          <mxGeometry relative="1" as="geometry">
            <Array as="points">
              <mxPoint x="184" y="400" />
              <mxPoint x="260" y="400" />
            </Array>
            <mxPoint x="376.35977611940234" y="450" as="targetPoint" />
          </mxGeometry>
        </mxCell>
        <mxCell id="Y2ZBj6na6wr-5ao4Nka5-171" value="sp / sf / raster" style="shape=image;html=1;verticalAlign=top;verticalLabelPosition=bottom;labelBackgroundColor=#ffffff;imageAspect=0;aspect=fixed;image=https://cdn4.iconfinder.com/data/icons/logos-and-brands/512/285_R_Project_logo-128.png" parent="awDAAARCZt9qaH9nBusd-19" vertex="1">
          <mxGeometry x="297.49895522388033" y="290" width="67.74626865671642" height="67.74626865671642" as="geometry" />
        </mxCell>
        <mxCell id="Y2ZBj6na6wr-5ao4Nka5-172" value="&lt;br&gt;spatial representation" style="shape=hexagon;perimeter=hexagonPerimeter2;whiteSpace=wrap;html=1;fixedSize=1;rounded=0;labelBackgroundColor=none;strokeColor=#6c8ebf;fillColor=#dae8fc;gradientColor=none;fontSize=15;direction=south;strokeWidth=4;spacing=5;spacingTop=-20;fontStyle=1;verticalAlign=middle;size=20.000000000000227;" parent="awDAAARCZt9qaH9nBusd-19" vertex="1">
          <mxGeometry x="81.74223880596969" y="290" width="204.23507462686567" height="71.5" as="geometry" />
        </mxCell>
        <mxCell id="Y2ZBj6na6wr-5ao4Nka5-178" style="edgeStyle=orthogonalEdgeStyle;orthogonalLoop=1;jettySize=auto;html=1;entryX=0.5;entryY=0;entryDx=0;entryDy=0;startFill=0;endArrow=openThin;endFill=0;strokeColor=#4D9AFF;strokeWidth=6;fillColor=#7EA6E0;exitX=0.5;exitY=1;exitDx=0;exitDy=0;" parent="awDAAARCZt9qaH9nBusd-19" source="3pJFGj4-_oHTbB4DjswW-6" target="3pJFGj4-_oHTbB4DjswW-8" edge="1">
          <mxGeometry relative="1" as="geometry">
            <mxPoint x="152.11977611940256" y="461.5" as="sourcePoint" />
            <mxPoint x="152.11977611940256" y="510" as="targetPoint" />
          </mxGeometry>
        </mxCell>
        <mxCell id="aQgeZc3YTdZVwDT0ifam-14" value="" style="group" parent="awDAAARCZt9qaH9nBusd-19" vertex="1" connectable="0">
          <mxGeometry x="409" y="138" width="624.37" height="630.6600000000001" as="geometry" />
        </mxCell>
        <mxCell id="aQgeZc3YTdZVwDT0ifam-9" value="" style="verticalLabelPosition=bottom;verticalAlign=middle;html=1;shape=mxgraph.basic.polygon;polyCoords=[[0.25,0],[0.75,0],[1,0.25],[1,0.75],[0.75,1],[0.25,1],[0,0.75],[0,0.25]];polyline=0;rounded=0;fontSize=15;fontStyle=1;strokeWidth=2;fillColor=#e1d5e7;spacing=5;spacingTop=-20;gradientDirection=north;gradientColor=#ffffff;opacity=60;strokeColor=#A680B8;" parent="aQgeZc3YTdZVwDT0ifam-14" vertex="1">
          <mxGeometry x="146.74" y="266.32" width="366.63" height="355" as="geometry" />
        </mxCell>
        <mxCell id="aQgeZc3YTdZVwDT0ifam-8" value="" style="verticalLabelPosition=bottom;verticalAlign=middle;html=1;shape=mxgraph.basic.polygon;polyCoords=[[0.25,0],[0.75,0],[1,0.25],[1,0.75],[0.75,1],[0.25,1],[0,0.75],[0,0.25]];polyline=0;rounded=0;fontSize=15;fontStyle=1;strokeWidth=2;fillColor=#d5e8d4;spacing=5;spacingTop=-20;gradientDirection=west;opacity=60;gradientColor=#ffffff;strokeColor=#97D077;" parent="aQgeZc3YTdZVwDT0ifam-14" vertex="1">
          <mxGeometry x="253.37" width="366" height="355" as="geometry" />
        </mxCell>
        <mxCell id="aQgeZc3YTdZVwDT0ifam-7" value="" style="verticalLabelPosition=bottom;verticalAlign=middle;html=1;shape=mxgraph.basic.polygon;polyCoords=[[0.25,0],[0.75,0],[1,0.25],[1,0.75],[0.75,1],[0.25,1],[0,0.75],[0,0.25]];polyline=0;rounded=0;fontSize=15;fontStyle=1;strokeWidth=2;fillColor=#dae8fc;spacing=5;spacingTop=-20;gradientDirection=east;gradientColor=#ffffff;opacity=60;strokeColor=#7EA6E0;" parent="aQgeZc3YTdZVwDT0ifam-14" vertex="1">
          <mxGeometry width="366" height="355" as="geometry" />
        </mxCell>
        <mxCell id="Y2ZBj6na6wr-5ao4Nka5-168" value="Dismo" style="shape=image;html=1;verticalAlign=top;verticalLabelPosition=bottom;labelBackgroundColor=#ffffff;imageAspect=0;aspect=fixed;image=https://cdn4.iconfinder.com/data/icons/logos-and-brands/512/285_R_Project_logo-128.png" parent="aQgeZc3YTdZVwDT0ifam-14" vertex="1">
          <mxGeometry x="275.61895522388033" y="225.16000000000003" width="67.74626865671642" height="67.74626865671642" as="geometry" />
        </mxCell>
        <mxCell id="Y2ZBj6na6wr-5ao4Nka5-184" value="MCMCglmm" style="shape=image;html=1;verticalAlign=top;verticalLabelPosition=bottom;labelBackgroundColor=#ffffff;imageAspect=0;aspect=fixed;image=https://cdn4.iconfinder.com/data/icons/logos-and-brands/512/285_R_Project_logo-128.png" parent="aQgeZc3YTdZVwDT0ifam-14" vertex="1">
          <mxGeometry x="343.37" y="430.66" width="67.74626865671642" height="67.74626865671642" as="geometry" />
        </mxCell>
        <mxCell id="Y2ZBj6na6wr-5ao4Nka5-183" value="sdm" style="shape=image;html=1;verticalAlign=top;verticalLabelPosition=bottom;labelBackgroundColor=#ffffff;imageAspect=0;aspect=fixed;image=https://cdn4.iconfinder.com/data/icons/logos-and-brands/512/285_R_Project_logo-128.png" parent="aQgeZc3YTdZVwDT0ifam-14" vertex="1">
          <mxGeometry x="363.37" y="261.13000000000005" width="67.74626865671642" height="67.74626865671642" as="geometry" />
        </mxCell>
        <mxCell id="Y2ZBj6na6wr-5ao4Nka5-182" value="biomod2" style="shape=image;html=1;verticalAlign=top;verticalLabelPosition=bottom;labelBackgroundColor=#ffffff;imageAspect=0;aspect=fixed;image=https://cdn4.iconfinder.com/data/icons/logos-and-brands/512/285_R_Project_logo-128.png" parent="aQgeZc3YTdZVwDT0ifam-14" vertex="1">
          <mxGeometry x="275.62" y="305.66" width="67.74626865671642" height="67.74626865671642" as="geometry" />
        </mxCell>
        <mxCell id="Y2ZBj6na6wr-5ao4Nka5-181" value="jSDM" style="shape=image;html=1;verticalAlign=top;verticalLabelPosition=bottom;labelBackgroundColor=#ffffff;imageAspect=0;aspect=fixed;image=https://cdn4.iconfinder.com/data/icons/logos-and-brands/512/285_R_Project_logo-128.png" parent="aQgeZc3YTdZVwDT0ifam-14" vertex="1">
          <mxGeometry x="275.62" y="495.66" width="67.74626865671642" height="67.74626865671642" as="geometry" />
        </mxCell>
        <mxCell id="Y2ZBj6na6wr-5ao4Nka5-180" value="brt" style="shape=image;html=1;verticalAlign=top;verticalLabelPosition=bottom;labelBackgroundColor=#ffffff;imageAspect=0;aspect=fixed;image=https://cdn4.iconfinder.com/data/icons/logos-and-brands/512/285_R_Project_logo-128.png" parent="aQgeZc3YTdZVwDT0ifam-14" vertex="1">
          <mxGeometry x="365.62" y="50.000000000000085" width="67.74626865671642" height="67.74626865671642" as="geometry" />
        </mxCell>
        <mxCell id="Y2ZBj6na6wr-5ao4Nka5-179" value="Hmsc" style="shape=image;html=1;verticalAlign=top;verticalLabelPosition=bottom;labelBackgroundColor=#ffffff;imageAspect=0;aspect=fixed;image=https://cdn4.iconfinder.com/data/icons/logos-and-brands/512/285_R_Project_logo-128.png" parent="aQgeZc3YTdZVwDT0ifam-14" vertex="1">
          <mxGeometry x="419.99895522388033" y="466.66" width="67.74626865671642" height="67.74626865671642" as="geometry" />
        </mxCell>
        <mxCell id="Y2ZBj6na6wr-5ao4Nka5-185" value="lme4" style="shape=image;html=1;verticalAlign=top;verticalLabelPosition=bottom;labelBackgroundColor=#ffffff;imageAspect=0;aspect=fixed;image=https://cdn4.iconfinder.com/data/icons/logos-and-brands/512/285_R_Project_logo-128.png" parent="aQgeZc3YTdZVwDT0ifam-14" vertex="1">
          <mxGeometry x="439.36895522388033" y="373.41" width="67.74626865671642" height="67.74626865671642" as="geometry" />
        </mxCell>
        <mxCell id="Y2ZBj6na6wr-5ao4Nka5-195" value="maxent" style="shape=image;html=1;verticalAlign=top;verticalLabelPosition=bottom;labelBackgroundColor=#ffffff;imageAspect=0;aspect=fixed;image=https://cdn3.iconfinder.com/data/icons/google-suits-1/32/3_sites_google_window_website_search_engine-128.png;fontSize=12;" parent="aQgeZc3YTdZVwDT0ifam-14" vertex="1">
          <mxGeometry x="533.37" y="144.99999999999994" width="67" height="67" as="geometry" />
        </mxCell>
        <mxCell id="Y2ZBj6na6wr-5ao4Nka5-196" value="SDMtoolbox" style="shape=image;html=1;verticalAlign=top;verticalLabelPosition=bottom;labelBackgroundColor=#ffffff;imageAspect=0;aspect=fixed;image=https://cdn3.iconfinder.com/data/icons/google-suits-1/32/3_sites_google_window_website_search_engine-128.png;fontSize=12;" parent="aQgeZc3YTdZVwDT0ifam-14" vertex="1">
          <mxGeometry x="470" y="225.16000000000005" width="67" height="67" as="geometry" />
        </mxCell>
        <mxCell id="aQgeZc3YTdZVwDT0ifam-0" value="&lt;div&gt;&lt;br&gt;&lt;/div&gt;&lt;div&gt;bioclim&lt;/div&gt;" style="rhombus;whiteSpace=wrap;html=1;fontSize=15;rounded=0;fontStyle=1;strokeColor=#6c8ebf;strokeWidth=4;fillColor=#dae8fc;spacing=5;spacingTop=-20;" parent="aQgeZc3YTdZVwDT0ifam-14" vertex="1">
          <mxGeometry x="52.6099999999999" y="60.660000000000025" width="125" height="95" as="geometry" />
        </mxCell>
        <mxCell id="aQgeZc3YTdZVwDT0ifam-1" value="&lt;div&gt;&lt;br&gt;&lt;/div&gt;&lt;div&gt;maximum entropy&lt;/div&gt;" style="rhombus;whiteSpace=wrap;html=1;fontSize=15;rounded=0;fontStyle=1;strokeColor=#6c8ebf;strokeWidth=4;fillColor=#dae8fc;spacing=5;spacingTop=-20;" parent="aQgeZc3YTdZVwDT0ifam-14" vertex="1">
          <mxGeometry x="391.37" y="112.00000000000009" width="125" height="95" as="geometry" />
        </mxCell>
        <mxCell id="aQgeZc3YTdZVwDT0ifam-2" value="&lt;div&gt;&lt;br&gt;&lt;/div&gt;&lt;div&gt;GLM / GAM&lt;/div&gt;" style="rhombus;whiteSpace=wrap;html=1;fontSize=15;rounded=0;fontStyle=1;strokeColor=#6c8ebf;strokeWidth=4;fillColor=#dae8fc;spacing=5;spacingTop=-20;" parent="aQgeZc3YTdZVwDT0ifam-14" vertex="1">
          <mxGeometry x="152.62" y="335.66" width="125" height="95" as="geometry" />
        </mxCell>
        <mxCell id="aQgeZc3YTdZVwDT0ifam-3" value="&lt;div&gt;&lt;br&gt;&lt;/div&gt;&lt;div&gt;occupancy modelling&lt;/div&gt;" style="rhombus;whiteSpace=wrap;html=1;fontSize=15;rounded=0;fontStyle=1;strokeColor=#6c8ebf;strokeWidth=4;fillColor=#dae8fc;spacing=5;spacingTop=-20;" parent="aQgeZc3YTdZVwDT0ifam-14" vertex="1">
          <mxGeometry x="216" y="400.6600000000001" width="125" height="95" as="geometry" />
        </mxCell>
        <mxCell id="aQgeZc3YTdZVwDT0ifam-4" value="&lt;div&gt;&lt;br&gt;&lt;/div&gt;&lt;div&gt;joint SDM&lt;/div&gt;" style="rhombus;whiteSpace=wrap;html=1;fontSize=15;rounded=0;fontStyle=1;strokeColor=#6c8ebf;strokeWidth=4;fillColor=#dae8fc;spacing=5;spacingTop=-20;" parent="aQgeZc3YTdZVwDT0ifam-14" vertex="1">
          <mxGeometry x="151.37" y="466.66" width="125" height="95" as="geometry" />
        </mxCell>
        <mxCell id="aQgeZc3YTdZVwDT0ifam-5" value="base" style="shape=image;html=1;verticalAlign=top;verticalLabelPosition=bottom;labelBackgroundColor=#ffffff;imageAspect=0;aspect=fixed;image=https://cdn4.iconfinder.com/data/icons/logos-and-brands/512/285_R_Project_logo-128.png" parent="aQgeZc3YTdZVwDT0ifam-14" vertex="1">
          <mxGeometry x="365.61895522388033" y="349.29" width="67.74626865671642" height="67.74626865671642" as="geometry" />
        </mxCell>
        <mxCell id="aQgeZc3YTdZVwDT0ifam-6" value="ENMeval" style="shape=image;html=1;verticalAlign=top;verticalLabelPosition=bottom;labelBackgroundColor=#ffffff;imageAspect=0;aspect=fixed;image=https://cdn4.iconfinder.com/data/icons/logos-and-brands/512/285_R_Project_logo-128.png" parent="aQgeZc3YTdZVwDT0ifam-14" vertex="1">
          <mxGeometry x="158.37" y="173.62000000000006" width="67.74626865671642" height="67.74626865671642" as="geometry" />
        </mxCell>
        <mxCell id="aQgeZc3YTdZVwDT0ifam-10" value="&lt;div&gt;&lt;br&gt;&lt;/div&gt;&lt;div&gt;regression&amp;nbsp; trees&lt;/div&gt;" style="rhombus;whiteSpace=wrap;html=1;fontSize=15;rounded=0;fontStyle=1;strokeColor=#6c8ebf;strokeWidth=4;fillColor=#dae8fc;spacing=5;spacingTop=-20;" parent="aQgeZc3YTdZVwDT0ifam-14" vertex="1">
          <mxGeometry x="461.12" y="50" width="125" height="95" as="geometry" />
        </mxCell>
        <mxCell id="aQgeZc3YTdZVwDT0ifam-11" value="Profiling: Presence only" style="text;html=1;align=center;verticalAlign=middle;resizable=0;points=[];autosize=1;fontStyle=1" parent="aQgeZc3YTdZVwDT0ifam-14" vertex="1">
          <mxGeometry x="110" y="8.620000000000005" width="150" height="20" as="geometry" />
        </mxCell>
        <mxCell id="aQgeZc3YTdZVwDT0ifam-12" value="ML: Presence Absence / &lt;br&gt;Presence background" style="text;html=1;align=center;verticalAlign=middle;resizable=0;points=[];autosize=1;fontStyle=1" parent="aQgeZc3YTdZVwDT0ifam-14" vertex="1">
          <mxGeometry x="363.37" y="8.620000000000005" width="150" height="30" as="geometry" />
        </mxCell>
        <mxCell id="aQgeZc3YTdZVwDT0ifam-13" value="Regression: Presence absence" style="text;html=1;align=center;verticalAlign=middle;resizable=0;points=[];autosize=1;fontStyle=1" parent="aQgeZc3YTdZVwDT0ifam-14" vertex="1">
          <mxGeometry x="241.12" y="591.0000000000001" width="190" height="20" as="geometry" />
        </mxCell>
        <mxCell id="3pJFGj4-_oHTbB4DjswW-6" value="&lt;div&gt;&lt;br&gt;&lt;/div&gt;&lt;div&gt;interpolation&lt;/div&gt;" style="rhombus;whiteSpace=wrap;html=1;fontSize=15;rounded=0;fontStyle=1;strokeColor=#6c8ebf;strokeWidth=4;fillColor=#dae8fc;spacing=5;spacingTop=-20;" parent="awDAAARCZt9qaH9nBusd-19" vertex="1">
          <mxGeometry x="50" y="430" width="125" height="95" as="geometry" />
        </mxCell>
        <mxCell id="3pJFGj4-_oHTbB4DjswW-7" value="&lt;div&gt;&lt;br&gt;&lt;/div&gt;&lt;div&gt;point pattern analysis&lt;/div&gt;" style="rhombus;whiteSpace=wrap;html=1;fontSize=15;rounded=0;fontStyle=1;strokeColor=#6c8ebf;strokeWidth=4;fillColor=#dae8fc;spacing=5;spacingTop=-20;" parent="awDAAARCZt9qaH9nBusd-19" vertex="1">
          <mxGeometry x="197.5" y="430" width="125" height="95" as="geometry" />
        </mxCell>
        <mxCell id="3pJFGj4-_oHTbB4DjswW-8" value="&lt;div&gt;&lt;br&gt;&lt;/div&gt;&lt;div&gt;variograms&lt;/div&gt;" style="rhombus;whiteSpace=wrap;html=1;fontSize=15;rounded=0;fontStyle=1;strokeColor=#6c8ebf;strokeWidth=4;fillColor=#dae8fc;spacing=5;spacingTop=-20;" parent="awDAAARCZt9qaH9nBusd-19" vertex="1">
          <mxGeometry x="49.999999999999886" y="560" width="125" height="95" as="geometry" />
        </mxCell>
        <mxCell id="3pJFGj4-_oHTbB4DjswW-99" value="" style="aspect=fixed;html=1;points=[];align=center;image;fontSize=12;image=img/lib/mscae/LogDiagnostics.svg;" parent="awDAAARCZt9qaH9nBusd-19" vertex="1">
          <mxGeometry x="20" y="40" width="67" height="74.44" as="geometry" />
        </mxCell>
        <mxCell id="3pJFGj4-_oHTbB4DjswW-123" value="Trends and pattern detection" style="swimlane;fontSize=16;container=1;fillColor=#d5e8d4;strokeColor=#82b366;" parent="3pJFGj4-_oHTbB4DjswW-112" vertex="1">
          <mxGeometry x="20" y="1410" width="1060" height="370" as="geometry">
            <mxRectangle x="6230" y="1590" width="110" height="23" as="alternateBounds" />
          </mxGeometry>
        </mxCell>
        <mxCell id="3pJFGj4-_oHTbB4DjswW-124" style="edgeStyle=orthogonalEdgeStyle;orthogonalLoop=1;jettySize=auto;html=1;exitX=1;exitY=0.5;exitDx=0;exitDy=0;entryX=0.5;entryY=0;entryDx=0;entryDy=0;labelBackgroundColor=none;startArrow=none;startFill=0;endArrow=openThin;endFill=0;strokeColor=#4D9AFF;strokeWidth=6;fontSize=25;fontColor=#000000;" parent="3pJFGj4-_oHTbB4DjswW-123" source="3pJFGj4-_oHTbB4DjswW-127" target="3pJFGj4-_oHTbB4DjswW-146" edge="1">
          <mxGeometry relative="1" as="geometry">
            <Array as="points">
              <mxPoint x="262" y="159.88" />
              <mxPoint x="92" y="159.88" />
            </Array>
          </mxGeometry>
        </mxCell>
        <mxCell id="3pJFGj4-_oHTbB4DjswW-125" style="edgeStyle=orthogonalEdgeStyle;orthogonalLoop=1;jettySize=auto;html=1;entryX=0.5;entryY=0;entryDx=0;entryDy=0;labelBackgroundColor=none;startArrow=none;startFill=0;endArrow=openThin;endFill=0;strokeColor=#4D9AFF;strokeWidth=6;fontSize=25;fontColor=#000000;exitX=1.016;exitY=0.501;exitDx=0;exitDy=0;exitPerimeter=0;" parent="3pJFGj4-_oHTbB4DjswW-123" source="3pJFGj4-_oHTbB4DjswW-127" target="3pJFGj4-_oHTbB4DjswW-141" edge="1">
          <mxGeometry relative="1" as="geometry">
            <Array as="points">
              <mxPoint x="262" y="159.88" />
              <mxPoint x="262" y="178.88" />
            </Array>
            <mxPoint x="170" y="159.88" as="sourcePoint" />
          </mxGeometry>
        </mxCell>
        <mxCell id="3pJFGj4-_oHTbB4DjswW-127" value="&lt;br&gt;time" style="shape=hexagon;perimeter=hexagonPerimeter2;whiteSpace=wrap;html=1;fixedSize=1;rounded=0;labelBackgroundColor=none;strokeColor=#6c8ebf;fillColor=#dae8fc;gradientColor=none;fontSize=15;direction=south;strokeWidth=4;spacing=5;spacingTop=-20;fontStyle=1;verticalAlign=middle;size=20.000000000000227;" parent="3pJFGj4-_oHTbB4DjswW-123" vertex="1">
          <mxGeometry x="160.00223880596968" y="69.88" width="204.23507462686567" height="71.5" as="geometry" />
        </mxCell>
        <mxCell id="3pJFGj4-_oHTbB4DjswW-128" value="lubridate" style="shape=image;html=1;verticalAlign=bottom;verticalLabelPosition=top;labelBackgroundColor=#ffffff;imageAspect=0;aspect=fixed;image=https://cdn4.iconfinder.com/data/icons/logos-and-brands/512/285_R_Project_logo-128.png;labelPosition=center;align=center;" parent="3pJFGj4-_oHTbB4DjswW-123" vertex="1">
          <mxGeometry x="369.99895522388033" y="69.88" width="67.74626865671642" height="67.74626865671642" as="geometry" />
        </mxCell>
        <mxCell id="3pJFGj4-_oHTbB4DjswW-129" value="BRCindicators" style="shape=image;html=1;verticalAlign=top;verticalLabelPosition=bottom;labelBackgroundColor=#ffffff;imageAspect=0;aspect=fixed;image=https://cdn4.iconfinder.com/data/icons/logos-and-brands/512/285_R_Project_logo-128.png" parent="3pJFGj4-_oHTbB4DjswW-123" vertex="1">
          <mxGeometry x="92.25895522388032" y="273.51" width="67.74626865671642" height="67.74626865671642" as="geometry" />
        </mxCell>
        <mxCell id="3pJFGj4-_oHTbB4DjswW-130" value="&lt;div style=&quot;color: rgb(0 , 0 , 0) ; font-family: &amp;#34;helvetica&amp;#34; ; font-style: normal ; letter-spacing: normal ; text-align: center ; text-indent: 0px ; text-transform: none ; word-spacing: 0px ; background-color: rgb(248 , 249 , 250)&quot;&gt;&lt;span style=&quot;font-size: 20px&quot;&gt;&lt;b&gt;Trends and patterns&lt;/b&gt;&lt;/span&gt;&lt;/div&gt;" style="text;whiteSpace=wrap;html=1;fontSize=16;" parent="3pJFGj4-_oHTbB4DjswW-123" vertex="1">
          <mxGeometry x="104.62" y="40" width="220" height="40" as="geometry" />
        </mxCell>
        <mxCell id="3pJFGj4-_oHTbB4DjswW-131" value="MSI" style="shape=image;html=1;verticalAlign=top;verticalLabelPosition=bottom;labelBackgroundColor=#ffffff;imageAspect=0;aspect=fixed;image=https://cdn4.iconfinder.com/data/icons/logos-and-brands/512/285_R_Project_logo-128.png" parent="3pJFGj4-_oHTbB4DjswW-123" vertex="1">
          <mxGeometry x="279.99895522388033" y="273.51" width="67.74626865671642" height="67.74626865671642" as="geometry" />
        </mxCell>
        <mxCell id="3pJFGj4-_oHTbB4DjswW-132" style="edgeStyle=orthogonalEdgeStyle;orthogonalLoop=1;jettySize=auto;html=1;exitX=1;exitY=0.75;exitDx=0;exitDy=0;entryX=0.022;entryY=0.507;entryDx=0;entryDy=0;entryPerimeter=0;labelBackgroundColor=none;startArrow=none;startFill=0;endArrow=openThin;endFill=0;strokeColor=#4D9AFF;strokeWidth=6;fontSize=25;fontColor=#000000;" parent="3pJFGj4-_oHTbB4DjswW-123" source="3pJFGj4-_oHTbB4DjswW-134" target="3pJFGj4-_oHTbB4DjswW-144" edge="1">
          <mxGeometry relative="1" as="geometry">
            <Array as="points">
              <mxPoint x="861.97" y="159.88" />
              <mxPoint x="789.97" y="159.88" />
              <mxPoint x="789.97" y="203.88" />
            </Array>
          </mxGeometry>
        </mxCell>
        <mxCell id="3pJFGj4-_oHTbB4DjswW-133" style="edgeStyle=orthogonalEdgeStyle;orthogonalLoop=1;jettySize=auto;html=1;exitX=1;exitY=0.75;exitDx=0;exitDy=0;entryX=0;entryY=0.5;entryDx=0;entryDy=0;labelBackgroundColor=none;startArrow=none;startFill=0;endArrow=openThin;endFill=0;strokeColor=#4D9AFF;strokeWidth=6;fontSize=25;fontColor=#000000;" parent="3pJFGj4-_oHTbB4DjswW-123" source="3pJFGj4-_oHTbB4DjswW-134" target="3pJFGj4-_oHTbB4DjswW-135" edge="1">
          <mxGeometry relative="1" as="geometry">
            <Array as="points">
              <mxPoint x="861.97" y="159.88" />
              <mxPoint x="789.97" y="159.88" />
              <mxPoint x="789.97" y="307.88" />
            </Array>
          </mxGeometry>
        </mxCell>
        <mxCell id="3pJFGj4-_oHTbB4DjswW-134" value="&lt;br&gt;&lt;span&gt;other patterns&lt;/span&gt;" style="shape=hexagon;perimeter=hexagonPerimeter2;whiteSpace=wrap;html=1;fixedSize=1;rounded=0;labelBackgroundColor=none;strokeColor=#6c8ebf;fillColor=#dae8fc;gradientColor=none;fontSize=15;direction=south;strokeWidth=4;spacing=5;spacingTop=-20;fontStyle=1;verticalAlign=middle;size=20.000000000000227;" parent="3pJFGj4-_oHTbB4DjswW-123" vertex="1">
          <mxGeometry x="799.9722388059698" y="69.88" width="204.23507462686567" height="71.5" as="geometry" />
        </mxCell>
        <mxCell id="3pJFGj4-_oHTbB4DjswW-135" value="&lt;div&gt;&lt;br&gt;&lt;/div&gt;&lt;div&gt;&lt;span&gt;permutational&lt;/span&gt;&lt;br&gt;&lt;/div&gt;&lt;div&gt;statistics&lt;/div&gt;" style="rhombus;whiteSpace=wrap;html=1;fontSize=15;rounded=0;fontStyle=1;strokeColor=#6c8ebf;strokeWidth=4;fillColor=#dae8fc;spacing=5;spacingTop=-20;" parent="3pJFGj4-_oHTbB4DjswW-123" vertex="1">
          <mxGeometry x="819.97" y="259.88" width="125" height="95" as="geometry" />
        </mxCell>
        <mxCell id="3pJFGj4-_oHTbB4DjswW-140" value="lmPerm" style="shape=image;html=1;verticalAlign=top;verticalLabelPosition=bottom;labelBackgroundColor=#ffffff;imageAspect=0;aspect=fixed;image=https://cdn4.iconfinder.com/data/icons/logos-and-brands/512/285_R_Project_logo-128.png" parent="3pJFGj4-_oHTbB4DjswW-123" vertex="1">
          <mxGeometry x="952.9789552238803" y="273.5099999999999" width="67.74626865671642" height="67.74626865671642" as="geometry" />
        </mxCell>
        <mxCell id="3pJFGj4-_oHTbB4DjswW-141" value="&lt;div&gt;&lt;br&gt;&lt;/div&gt;&lt;div&gt;multispecies indices&lt;/div&gt;" style="rhombus;whiteSpace=wrap;html=1;fontSize=15;rounded=0;fontStyle=1;strokeColor=#6c8ebf;strokeWidth=4;fillColor=#dae8fc;spacing=5;spacingTop=-20;" parent="3pJFGj4-_oHTbB4DjswW-123" vertex="1">
          <mxGeometry x="199.62" y="195.2" width="125" height="95" as="geometry" />
        </mxCell>
        <mxCell id="3pJFGj4-_oHTbB4DjswW-143" value="RTRIM" style="shape=image;html=1;verticalAlign=top;verticalLabelPosition=bottom;labelBackgroundColor=#ffffff;imageAspect=0;aspect=fixed;image=https://cdn4.iconfinder.com/data/icons/logos-and-brands/512/285_R_Project_logo-128.png" parent="3pJFGj4-_oHTbB4DjswW-123" vertex="1">
          <mxGeometry x="19.99895522388033" y="273.51" width="67.74626865671642" height="67.74626865671642" as="geometry" />
        </mxCell>
        <mxCell id="3pJFGj4-_oHTbB4DjswW-144" value="&lt;div&gt;&lt;br&gt;&lt;/div&gt;&lt;div&gt;extinction risk&lt;/div&gt;" style="rhombus;whiteSpace=wrap;html=1;fontSize=15;rounded=0;fontStyle=1;strokeColor=#6c8ebf;strokeWidth=4;fillColor=#dae8fc;spacing=5;spacingTop=-20;" parent="3pJFGj4-_oHTbB4DjswW-123" vertex="1">
          <mxGeometry x="819.97" y="156.13" width="125" height="95" as="geometry" />
        </mxCell>
        <mxCell id="3pJFGj4-_oHTbB4DjswW-145" value="red" style="shape=image;html=1;verticalAlign=top;verticalLabelPosition=bottom;labelBackgroundColor=#ffffff;imageAspect=0;aspect=fixed;image=https://cdn4.iconfinder.com/data/icons/logos-and-brands/512/285_R_Project_logo-128.png" parent="3pJFGj4-_oHTbB4DjswW-123" vertex="1">
          <mxGeometry x="956.4589552238804" y="169.76" width="67.74626865671642" height="67.74626865671642" as="geometry" />
        </mxCell>
        <mxCell id="3pJFGj4-_oHTbB4DjswW-146" value="&lt;div&gt;&lt;br&gt;&lt;/div&gt;&lt;div&gt;population indices&lt;/div&gt;" style="rhombus;whiteSpace=wrap;html=1;fontSize=15;rounded=0;fontStyle=1;strokeColor=#6c8ebf;strokeWidth=4;fillColor=#dae8fc;spacing=5;spacingTop=-20;" parent="3pJFGj4-_oHTbB4DjswW-123" vertex="1">
          <mxGeometry x="30" y="195.2" width="125" height="95" as="geometry" />
        </mxCell>
        <mxCell id="3pJFGj4-_oHTbB4DjswW-147" value="" style="aspect=fixed;html=1;points=[];align=center;image;fontSize=12;image=img/lib/mscae/LogDiagnostics.svg;" parent="3pJFGj4-_oHTbB4DjswW-123" vertex="1">
          <mxGeometry x="20" y="39.99999999999999" width="67" height="74.44" as="geometry" />
        </mxCell>
        <mxCell id="3pJFGj4-_oHTbB4DjswW-137" value="&lt;div&gt;&lt;br&gt;&lt;/div&gt;&lt;div&gt;GLM / GAM&lt;/div&gt;" style="rhombus;whiteSpace=wrap;html=1;fontSize=15;rounded=0;fontStyle=1;strokeColor=#6c8ebf;strokeWidth=4;fillColor=#dae8fc;spacing=5;spacingTop=-20;" parent="3pJFGj4-_oHTbB4DjswW-123" vertex="1">
          <mxGeometry x="370" y="195.2000000000001" width="125" height="95" as="geometry" />
        </mxCell>
        <mxCell id="3pJFGj4-_oHTbB4DjswW-126" style="edgeStyle=orthogonalEdgeStyle;orthogonalLoop=1;jettySize=auto;html=1;exitX=1;exitY=0.5;exitDx=0;exitDy=0;entryX=0.5;entryY=0;entryDx=0;entryDy=0;labelBackgroundColor=none;startArrow=none;startFill=0;endArrow=openThin;endFill=0;strokeColor=#4D9AFF;strokeWidth=6;fontSize=25;fontColor=#000000;" parent="3pJFGj4-_oHTbB4DjswW-123" source="3pJFGj4-_oHTbB4DjswW-127" target="3pJFGj4-_oHTbB4DjswW-137" edge="1">
          <mxGeometry relative="1" as="geometry">
            <Array as="points">
              <mxPoint x="262" y="159.88" />
              <mxPoint x="433" y="159.88" />
            </Array>
          </mxGeometry>
        </mxCell>
        <mxCell id="3pJFGj4-_oHTbB4DjswW-136" value="lme4" style="shape=image;html=1;verticalAlign=top;verticalLabelPosition=bottom;labelBackgroundColor=#ffffff;imageAspect=0;aspect=fixed;image=https://cdn4.iconfinder.com/data/icons/logos-and-brands/512/285_R_Project_logo-128.png" parent="3pJFGj4-_oHTbB4DjswW-123" vertex="1">
          <mxGeometry x="519" y="273.26" width="67.74626865671642" height="67.74626865671642" as="geometry" />
        </mxCell>
        <mxCell id="3pJFGj4-_oHTbB4DjswW-138" value="base" style="shape=image;html=1;verticalAlign=top;verticalLabelPosition=bottom;labelBackgroundColor=#ffffff;imageAspect=0;aspect=fixed;image=https://cdn4.iconfinder.com/data/icons/logos-and-brands/512/285_R_Project_logo-128.png" parent="3pJFGj4-_oHTbB4DjswW-123" vertex="1">
          <mxGeometry x="449.99895522388033" y="273.26" width="67.74626865671642" height="67.74626865671642" as="geometry" />
        </mxCell>
        <mxCell id="3pJFGj4-_oHTbB4DjswW-139" value="gam" style="shape=image;html=1;verticalAlign=top;verticalLabelPosition=bottom;labelBackgroundColor=#ffffff;imageAspect=0;aspect=fixed;image=https://cdn4.iconfinder.com/data/icons/logos-and-brands/512/285_R_Project_logo-128.png" parent="3pJFGj4-_oHTbB4DjswW-123" vertex="1">
          <mxGeometry x="588" y="273.5099999999999" width="67.74626865671642" height="67.74626865671642" as="geometry" />
        </mxCell>
        <mxCell id="3pJFGj4-_oHTbB4DjswW-142" value="MCMCglmm" style="shape=image;html=1;verticalAlign=top;verticalLabelPosition=bottom;labelBackgroundColor=#ffffff;imageAspect=0;aspect=fixed;image=https://cdn4.iconfinder.com/data/icons/logos-and-brands/512/285_R_Project_logo-128.png" parent="3pJFGj4-_oHTbB4DjswW-123" vertex="1">
          <mxGeometry x="657.75" y="273.5099999999999" width="67.74626865671642" height="67.74626865671642" as="geometry" />
        </mxCell>
        <mxCell id="Y2ZBj6na6wr-5ao4Nka5-153" value="Spatial Multivariate Analysis" style="swimlane;fontSize=12;fillColor=#d5e8d4;strokeColor=#82b366;" parent="3pJFGj4-_oHTbB4DjswW-112" vertex="1">
          <mxGeometry x="840" y="1000" width="190" height="160" as="geometry" />
        </mxCell>
        <mxCell id="Y2ZBj6na6wr-5ao4Nka5-154" value="&lt;span style=&quot;text-align: left ; background-color: rgb(248 , 249 , 250)&quot;&gt;adespatial&lt;/span&gt;" style="shape=image;html=1;verticalAlign=top;verticalLabelPosition=bottom;labelBackgroundColor=#ffffff;imageAspect=0;aspect=fixed;image=https://cdn4.iconfinder.com/data/icons/logos-and-brands/512/285_R_Project_logo-128.png" parent="Y2ZBj6na6wr-5ao4Nka5-153" vertex="1">
          <mxGeometry x="19.99895522388033" y="59.999999999999886" width="67.74626865671642" height="67.74626865671642" as="geometry" />
        </mxCell>
        <mxCell id="Y2ZBj6na6wr-5ao4Nka5-155" value="&lt;div style=&quot;color: rgb(0 , 0 , 0) ; font-family: &amp;#34;helvetica&amp;#34; ; font-style: normal ; letter-spacing: normal ; text-align: center ; text-indent: 0px ; text-transform: none ; word-spacing: 0px ; background-color: rgb(248 , 249 , 250)&quot;&gt;&lt;b&gt;&lt;font style=&quot;font-size: 16px&quot;&gt;SMA&lt;/font&gt;&lt;/b&gt;&lt;/div&gt;" style="text;whiteSpace=wrap;html=1;fontSize=16;" parent="Y2ZBj6na6wr-5ao4Nka5-153" vertex="1">
          <mxGeometry x="10" y="30" width="50" height="30" as="geometry" />
        </mxCell>
        <mxCell id="Y2ZBj6na6wr-5ao4Nka5-156" value="spmoran" style="shape=image;html=1;verticalAlign=top;verticalLabelPosition=bottom;labelBackgroundColor=#ffffff;imageAspect=0;aspect=fixed;image=https://cdn4.iconfinder.com/data/icons/logos-and-brands/512/285_R_Project_logo-128.png" parent="Y2ZBj6na6wr-5ao4Nka5-153" vertex="1">
          <mxGeometry x="109.99895522388033" y="59.999999999999886" width="67.74626865671642" height="67.74626865671642" as="geometry" />
        </mxCell>
        <mxCell id="yJk_V7Hbr1PSN4Hg7ylu-126" value="      Exploration and Transformation" style="swimlane;fillColor=#e1d5e7;strokeColor=#9673a6;align=left;" parent="WIyWlLk6GJQsqaUBKTNV-1" vertex="1">
          <mxGeometry x="220" y="1180" width="2860" height="620" as="geometry" />
        </mxCell>
        <mxCell id="gclnOcu_DNjMdLOXnFwR-14" value="" style="aspect=fixed;html=1;points=[];align=center;image;fontSize=12;image=img/lib/mscae/Service_Bus_Relay.svg;flipV=1;" parent="yJk_V7Hbr1PSN4Hg7ylu-126" vertex="1">
          <mxGeometry x="1140.62" y="258.54" width="67" height="67" as="geometry" />
        </mxCell>
        <mxCell id="gclnOcu_DNjMdLOXnFwR-16" value="" style="aspect=fixed;html=1;points=[];align=center;image;fontSize=12;image=img/lib/mscae/Chart.svg;" parent="yJk_V7Hbr1PSN4Hg7ylu-126" vertex="1">
          <mxGeometry x="644.6149999999999" y="248.04" width="67" height="64.32" as="geometry" />
        </mxCell>
        <mxCell id="gclnOcu_DNjMdLOXnFwR-17" value="" style="aspect=fixed;html=1;points=[];align=center;image;fontSize=12;image=img/lib/mscae/Log.svg;" parent="yJk_V7Hbr1PSN4Hg7ylu-126" vertex="1">
          <mxGeometry x="2132.62" y="170.82" width="60.3" height="67" as="geometry" />
        </mxCell>
        <mxCell id="gclnOcu_DNjMdLOXnFwR-19" value="" style="aspect=fixed;html=1;points=[];align=center;image;fontSize=12;image=img/lib/mscae/Storage_Explorer.svg;" parent="yJk_V7Hbr1PSN4Hg7ylu-126" vertex="1">
          <mxGeometry x="1140.62" y="168.04" width="67" height="67" as="geometry" />
        </mxCell>
        <mxCell id="gclnOcu_DNjMdLOXnFwR-20" value="Long" style="aspect=fixed;html=1;points=[];align=center;image;fontSize=12;image=img/lib/mscae/Queues_Storage.svg;" parent="yJk_V7Hbr1PSN4Hg7ylu-126" vertex="1">
          <mxGeometry x="30" y="168.04" width="67" height="58.96" as="geometry" />
        </mxCell>
        <mxCell id="3pJFGj4-_oHTbB4DjswW-82" style="edgeStyle=orthogonalEdgeStyle;orthogonalLoop=1;jettySize=auto;html=1;labelBackgroundColor=none;startArrow=none;startFill=0;endArrow=openThin;endFill=0;strokeColor=#4D9AFF;strokeWidth=6;fontSize=25;fontColor=#000000;" parent="yJk_V7Hbr1PSN4Hg7ylu-126" source="gclnOcu_DNjMdLOXnFwR-21" target="gclnOcu_DNjMdLOXnFwR-20" edge="1">
          <mxGeometry relative="1" as="geometry">
            <Array as="points">
              <mxPoint x="90" y="278.04" />
              <mxPoint x="90" y="278.04" />
            </Array>
          </mxGeometry>
        </mxCell>
        <mxCell id="gclnOcu_DNjMdLOXnFwR-21" value="Wide" style="aspect=fixed;html=1;points=[];align=center;image;fontSize=12;image=img/lib/mscae/General_Storage.svg;" parent="yJk_V7Hbr1PSN4Hg7ylu-126" vertex="1">
          <mxGeometry x="30" y="408.04" width="67" height="67" as="geometry" />
        </mxCell>
        <mxCell id="gclnOcu_DNjMdLOXnFwR-22" value="" style="aspect=fixed;html=1;points=[];align=center;image;fontSize=12;image=img/lib/mscae/Management_Groups.svg;" parent="yJk_V7Hbr1PSN4Hg7ylu-126" vertex="1">
          <mxGeometry x="644.6149999999999" y="168.04" width="67" height="53.6" as="geometry" />
        </mxCell>
        <mxCell id="gclnOcu_DNjMdLOXnFwR-40" value="" style="aspect=fixed;html=1;points=[];align=center;image;fontSize=12;image=img/lib/azure2/general/Dashboard.svg;" parent="yJk_V7Hbr1PSN4Hg7ylu-126" vertex="1">
          <mxGeometry x="1140.62" y="367.58000000000004" width="67" height="47.29" as="geometry" />
        </mxCell>
        <mxCell id="Y7cJZKocZSNqlVmRAGfy-78" value="" style="shape=flexArrow;endArrow=classic;html=1;strokeColor=#9673a6;strokeWidth=6;fillColor=#e1d5e7;width=20;" parent="yJk_V7Hbr1PSN4Hg7ylu-126" edge="1">
          <mxGeometry width="50" height="50" relative="1" as="geometry">
            <mxPoint x="1131" y="39.99999999999977" as="sourcePoint" />
            <mxPoint x="1131" y="-50.00000000000023" as="targetPoint" />
          </mxGeometry>
        </mxCell>
        <mxCell id="Y2ZBj6na6wr-5ao4Nka5-159" value="Raster" style="shape=image;html=1;verticalAlign=top;verticalLabelPosition=bottom;labelBackgroundColor=#ffffff;imageAspect=0;aspect=fixed;image=https://cdn4.iconfinder.com/data/icons/miu/24/editor-grid-view-block-outline-stroke-128.png;fontSize=12;" parent="yJk_V7Hbr1PSN4Hg7ylu-126" vertex="1">
          <mxGeometry x="254.23000000000002" y="408.04" width="67" height="67" as="geometry" />
        </mxCell>
        <mxCell id="Y2ZBj6na6wr-5ao4Nka5-164" value="BIRDS" style="shape=image;html=1;verticalAlign=top;verticalLabelPosition=bottom;labelBackgroundColor=#ffffff;imageAspect=0;aspect=fixed;image=https://cdn4.iconfinder.com/data/icons/logos-and-brands/512/285_R_Project_logo-128.png" parent="yJk_V7Hbr1PSN4Hg7ylu-126" vertex="1">
          <mxGeometry x="2539.9989552238803" y="520" width="67.74626865671642" height="67.74626865671642" as="geometry" />
        </mxCell>
        <mxCell id="Y2ZBj6na6wr-5ao4Nka5-169" value="sp / sf / raster" style="shape=image;html=1;verticalAlign=top;verticalLabelPosition=bottom;labelBackgroundColor=#ffffff;imageAspect=0;aspect=fixed;image=https://cdn4.iconfinder.com/data/icons/logos-and-brands/512/285_R_Project_logo-128.png" parent="yJk_V7Hbr1PSN4Hg7ylu-126" vertex="1">
          <mxGeometry x="2763.4789552238803" y="520" width="67.74626865671642" height="67.74626865671642" as="geometry" />
        </mxCell>
        <mxCell id="3pJFGj4-_oHTbB4DjswW-76" value="&lt;br&gt;Transform" style="shape=hexagon;perimeter=hexagonPerimeter2;whiteSpace=wrap;html=1;fixedSize=1;rounded=0;labelBackgroundColor=none;strokeColor=#6c8ebf;fillColor=#dae8fc;gradientColor=none;fontSize=15;direction=south;strokeWidth=4;spacing=5;spacingTop=-20;fontStyle=1;verticalAlign=middle;size=11.75;" parent="yJk_V7Hbr1PSN4Hg7ylu-126" vertex="1">
          <mxGeometry x="79.99552238805973" y="60.460000000000036" width="204.23507462686567" height="71.5" as="geometry" />
        </mxCell>
        <mxCell id="Y2ZBj6na6wr-5ao4Nka5-158" value="Grided" style="shape=image;html=1;verticalAlign=top;verticalLabelPosition=bottom;labelBackgroundColor=#ffffff;imageAspect=0;aspect=fixed;image=https://cdn3.iconfinder.com/data/icons/streamline-icon-set-free-pack/48/Streamline-38-128.png;fontSize=12;" parent="yJk_V7Hbr1PSN4Hg7ylu-126" vertex="1">
          <mxGeometry x="254.23000000000002" y="284.04" width="67" height="67" as="geometry" />
        </mxCell>
        <mxCell id="3pJFGj4-_oHTbB4DjswW-78" value="Vector" style="shape=image;html=1;verticalAlign=top;verticalLabelPosition=bottom;labelBackgroundColor=#ffffff;imageAspect=0;aspect=fixed;image=https://cdn0.iconfinder.com/data/icons/iconico-3/128/33.png" parent="yJk_V7Hbr1PSN4Hg7ylu-126" vertex="1">
          <mxGeometry x="254.23000000000002" y="160" width="67" height="67" as="geometry" />
        </mxCell>
        <mxCell id="3pJFGj4-_oHTbB4DjswW-81" style="edgeStyle=orthogonalEdgeStyle;orthogonalLoop=1;jettySize=auto;html=1;labelBackgroundColor=none;startArrow=none;startFill=0;endArrow=openThin;endFill=0;strokeColor=#4D9AFF;strokeWidth=6;fontSize=25;fontColor=#000000;exitX=0.178;exitY=1.016;exitDx=0;exitDy=0;exitPerimeter=0;entryX=0.173;entryY=0.006;entryDx=0;entryDy=0;entryPerimeter=0;" parent="yJk_V7Hbr1PSN4Hg7ylu-126" source="gclnOcu_DNjMdLOXnFwR-20" target="gclnOcu_DNjMdLOXnFwR-21" edge="1">
          <mxGeometry relative="1" as="geometry">
            <mxPoint x="60" y="348.04" as="targetPoint" />
          </mxGeometry>
        </mxCell>
        <mxCell id="3pJFGj4-_oHTbB4DjswW-79" value="" style="shape=flexArrow;endArrow=classic;startArrow=classic;strokeColor=#9673a6;strokeWidth=6;fillColor=#e1d5e7;fontSize=25;labelBackgroundColor=none;html=1;width=20;" parent="yJk_V7Hbr1PSN4Hg7ylu-126" edge="1">
          <mxGeometry width="50" height="50" relative="1" as="geometry">
            <mxPoint x="97" y="318.04" as="sourcePoint" />
            <mxPoint x="247" y="318.04" as="targetPoint" />
          </mxGeometry>
        </mxCell>
        <mxCell id="3pJFGj4-_oHTbB4DjswW-80" value="&lt;font style=&quot;font-size: 12px&quot;&gt;coordinates&lt;/font&gt;" style="edgeLabel;html=1;align=center;verticalAlign=middle;resizable=0;points=[];fontSize=20;labelBackgroundColor=none;" parent="3pJFGj4-_oHTbB4DjswW-79" vertex="1" connectable="0">
          <mxGeometry x="0.0978" y="-1" relative="1" as="geometry">
            <mxPoint x="-9.379999999999999" y="-1.5" as="offset" />
          </mxGeometry>
        </mxCell>
        <mxCell id="3pJFGj4-_oHTbB4DjswW-83" value="&lt;br&gt;Visualise" style="shape=hexagon;perimeter=hexagonPerimeter2;whiteSpace=wrap;html=1;fixedSize=1;rounded=0;labelBackgroundColor=none;strokeColor=#6c8ebf;fillColor=#dae8fc;gradientColor=none;fontSize=15;direction=south;strokeWidth=4;spacing=5;spacingTop=-20;fontStyle=1;verticalAlign=middle;size=11.75;" parent="yJk_V7Hbr1PSN4Hg7ylu-126" vertex="1">
          <mxGeometry x="576" y="60.460000000000036" width="204.23507462686567" height="71.5" as="geometry" />
        </mxCell>
        <mxCell id="3pJFGj4-_oHTbB4DjswW-84" value="&lt;br&gt;Filter" style="shape=hexagon;perimeter=hexagonPerimeter2;whiteSpace=wrap;html=1;fixedSize=1;rounded=0;labelBackgroundColor=none;strokeColor=#6c8ebf;fillColor=#dae8fc;gradientColor=none;fontSize=15;direction=south;strokeWidth=4;spacing=5;spacingTop=-20;fontStyle=1;verticalAlign=middle;size=11.75;" parent="yJk_V7Hbr1PSN4Hg7ylu-126" vertex="1">
          <mxGeometry x="1568" y="60.460000000000036" width="204.23507462686567" height="71.5" as="geometry" />
        </mxCell>
        <mxCell id="3pJFGj4-_oHTbB4DjswW-85" value="&lt;br&gt;Summarize" style="shape=hexagon;perimeter=hexagonPerimeter2;whiteSpace=wrap;html=1;fixedSize=1;rounded=0;labelBackgroundColor=none;strokeColor=#6c8ebf;fillColor=#dae8fc;gradientColor=none;fontSize=15;direction=south;strokeWidth=4;spacing=5;spacingTop=-20;fontStyle=1;verticalAlign=middle;size=11.75;" parent="yJk_V7Hbr1PSN4Hg7ylu-126" vertex="1">
          <mxGeometry x="2064" y="60.460000000000036" width="204.23507462686567" height="71.5" as="geometry" />
        </mxCell>
        <mxCell id="3pJFGj4-_oHTbB4DjswW-86" value="&lt;br&gt;Export" style="shape=hexagon;perimeter=hexagonPerimeter2;whiteSpace=wrap;html=1;fixedSize=1;rounded=0;labelBackgroundColor=none;strokeColor=#6c8ebf;fillColor=#dae8fc;gradientColor=none;fontSize=15;direction=south;strokeWidth=4;spacing=5;spacingTop=-20;fontStyle=1;verticalAlign=middle;size=11.75;" parent="yJk_V7Hbr1PSN4Hg7ylu-126" vertex="1">
          <mxGeometry x="2559.9955223880597" y="60.460000000000036" width="204.23507462686567" height="71.5" as="geometry" />
        </mxCell>
        <mxCell id="3pJFGj4-_oHTbB4DjswW-87" value="&lt;br&gt;Aggregate" style="shape=hexagon;perimeter=hexagonPerimeter2;whiteSpace=wrap;html=1;fixedSize=1;rounded=0;labelBackgroundColor=none;strokeColor=#6c8ebf;fillColor=#dae8fc;gradientColor=none;fontSize=15;direction=south;strokeWidth=4;spacing=5;spacingTop=-20;fontStyle=1;verticalAlign=middle;size=11.75;" parent="yJk_V7Hbr1PSN4Hg7ylu-126" vertex="1">
          <mxGeometry x="1072" y="60.460000000000036" width="204.23507462686567" height="71.5" as="geometry" />
        </mxCell>
        <mxCell id="3pJFGj4-_oHTbB4DjswW-88" value="tydiverse" style="shape=image;html=1;verticalAlign=top;verticalLabelPosition=bottom;labelBackgroundColor=#ffffff;imageAspect=0;aspect=fixed;image=https://cdn4.iconfinder.com/data/icons/logos-and-brands/512/285_R_Project_logo-128.png" parent="yJk_V7Hbr1PSN4Hg7ylu-126" vertex="1">
          <mxGeometry x="2652" y="520" width="67.74626865671642" height="67.74626865671642" as="geometry" />
        </mxCell>
        <mxCell id="3pJFGj4-_oHTbB4DjswW-118" value="" style="shape=image;html=1;verticalAlign=top;verticalLabelPosition=bottom;labelBackgroundColor=#ffffff;imageAspect=0;aspect=fixed;image=https://cdn0.iconfinder.com/data/icons/app-user-interface-5/48/filter-128.png;fontSize=12;fontColor=#000000;align=center;" parent="yJk_V7Hbr1PSN4Hg7ylu-126" vertex="1">
          <mxGeometry x="1636.62" y="168.04000000000005" width="67" height="67" as="geometry" />
        </mxCell>
        <mxCell id="3pJFGj4-_oHTbB4DjswW-119" value="" style="group" parent="yJk_V7Hbr1PSN4Hg7ylu-126" vertex="1" connectable="0">
          <mxGeometry x="638.55" y="338.04" width="79.12999999999988" height="90" as="geometry" />
        </mxCell>
        <mxCell id="3pJFGj4-_oHTbB4DjswW-115" value="" style="verticalLabelPosition=bottom;shadow=0;dashed=0;align=center;html=1;verticalAlign=top;strokeWidth=1;shape=mxgraph.mockup.misc.map;labelBackgroundColor=none;fontSize=12;fontColor=#000000;" parent="3pJFGj4-_oHTbB4DjswW-119" vertex="1">
          <mxGeometry y="23" width="67" height="67" as="geometry" />
        </mxCell>
        <mxCell id="gclnOcu_DNjMdLOXnFwR-23" value="" style="html=1;points=[];align=center;image;fontSize=12;image=img/lib/azure2/general/Location.svg;aspect=fixed;" parent="3pJFGj4-_oHTbB4DjswW-119" vertex="1">
          <mxGeometry x="12.129999999999882" width="67" height="67" as="geometry" />
        </mxCell>
        <mxCell id="3pJFGj4-_oHTbB4DjswW-150" value="" style="aspect=fixed;html=1;points=[];align=center;image;fontSize=12;image=img/lib/azure2/analytics/Log_Analytics_Workspaces.svg;labelBackgroundColor=none;" parent="yJk_V7Hbr1PSN4Hg7ylu-126" vertex="1">
          <mxGeometry x="2132.62" y="258.54" width="67" height="67" as="geometry" />
        </mxCell>
        <mxCell id="3pJFGj4-_oHTbB4DjswW-151" value="" style="aspect=fixed;html=1;points=[];align=center;image;fontSize=12;image=img/lib/azure2/general/Files.svg;" parent="yJk_V7Hbr1PSN4Hg7ylu-126" vertex="1">
          <mxGeometry x="2628.614328358209" y="174.76000000000005" width="67" height="73.28" as="geometry" />
        </mxCell>
        <mxCell id="gclnOcu_DNjMdLOXnFwR-67" style="edgeStyle=orthogonalEdgeStyle;rounded=1;orthogonalLoop=1;jettySize=auto;html=1;startArrow=none;startFill=0;endArrow=none;endFill=0;strokeColor=#4D9AFF;strokeWidth=6;" parent="WIyWlLk6GJQsqaUBKTNV-1" source="gclnOcu_DNjMdLOXnFwR-44" edge="1">
          <mxGeometry relative="1" as="geometry">
            <mxPoint x="410" y="400" as="targetPoint" />
          </mxGeometry>
        </mxCell>
        <mxCell id="gclnOcu_DNjMdLOXnFwR-68" style="edgeStyle=orthogonalEdgeStyle;rounded=1;orthogonalLoop=1;jettySize=auto;html=1;startArrow=none;startFill=0;endArrow=none;endFill=0;strokeColor=#4D9AFF;strokeWidth=6;" parent="WIyWlLk6GJQsqaUBKTNV-1" source="gclnOcu_DNjMdLOXnFwR-42" edge="1">
          <mxGeometry relative="1" as="geometry">
            <mxPoint x="410" y="440" as="targetPoint" />
          </mxGeometry>
        </mxCell>
        <mxCell id="gclnOcu_DNjMdLOXnFwR-69" style="edgeStyle=orthogonalEdgeStyle;rounded=1;orthogonalLoop=1;jettySize=auto;html=1;startArrow=none;startFill=0;endArrow=none;endFill=0;strokeColor=#4D9AFF;strokeWidth=6;" parent="WIyWlLk6GJQsqaUBKTNV-1" source="gclnOcu_DNjMdLOXnFwR-7" edge="1">
          <mxGeometry relative="1" as="geometry">
            <mxPoint x="410" y="540" as="targetPoint" />
          </mxGeometry>
        </mxCell>
        <mxCell id="gclnOcu_DNjMdLOXnFwR-70" style="edgeStyle=orthogonalEdgeStyle;rounded=1;orthogonalLoop=1;jettySize=auto;html=1;startArrow=none;startFill=0;endArrow=none;endFill=0;strokeColor=#4D9AFF;strokeWidth=6;" parent="WIyWlLk6GJQsqaUBKTNV-1" source="gclnOcu_DNjMdLOXnFwR-5" edge="1">
          <mxGeometry relative="1" as="geometry">
            <mxPoint x="410" y="610" as="targetPoint" />
          </mxGeometry>
        </mxCell>
        <mxCell id="gclnOcu_DNjMdLOXnFwR-72" style="edgeStyle=orthogonalEdgeStyle;rounded=1;orthogonalLoop=1;jettySize=auto;html=1;startArrow=none;startFill=0;endArrow=none;endFill=0;strokeColor=#4D9AFF;strokeWidth=6;" parent="WIyWlLk6GJQsqaUBKTNV-1" source="gclnOcu_DNjMdLOXnFwR-49" edge="1">
          <mxGeometry relative="1" as="geometry">
            <mxPoint x="410" y="740" as="targetPoint" />
          </mxGeometry>
        </mxCell>
        <mxCell id="gclnOcu_DNjMdLOXnFwR-73" style="edgeStyle=orthogonalEdgeStyle;rounded=1;orthogonalLoop=1;jettySize=auto;html=1;startArrow=none;startFill=0;endArrow=none;endFill=0;strokeColor=#4D9AFF;strokeWidth=6;" parent="WIyWlLk6GJQsqaUBKTNV-1" source="gclnOcu_DNjMdLOXnFwR-45" edge="1">
          <mxGeometry relative="1" as="geometry">
            <mxPoint x="410" y="820" as="targetPoint" />
          </mxGeometry>
        </mxCell>
        <mxCell id="aXcIpb9wPaynXJKiq8YG-33" style="edgeStyle=orthogonalEdgeStyle;rounded=1;orthogonalLoop=1;jettySize=auto;html=1;entryX=1;entryY=0.5;entryDx=0;entryDy=0;exitX=0.5;exitY=0;exitDx=0;exitDy=0;" parent="WIyWlLk6GJQsqaUBKTNV-1" edge="1">
          <mxGeometry x="944.8320895522388" y="540.72" as="geometry">
            <Array as="points">
              <mxPoint x="2183.194029850746" y="829.86" />
              <mxPoint x="2183.194029850746" y="829.86" />
            </Array>
            <mxPoint x="2183.194029850746" y="920" as="sourcePoint" />
          </mxGeometry>
        </mxCell>
        <mxCell id="PL2IbDTsPNTnv49MF6vK-0" value="No" style="edgeLabel;html=1;align=center;verticalAlign=middle;resizable=0;points=[];" parent="aXcIpb9wPaynXJKiq8YG-33" vertex="1" connectable="0">
          <mxGeometry x="-0.365" relative="1" as="geometry">
            <mxPoint as="offset" />
          </mxGeometry>
        </mxCell>
        <mxCell id="aXcIpb9wPaynXJKiq8YG-34" style="edgeStyle=orthogonalEdgeStyle;rounded=1;orthogonalLoop=1;jettySize=auto;html=1;entryX=0.5;entryY=0;entryDx=0;entryDy=0;" parent="WIyWlLk6GJQsqaUBKTNV-1" edge="1">
          <mxGeometry x="944.8320895522388" y="540.72" as="geometry">
            <mxPoint x="1949.0708955223881" y="954.8600000000001" as="targetPoint" />
          </mxGeometry>
        </mxCell>
        <mxCell id="aXcIpb9wPaynXJKiq8YG-35" value="Yes" style="edgeLabel;html=1;align=center;verticalAlign=middle;resizable=0;points=[];" parent="aXcIpb9wPaynXJKiq8YG-34" vertex="1" connectable="0">
          <mxGeometry x="-0.2376" y="-1" relative="1" as="geometry">
            <mxPoint as="offset" />
          </mxGeometry>
        </mxCell>
        <mxCell id="awDAAARCZt9qaH9nBusd-22" value="Fitness" style="swimlane;fontSize=16;fillColor=#f8cecc;strokeColor=#b85450;" parent="WIyWlLk6GJQsqaUBKTNV-1" vertex="1">
          <mxGeometry x="1780" width="1300" height="1160" as="geometry">
            <mxRectangle x="2180" width="110" height="23" as="alternateBounds" />
          </mxGeometry>
        </mxCell>
        <mxCell id="Y2ZBj6na6wr-5ao4Nka5-39" style="edgeStyle=orthogonalEdgeStyle;orthogonalLoop=1;jettySize=auto;html=1;entryX=0;entryY=0.5;entryDx=0;entryDy=0;startFill=0;endArrow=openThin;endFill=0;strokeColor=#4D9AFF;strokeWidth=6;fillColor=#7EA6E0;fontSize=12;" parent="awDAAARCZt9qaH9nBusd-22" source="Y7cJZKocZSNqlVmRAGfy-66" target="Y2ZBj6na6wr-5ao4Nka5-15" edge="1">
          <mxGeometry relative="1" as="geometry">
            <Array as="points">
              <mxPoint x="990" y="527" />
              <mxPoint x="990" y="573" />
            </Array>
          </mxGeometry>
        </mxCell>
        <mxCell id="Y2ZBj6na6wr-5ao4Nka5-36" style="edgeStyle=orthogonalEdgeStyle;jumpStyle=none;orthogonalLoop=1;jettySize=auto;html=1;entryX=0;entryY=0.5;entryDx=0;entryDy=0;startFill=0;endArrow=openThin;endFill=0;strokeColor=#4D9AFF;strokeWidth=6;fillColor=#7EA6E0;fontSize=12;" parent="awDAAARCZt9qaH9nBusd-22" source="Y7cJZKocZSNqlVmRAGfy-68" target="Y2ZBj6na6wr-5ao4Nka5-6" edge="1">
          <mxGeometry relative="1" as="geometry">
            <Array as="points">
              <mxPoint x="630" y="631" />
              <mxPoint x="630" y="602" />
            </Array>
          </mxGeometry>
        </mxCell>
        <mxCell id="Y2ZBj6na6wr-5ao4Nka5-38" style="edgeStyle=orthogonalEdgeStyle;orthogonalLoop=1;jettySize=auto;html=1;entryX=0;entryY=0.5;entryDx=0;entryDy=0;startFill=0;endArrow=openThin;endFill=0;strokeColor=#4D9AFF;strokeWidth=6;fillColor=#7EA6E0;fontSize=12;" parent="awDAAARCZt9qaH9nBusd-22" source="Y7cJZKocZSNqlVmRAGfy-68" target="Y7cJZKocZSNqlVmRAGfy-66" edge="1">
          <mxGeometry relative="1" as="geometry">
            <Array as="points">
              <mxPoint x="630" y="631" />
              <mxPoint x="630" y="528" />
            </Array>
          </mxGeometry>
        </mxCell>
        <mxCell id="Y7cJZKocZSNqlVmRAGfy-38" style="edgeStyle=orthogonalEdgeStyle;orthogonalLoop=1;jettySize=auto;html=1;startFill=0;endArrow=openThin;endFill=0;strokeColor=#4D9AFF;strokeWidth=6;fillColor=#7EA6E0;exitX=0.5;exitY=1;exitDx=0;exitDy=0;entryX=0.5;entryY=0;entryDx=0;entryDy=0;" parent="awDAAARCZt9qaH9nBusd-22" source="Y7cJZKocZSNqlVmRAGfy-24" target="Y7cJZKocZSNqlVmRAGfy-25" edge="1">
          <mxGeometry relative="1" as="geometry">
            <mxPoint x="500.0034883720932" y="275.51116279069777" as="sourcePoint" />
            <mxPoint x="530" y="295" as="targetPoint" />
            <Array as="points" />
          </mxGeometry>
        </mxCell>
        <mxCell id="Y7cJZKocZSNqlVmRAGfy-39" value="AND" style="edgeLabel;html=1;align=center;verticalAlign=middle;resizable=0;points=[];" parent="Y7cJZKocZSNqlVmRAGfy-38" vertex="1" connectable="0">
          <mxGeometry x="0.2877" y="6" relative="1" as="geometry">
            <mxPoint x="-7.27" y="-29.15" as="offset" />
          </mxGeometry>
        </mxCell>
        <mxCell id="l_WFNnPwY0MCgCIW6E0b-20" style="edgeStyle=orthogonalEdgeStyle;rounded=1;jumpStyle=none;orthogonalLoop=1;jettySize=auto;html=1;strokeColor=#85BEFF;strokeWidth=6;fillColor=#7EA6E0;endFill=0;endArrow=openThin;startFill=0;exitX=0.5;exitY=0;exitDx=0;exitDy=0;entryX=0;entryY=0.5;entryDx=0;entryDy=0;fontSize=12;" parent="awDAAARCZt9qaH9nBusd-22" source="Y7cJZKocZSNqlVmRAGfy-67" target="Y2ZBj6na6wr-5ao4Nka5-6" edge="1">
          <mxGeometry x="115" y="848.8399999999999" as="geometry">
            <mxPoint x="538" y="505.0833333333335" as="sourcePoint" />
            <mxPoint x="695" y="507.22" as="targetPoint" />
            <Array as="points">
              <mxPoint x="650" y="507" />
              <mxPoint x="650" y="602" />
            </Array>
          </mxGeometry>
        </mxCell>
        <mxCell id="Y7cJZKocZSNqlVmRAGfy-14" value="&lt;div style=&quot;color: rgb(0 , 0 , 0) ; font-family: &amp;#34;helvetica&amp;#34; ; font-style: normal ; letter-spacing: normal ; text-align: center ; text-indent: 0px ; text-transform: none ; word-spacing: 0px ; background-color: rgb(248 , 249 , 250)&quot;&gt;&lt;span style=&quot;font-size: 20px&quot;&gt;&lt;b&gt;Fitness for&lt;/b&gt;&lt;/span&gt;&lt;/div&gt;&lt;div style=&quot;color: rgb(0 , 0 , 0) ; font-family: &amp;#34;helvetica&amp;#34; ; font-style: normal ; letter-spacing: normal ; text-align: center ; text-indent: 0px ; text-transform: none ; word-spacing: 0px ; background-color: rgb(248 , 249 , 250)&quot;&gt;&lt;span style=&quot;font-size: 20px&quot;&gt;&lt;b&gt;&amp;nbsp;purpose&lt;/b&gt;&lt;/span&gt;&lt;/div&gt;" style="text;whiteSpace=wrap;html=1;fontSize=16;" parent="awDAAARCZt9qaH9nBusd-22" vertex="1">
          <mxGeometry x="160" y="30" width="120" height="60" as="geometry" />
        </mxCell>
        <mxCell id="Y7cJZKocZSNqlVmRAGfy-36" style="edgeStyle=orthogonalEdgeStyle;orthogonalLoop=1;jettySize=auto;html=1;startFill=0;endArrow=openThin;endFill=0;strokeColor=#4D9AFF;strokeWidth=6;fillColor=#7EA6E0;exitX=0.5;exitY=0.988;exitDx=0;exitDy=0;exitPerimeter=0;" parent="awDAAARCZt9qaH9nBusd-22" source="Y7cJZKocZSNqlVmRAGfy-19" target="Y7cJZKocZSNqlVmRAGfy-24" edge="1">
          <mxGeometry relative="1" as="geometry">
            <Array as="points">
              <mxPoint x="190" y="276" />
              <mxPoint x="190" y="276" />
            </Array>
          </mxGeometry>
        </mxCell>
        <mxCell id="Y7cJZKocZSNqlVmRAGfy-37" value="AND" style="edgeLabel;html=1;align=center;verticalAlign=middle;resizable=0;points=[];" parent="Y7cJZKocZSNqlVmRAGfy-36" vertex="1" connectable="0">
          <mxGeometry x="0.2877" y="6" relative="1" as="geometry">
            <mxPoint x="-7.27" y="1.8499999999999996" as="offset" />
          </mxGeometry>
        </mxCell>
        <mxCell id="Y7cJZKocZSNqlVmRAGfy-19" value="&lt;div&gt;&lt;br&gt;&lt;/div&gt;&lt;div&gt;enough&lt;/div&gt;&lt;div&gt;amount?&lt;/div&gt;" style="rhombus;whiteSpace=wrap;html=1;fontSize=15;rounded=0;fontStyle=1;strokeColor=#6c8ebf;strokeWidth=4;fillColor=#dae8fc;spacing=5;spacingTop=-20;" parent="awDAAARCZt9qaH9nBusd-22" vertex="1">
          <mxGeometry x="100" y="225" width="180" height="101.25" as="geometry" />
        </mxCell>
        <mxCell id="Y7cJZKocZSNqlVmRAGfy-70" style="edgeStyle=orthogonalEdgeStyle;orthogonalLoop=1;jettySize=auto;html=1;entryX=0.5;entryY=1;entryDx=0;entryDy=0;startFill=0;endArrow=openThin;endFill=0;strokeColor=#4D9AFF;strokeWidth=6;fillColor=#7EA6E0;" parent="awDAAARCZt9qaH9nBusd-22" source="Y7cJZKocZSNqlVmRAGfy-24" target="Y7cJZKocZSNqlVmRAGfy-65" edge="1">
          <mxGeometry relative="1" as="geometry">
            <Array as="points">
              <mxPoint x="310" y="507" />
              <mxPoint x="310" y="383" />
            </Array>
          </mxGeometry>
        </mxCell>
        <mxCell id="Y7cJZKocZSNqlVmRAGfy-71" style="edgeStyle=orthogonalEdgeStyle;orthogonalLoop=1;jettySize=auto;html=1;entryX=0.5;entryY=1;entryDx=0;entryDy=0;startFill=0;endArrow=openThin;endFill=0;strokeColor=#4D9AFF;strokeWidth=6;fillColor=#7EA6E0;" parent="awDAAARCZt9qaH9nBusd-22" source="Y7cJZKocZSNqlVmRAGfy-24" target="Y7cJZKocZSNqlVmRAGfy-67" edge="1">
          <mxGeometry relative="1" as="geometry" />
        </mxCell>
        <mxCell id="Y7cJZKocZSNqlVmRAGfy-72" style="edgeStyle=orthogonalEdgeStyle;orthogonalLoop=1;jettySize=auto;html=1;entryX=0.5;entryY=1;entryDx=0;entryDy=0;startFill=0;endArrow=openThin;endFill=0;strokeColor=#4D9AFF;strokeWidth=6;fillColor=#7EA6E0;" parent="awDAAARCZt9qaH9nBusd-22" source="Y7cJZKocZSNqlVmRAGfy-24" target="Y7cJZKocZSNqlVmRAGfy-68" edge="1">
          <mxGeometry relative="1" as="geometry">
            <Array as="points">
              <mxPoint x="310" y="507" />
              <mxPoint x="310" y="631" />
            </Array>
          </mxGeometry>
        </mxCell>
        <mxCell id="Y7cJZKocZSNqlVmRAGfy-24" value="&lt;div&gt;&lt;br&gt;&lt;/div&gt;&lt;div&gt;enough&lt;/div&gt;&lt;div&gt;continuity?&lt;/div&gt;" style="rhombus;whiteSpace=wrap;html=1;fontSize=15;rounded=0;fontStyle=1;strokeColor=#6c8ebf;strokeWidth=4;fillColor=#dae8fc;spacing=5;spacingTop=-20;" parent="awDAAARCZt9qaH9nBusd-22" vertex="1">
          <mxGeometry x="100" y="456.6" width="180" height="101.25" as="geometry" />
        </mxCell>
        <mxCell id="Y7cJZKocZSNqlVmRAGfy-63" style="edgeStyle=orthogonalEdgeStyle;orthogonalLoop=1;jettySize=auto;html=1;entryX=0.5;entryY=1;entryDx=0;entryDy=0;startFill=0;endArrow=openThin;endFill=0;strokeColor=#4D9AFF;strokeWidth=6;fillColor=#7EA6E0;" parent="awDAAARCZt9qaH9nBusd-22" source="Y7cJZKocZSNqlVmRAGfy-25" target="Y7cJZKocZSNqlVmRAGfy-62" edge="1">
          <mxGeometry relative="1" as="geometry">
            <Array as="points">
              <mxPoint x="310" y="773" />
              <mxPoint x="310" y="918" />
            </Array>
          </mxGeometry>
        </mxCell>
        <mxCell id="Y7cJZKocZSNqlVmRAGfy-64" style="edgeStyle=orthogonalEdgeStyle;orthogonalLoop=1;jettySize=auto;html=1;entryX=0.5;entryY=1;entryDx=0;entryDy=0;startFill=0;endArrow=openThin;endFill=0;strokeColor=#4D9AFF;strokeWidth=6;fillColor=#7EA6E0;" parent="awDAAARCZt9qaH9nBusd-22" source="Y7cJZKocZSNqlVmRAGfy-25" target="Y7cJZKocZSNqlVmRAGfy-60" edge="1">
          <mxGeometry relative="1" as="geometry">
            <Array as="points">
              <mxPoint x="310" y="773" />
              <mxPoint x="310" y="1048" />
            </Array>
          </mxGeometry>
        </mxCell>
        <mxCell id="Y7cJZKocZSNqlVmRAGfy-25" value="&lt;div&gt;&lt;br&gt;&lt;/div&gt;&lt;div&gt;enough&lt;/div&gt;&lt;div&gt;quality?&lt;/div&gt;" style="rhombus;whiteSpace=wrap;html=1;fontSize=15;rounded=0;fontStyle=1;strokeColor=#6c8ebf;strokeWidth=4;fillColor=#dae8fc;spacing=5;spacingTop=-20;" parent="awDAAARCZt9qaH9nBusd-22" vertex="1">
          <mxGeometry x="100" y="722.55" width="180" height="101.25" as="geometry" />
        </mxCell>
        <mxCell id="Y7cJZKocZSNqlVmRAGfy-35" style="edgeStyle=orthogonalEdgeStyle;orthogonalLoop=1;jettySize=auto;html=1;startFill=0;endArrow=openThin;endFill=0;strokeColor=#4D9AFF;strokeWidth=6;fillColor=#7EA6E0;exitX=0.5;exitY=1;exitDx=0;exitDy=0;" parent="awDAAARCZt9qaH9nBusd-22" source="Y7cJZKocZSNqlVmRAGfy-33" target="Y7cJZKocZSNqlVmRAGfy-19" edge="1">
          <mxGeometry relative="1" as="geometry">
            <mxPoint x="490" y="45" as="sourcePoint" />
            <Array as="points">
              <mxPoint x="386" y="190" />
              <mxPoint x="190" y="190" />
            </Array>
          </mxGeometry>
        </mxCell>
        <mxCell id="Y7cJZKocZSNqlVmRAGfy-33" value="&lt;div&gt;&lt;br&gt;&lt;/div&gt;&lt;div&gt;Has your data&lt;/div&gt;" style="rhombus;whiteSpace=wrap;html=1;fontSize=15;rounded=0;fontStyle=1;strokeColor=#6c8ebf;strokeWidth=4;fillColor=#dae8fc;spacing=5;spacingTop=-20;" parent="awDAAARCZt9qaH9nBusd-22" vertex="1">
          <mxGeometry x="296" y="49.370000000000005" width="180" height="101.25" as="geometry" />
        </mxCell>
        <mxCell id="Y7cJZKocZSNqlVmRAGfy-44" value="sampBias" style="shape=image;html=1;verticalAlign=top;verticalLabelPosition=bottom;labelBackgroundColor=#ffffff;imageAspect=0;aspect=fixed;image=https://cdn4.iconfinder.com/data/icons/logos-and-brands/512/285_R_Project_logo-128.png" parent="awDAAARCZt9qaH9nBusd-22" vertex="1">
          <mxGeometry x="1026.2489552238803" y="709" width="67.74626865671642" height="67.74626865671642" as="geometry" />
        </mxCell>
        <mxCell id="Y2ZBj6na6wr-5ao4Nka5-3" style="edgeStyle=orthogonalEdgeStyle;rounded=1;orthogonalLoop=1;jettySize=auto;html=1;fontSize=11;strokeColor=#4D9AFF;strokeWidth=6;fillColor=#7EA6E0;endFill=0;endArrow=openThin;startFill=0;" parent="awDAAARCZt9qaH9nBusd-22" source="Y7cJZKocZSNqlVmRAGfy-58" target="Y2ZBj6na6wr-5ao4Nka5-2" edge="1">
          <mxGeometry relative="1" as="geometry" />
        </mxCell>
        <mxCell id="Y7cJZKocZSNqlVmRAGfy-58" value="&lt;br&gt;define the minimum sampling unit" style="shape=hexagon;perimeter=hexagonPerimeter2;whiteSpace=wrap;html=1;fixedSize=1;rounded=0;labelBackgroundColor=none;strokeColor=#6c8ebf;fillColor=#dae8fc;gradientColor=none;fontSize=15;direction=south;strokeWidth=4;spacing=5;spacingTop=-20;fontStyle=1;verticalAlign=middle;size=20.000000000000227;" parent="awDAAARCZt9qaH9nBusd-22" vertex="1">
          <mxGeometry x="377.26223880597" y="239.87" width="204.23507462686567" height="71.5" as="geometry" />
        </mxCell>
        <mxCell id="Y7cJZKocZSNqlVmRAGfy-52" value="" style="edgeStyle=orthogonalEdgeStyle;orthogonalLoop=1;jettySize=auto;html=1;startFill=0;endArrow=openThin;endFill=0;strokeColor=#4D9AFF;strokeWidth=6;fillColor=#7EA6E0;entryX=0.5;entryY=1;entryDx=0;entryDy=0;" parent="awDAAARCZt9qaH9nBusd-22" source="Y7cJZKocZSNqlVmRAGfy-19" target="Y7cJZKocZSNqlVmRAGfy-58" edge="1">
          <mxGeometry relative="1" as="geometry">
            <mxPoint x="409.98897058823513" y="275.6470588235295" as="targetPoint" />
          </mxGeometry>
        </mxCell>
        <mxCell id="Y2ZBj6na6wr-5ao4Nka5-48" style="edgeStyle=orthogonalEdgeStyle;jumpStyle=arc;orthogonalLoop=1;jettySize=auto;html=1;startFill=0;endArrow=openThin;endFill=0;strokeColor=#4D9AFF;strokeWidth=6;fillColor=#7EA6E0;fontSize=12;" parent="awDAAARCZt9qaH9nBusd-22" source="Y7cJZKocZSNqlVmRAGfy-59" target="Y2ZBj6na6wr-5ao4Nka5-9" edge="1">
          <mxGeometry relative="1" as="geometry">
            <Array as="points">
              <mxPoint x="610" y="774" />
              <mxPoint x="610" y="774" />
            </Array>
          </mxGeometry>
        </mxCell>
        <mxCell id="Y7cJZKocZSNqlVmRAGfy-59" value="&lt;br&gt;spatial precision" style="shape=hexagon;perimeter=hexagonPerimeter2;whiteSpace=wrap;html=1;fixedSize=1;rounded=0;labelBackgroundColor=none;strokeColor=#6c8ebf;fillColor=#dae8fc;gradientColor=none;fontSize=15;direction=south;strokeWidth=4;spacing=5;spacingTop=-20;fontStyle=1;verticalAlign=middle;size=20.000000000000227;" parent="awDAAARCZt9qaH9nBusd-22" vertex="1">
          <mxGeometry x="377.2622388059701" y="737.43" width="204.23507462686567" height="71.5" as="geometry" />
        </mxCell>
        <mxCell id="Y7cJZKocZSNqlVmRAGfy-56" value="" style="edgeStyle=orthogonalEdgeStyle;orthogonalLoop=1;jettySize=auto;html=1;startFill=0;endArrow=openThin;endFill=0;strokeColor=#4D9AFF;strokeWidth=6;fillColor=#7EA6E0;entryX=0.5;entryY=1;entryDx=0;entryDy=0;" parent="awDAAARCZt9qaH9nBusd-22" source="Y7cJZKocZSNqlVmRAGfy-25" target="Y7cJZKocZSNqlVmRAGfy-59" edge="1">
          <mxGeometry relative="1" as="geometry">
            <mxPoint x="370" y="840" as="targetPoint" />
            <Array as="points">
              <mxPoint x="349" y="773" />
              <mxPoint x="417" y="773" />
            </Array>
          </mxGeometry>
        </mxCell>
        <mxCell id="Y2ZBj6na6wr-5ao4Nka5-51" style="edgeStyle=orthogonalEdgeStyle;jumpStyle=arc;orthogonalLoop=1;jettySize=auto;html=1;entryX=0;entryY=0.5;entryDx=0;entryDy=0;startFill=0;endArrow=openThin;endFill=0;strokeColor=#4D9AFF;strokeWidth=6;fillColor=#7EA6E0;fontSize=12;" parent="awDAAARCZt9qaH9nBusd-22" source="Y7cJZKocZSNqlVmRAGfy-60" target="Y2ZBj6na6wr-5ao4Nka5-18" edge="1">
          <mxGeometry relative="1" as="geometry" />
        </mxCell>
        <mxCell id="Y2ZBj6na6wr-5ao4Nka5-52" style="edgeStyle=orthogonalEdgeStyle;jumpStyle=arc;orthogonalLoop=1;jettySize=auto;html=1;startFill=0;endArrow=openThin;endFill=0;strokeColor=#4D9AFF;strokeWidth=6;fillColor=#7EA6E0;fontSize=12;" parent="awDAAARCZt9qaH9nBusd-22" source="Y7cJZKocZSNqlVmRAGfy-60" target="Y2ZBj6na6wr-5ao4Nka5-19" edge="1">
          <mxGeometry relative="1" as="geometry">
            <Array as="points">
              <mxPoint x="680" y="1048" />
              <mxPoint x="680" y="991" />
            </Array>
          </mxGeometry>
        </mxCell>
        <mxCell id="Y2ZBj6na6wr-5ao4Nka5-53" style="edgeStyle=orthogonalEdgeStyle;jumpStyle=arc;orthogonalLoop=1;jettySize=auto;html=1;entryX=0;entryY=0.5;entryDx=0;entryDy=0;startFill=0;endArrow=openThin;endFill=0;strokeColor=#4D9AFF;strokeWidth=6;fillColor=#7EA6E0;fontSize=12;" parent="awDAAARCZt9qaH9nBusd-22" source="Y7cJZKocZSNqlVmRAGfy-60" target="Y2ZBj6na6wr-5ao4Nka5-17" edge="1">
          <mxGeometry relative="1" as="geometry" />
        </mxCell>
        <mxCell id="Y7cJZKocZSNqlVmRAGfy-60" value="&lt;br&gt;sampling behaviour/reportability" style="shape=hexagon;perimeter=hexagonPerimeter2;whiteSpace=wrap;html=1;fixedSize=1;rounded=0;labelBackgroundColor=none;strokeColor=#6c8ebf;fillColor=#dae8fc;gradientColor=none;fontSize=15;direction=south;strokeWidth=4;spacing=5;spacingTop=-20;fontStyle=1;verticalAlign=middle;size=20.000000000000227;" parent="awDAAARCZt9qaH9nBusd-22" vertex="1">
          <mxGeometry x="377.2622388059701" y="1012.55" width="204.23507462686567" height="71.5" as="geometry" />
        </mxCell>
        <mxCell id="Y2ZBj6na6wr-5ao4Nka5-49" style="edgeStyle=orthogonalEdgeStyle;jumpStyle=arc;orthogonalLoop=1;jettySize=auto;html=1;entryX=0;entryY=0.5;entryDx=0;entryDy=0;startFill=0;endArrow=openThin;endFill=0;strokeColor=#4D9AFF;strokeWidth=6;fillColor=#7EA6E0;fontSize=12;" parent="awDAAARCZt9qaH9nBusd-22" source="Y7cJZKocZSNqlVmRAGfy-62" target="Y2ZBj6na6wr-5ao4Nka5-8" edge="1">
          <mxGeometry relative="1" as="geometry" />
        </mxCell>
        <mxCell id="Y2ZBj6na6wr-5ao4Nka5-50" style="edgeStyle=orthogonalEdgeStyle;jumpStyle=arc;orthogonalLoop=1;jettySize=auto;html=1;entryX=0;entryY=0.5;entryDx=0;entryDy=0;startFill=0;endArrow=openThin;endFill=0;strokeColor=#4D9AFF;strokeWidth=6;fillColor=#7EA6E0;fontSize=12;" parent="awDAAARCZt9qaH9nBusd-22" source="Y7cJZKocZSNqlVmRAGfy-62" target="Y2ZBj6na6wr-5ao4Nka5-18" edge="1">
          <mxGeometry relative="1" as="geometry" />
        </mxCell>
        <mxCell id="Y7cJZKocZSNqlVmRAGfy-62" value="&lt;br&gt;sampling effort" style="shape=hexagon;perimeter=hexagonPerimeter2;whiteSpace=wrap;html=1;fixedSize=1;rounded=0;labelBackgroundColor=none;strokeColor=#6c8ebf;fillColor=#dae8fc;gradientColor=none;fontSize=15;direction=south;strokeWidth=4;spacing=5;spacingTop=-20;fontStyle=1;verticalAlign=middle;size=20.000000000000227;" parent="awDAAARCZt9qaH9nBusd-22" vertex="1">
          <mxGeometry x="377.2622388059701" y="882.3" width="204.23507462686567" height="71.5" as="geometry" />
        </mxCell>
        <mxCell id="Y2ZBj6na6wr-5ao4Nka5-31" style="edgeStyle=orthogonalEdgeStyle;jumpStyle=arc;orthogonalLoop=1;jettySize=auto;html=1;startFill=0;endArrow=openThin;endFill=0;strokeColor=#4D9AFF;strokeWidth=6;fillColor=#7EA6E0;fontSize=12;" parent="awDAAARCZt9qaH9nBusd-22" source="Y7cJZKocZSNqlVmRAGfy-65" target="Y2ZBj6na6wr-5ao4Nka5-7" edge="1">
          <mxGeometry relative="1" as="geometry">
            <Array as="points">
              <mxPoint x="670" y="383" />
              <mxPoint x="670" y="404" />
            </Array>
          </mxGeometry>
        </mxCell>
        <mxCell id="Y2ZBj6na6wr-5ao4Nka5-32" style="edgeStyle=orthogonalEdgeStyle;jumpStyle=arc;orthogonalLoop=1;jettySize=auto;html=1;entryX=0;entryY=0.5;entryDx=0;entryDy=0;startFill=0;endArrow=openThin;endFill=0;strokeColor=#4D9AFF;strokeWidth=6;fillColor=#7EA6E0;fontSize=12;" parent="awDAAARCZt9qaH9nBusd-22" source="Y7cJZKocZSNqlVmRAGfy-65" target="Y7cJZKocZSNqlVmRAGfy-66" edge="1">
          <mxGeometry relative="1" as="geometry">
            <Array as="points">
              <mxPoint x="670" y="383" />
              <mxPoint x="670" y="528" />
            </Array>
          </mxGeometry>
        </mxCell>
        <mxCell id="Y2ZBj6na6wr-5ao4Nka5-34" style="edgeStyle=orthogonalEdgeStyle;jumpStyle=arc;orthogonalLoop=1;jettySize=auto;html=1;entryX=0;entryY=0.5;entryDx=0;entryDy=0;startFill=0;endArrow=openThin;endFill=0;strokeColor=#4D9AFF;strokeWidth=6;fillColor=#7EA6E0;fontSize=12;" parent="awDAAARCZt9qaH9nBusd-22" source="Y7cJZKocZSNqlVmRAGfy-65" target="Y2ZBj6na6wr-5ao4Nka5-5" edge="1">
          <mxGeometry relative="1" as="geometry">
            <Array as="points">
              <mxPoint x="670" y="383" />
              <mxPoint x="670" y="466" />
            </Array>
          </mxGeometry>
        </mxCell>
        <mxCell id="Y7cJZKocZSNqlVmRAGfy-65" value="&lt;br&gt;taxonomic completeness" style="shape=hexagon;perimeter=hexagonPerimeter2;whiteSpace=wrap;html=1;fixedSize=1;rounded=0;labelBackgroundColor=none;strokeColor=#6c8ebf;fillColor=#dae8fc;gradientColor=none;fontSize=15;direction=south;strokeWidth=4;spacing=5;spacingTop=-20;fontStyle=1;verticalAlign=middle;size=20.000000000000227;" parent="awDAAARCZt9qaH9nBusd-22" vertex="1">
          <mxGeometry x="380.0022388059697" y="346.75" width="204.23507462686567" height="71.5" as="geometry" />
        </mxCell>
        <mxCell id="Y7cJZKocZSNqlVmRAGfy-66" value="&lt;div&gt;&lt;br&gt;&lt;/div&gt;&lt;div&gt;&lt;span&gt;hot- or coldspots?&lt;/span&gt;&lt;br&gt;&lt;/div&gt;" style="rhombus;whiteSpace=wrap;html=1;fontSize=15;rounded=0;fontStyle=1;strokeColor=#6c8ebf;strokeWidth=4;fillColor=#dae8fc;spacing=5;spacingTop=-20;" parent="awDAAARCZt9qaH9nBusd-22" vertex="1">
          <mxGeometry x="780" y="480" width="125" height="95" as="geometry" />
        </mxCell>
        <mxCell id="Y7cJZKocZSNqlVmRAGfy-67" value="&lt;br&gt;temporal bias" style="shape=hexagon;perimeter=hexagonPerimeter2;whiteSpace=wrap;html=1;fixedSize=1;rounded=0;labelBackgroundColor=none;strokeColor=#6c8ebf;fillColor=#dae8fc;gradientColor=none;fontSize=15;direction=south;strokeWidth=4;spacing=5;spacingTop=-20;fontStyle=1;verticalAlign=middle;size=20.000000000000227;" parent="awDAAARCZt9qaH9nBusd-22" vertex="1">
          <mxGeometry x="377.2622388059699" y="471.47" width="204.23507462686567" height="71.5" as="geometry" />
        </mxCell>
        <mxCell id="Y2ZBj6na6wr-5ao4Nka5-37" style="edgeStyle=orthogonalEdgeStyle;orthogonalLoop=1;jettySize=auto;html=1;entryX=0;entryY=0.5;entryDx=0;entryDy=0;startFill=0;endArrow=openThin;endFill=0;strokeColor=#4D9AFF;strokeWidth=6;fillColor=#7EA6E0;fontSize=12;" parent="awDAAARCZt9qaH9nBusd-22" source="Y7cJZKocZSNqlVmRAGfy-68" target="Y2ZBj6na6wr-5ao4Nka5-10" edge="1">
          <mxGeometry relative="1" as="geometry">
            <Array as="points">
              <mxPoint x="630" y="631" />
              <mxPoint x="630" y="668" />
            </Array>
          </mxGeometry>
        </mxCell>
        <mxCell id="Y7cJZKocZSNqlVmRAGfy-68" value="&lt;br&gt;spatial bias" style="shape=hexagon;perimeter=hexagonPerimeter2;whiteSpace=wrap;html=1;fixedSize=1;rounded=0;labelBackgroundColor=none;strokeColor=#6c8ebf;fillColor=#dae8fc;gradientColor=none;fontSize=15;direction=south;strokeWidth=4;spacing=5;spacingTop=-20;fontStyle=1;verticalAlign=middle;size=20.000000000000227;" parent="awDAAARCZt9qaH9nBusd-22" vertex="1">
          <mxGeometry x="377.2622388059699" y="595" width="204.23507462686567" height="71.5" as="geometry" />
        </mxCell>
        <mxCell id="Y7cJZKocZSNqlVmRAGfy-73" value="recorderMetrics" style="shape=image;html=1;verticalAlign=top;verticalLabelPosition=bottom;labelBackgroundColor=#ffffff;imageAspect=0;aspect=fixed;image=https://cdn4.iconfinder.com/data/icons/logos-and-brands/512/285_R_Project_logo-128.png" parent="awDAAARCZt9qaH9nBusd-22" vertex="1">
          <mxGeometry x="1026.2489552238803" y="1057.3799999999997" width="67.74626865671642" height="67.74626865671642" as="geometry" />
        </mxCell>
        <mxCell id="Y2ZBj6na6wr-5ao4Nka5-21" style="edgeStyle=orthogonalEdgeStyle;jumpStyle=arc;orthogonalLoop=1;jettySize=auto;html=1;entryX=0;entryY=0.5;entryDx=0;entryDy=0;startFill=0;endArrow=openThin;endFill=0;strokeColor=#4D9AFF;strokeWidth=6;fillColor=#7EA6E0;fontSize=12;" parent="awDAAARCZt9qaH9nBusd-22" source="Y7cJZKocZSNqlVmRAGfy-79" target="Y7cJZKocZSNqlVmRAGfy-33" edge="1">
          <mxGeometry relative="1" as="geometry" />
        </mxCell>
        <mxCell id="Y2ZBj6na6wr-5ao4Nka5-22" style="edgeStyle=orthogonalEdgeStyle;jumpStyle=arc;orthogonalLoop=1;jettySize=auto;html=1;entryX=0.5;entryY=1;entryDx=0;entryDy=0;startFill=0;endArrow=openThin;endFill=0;strokeColor=#4D9AFF;strokeWidth=6;fillColor=#7EA6E0;fontSize=12;exitX=1;exitY=0.5;exitDx=0;exitDy=0;" parent="awDAAARCZt9qaH9nBusd-22" source="Y7cJZKocZSNqlVmRAGfy-33" target="Y2ZBj6na6wr-5ao4Nka5-23" edge="1">
          <mxGeometry relative="1" as="geometry">
            <Array as="points">
              <mxPoint x="490" y="100" />
              <mxPoint x="490" y="100" />
            </Array>
          </mxGeometry>
        </mxCell>
        <mxCell id="Y7cJZKocZSNqlVmRAGfy-79" value="" style="shape=image;html=1;verticalAlign=top;verticalLabelPosition=bottom;labelBackgroundColor=#ffffff;imageAspect=0;aspect=fixed;image=https://cdn2.iconfinder.com/data/icons/circle-icons-1/64/speedometer-128.png;fontFamily=Helvetica;fontSize=12;fontColor=#000000;align=center;strokeColor=#000000;strokeWidth=4;fillColor=#ffffff;" parent="awDAAARCZt9qaH9nBusd-22" vertex="1">
          <mxGeometry x="30" y="44.99" width="110" height="110" as="geometry" />
        </mxCell>
        <mxCell id="Y2ZBj6na6wr-5ao4Nka5-2" value="It is very difficult to generalise &lt;br&gt;a minimum number &lt;br&gt;of observations&amp;nbsp;but it should &lt;br&gt;back up your statistics at the &lt;br&gt;minimum sampling unit" style="text;html=1;align=center;verticalAlign=middle;resizable=0;points=[];autosize=1;fontSize=16;fillColor=#dae8fc;strokeColor=#6c8ebf;" parent="awDAAARCZt9qaH9nBusd-22" vertex="1">
          <mxGeometry x="650" y="225.63" width="230" height="100" as="geometry" />
        </mxCell>
        <mxCell id="Y2ZBj6na6wr-5ao4Nka5-6" value="&lt;div&gt;&lt;br&gt;&lt;/div&gt;&lt;div&gt;ignorance&lt;/div&gt;" style="rhombus;whiteSpace=wrap;html=1;fontSize=15;rounded=0;fontStyle=1;strokeColor=#6c8ebf;strokeWidth=4;fillColor=#dae8fc;spacing=5;spacingTop=-20;" parent="awDAAARCZt9qaH9nBusd-22" vertex="1">
          <mxGeometry x="710" y="554" width="125" height="95" as="geometry" />
        </mxCell>
        <mxCell id="Y2ZBj6na6wr-5ao4Nka5-45" style="edgeStyle=orthogonalEdgeStyle;orthogonalLoop=1;jettySize=auto;html=1;entryX=0;entryY=0.5;entryDx=0;entryDy=0;startFill=0;endArrow=openThin;endFill=0;strokeColor=#4D9AFF;strokeWidth=6;fillColor=#7EA6E0;fontSize=12;" parent="awDAAARCZt9qaH9nBusd-22" source="Y2ZBj6na6wr-5ao4Nka5-7" target="Y2ZBj6na6wr-5ao4Nka5-28" edge="1">
          <mxGeometry relative="1" as="geometry" />
        </mxCell>
        <mxCell id="Y2ZBj6na6wr-5ao4Nka5-7" value="&lt;div&gt;&lt;br&gt;&lt;/div&gt;&lt;div&gt;species lists&lt;/div&gt;" style="rhombus;whiteSpace=wrap;html=1;fontSize=15;rounded=0;fontStyle=1;strokeColor=#6c8ebf;strokeWidth=4;fillColor=#dae8fc;spacing=5;spacingTop=-20;" parent="awDAAARCZt9qaH9nBusd-22" vertex="1">
          <mxGeometry x="780" y="356.42" width="125" height="95" as="geometry" />
        </mxCell>
        <mxCell id="Y2ZBj6na6wr-5ao4Nka5-55" style="edgeStyle=orthogonalEdgeStyle;jumpStyle=arc;orthogonalLoop=1;jettySize=auto;html=1;entryX=0;entryY=0.5;entryDx=0;entryDy=0;startFill=0;endArrow=openThin;endFill=0;strokeColor=#4D9AFF;strokeWidth=6;fillColor=#7EA6E0;fontSize=12;" parent="awDAAARCZt9qaH9nBusd-22" source="Y2ZBj6na6wr-5ao4Nka5-8" target="Y2ZBj6na6wr-5ao4Nka5-29" edge="1">
          <mxGeometry relative="1" as="geometry">
            <Array as="points">
              <mxPoint x="960" y="846" />
              <mxPoint x="960" y="918" />
            </Array>
          </mxGeometry>
        </mxCell>
        <mxCell id="Y2ZBj6na6wr-5ao4Nka5-56" style="edgeStyle=orthogonalEdgeStyle;jumpStyle=arc;orthogonalLoop=1;jettySize=auto;html=1;entryX=0;entryY=0.5;entryDx=0;entryDy=0;startFill=0;endArrow=openThin;endFill=0;strokeColor=#85BEFF;strokeWidth=6;fillColor=#7EA6E0;fontSize=12;" parent="awDAAARCZt9qaH9nBusd-22" source="Y2ZBj6na6wr-5ao4Nka5-8" target="Y7cJZKocZSNqlVmRAGfy-73" edge="1">
          <mxGeometry relative="1" as="geometry">
            <Array as="points">
              <mxPoint x="930" y="846" />
              <mxPoint x="930" y="1091" />
            </Array>
          </mxGeometry>
        </mxCell>
        <mxCell id="Y2ZBj6na6wr-5ao4Nka5-8" value="&lt;div&gt;&lt;br&gt;&lt;/div&gt;&lt;div&gt;field visits&lt;/div&gt;&lt;div&gt;/ checklists&lt;/div&gt;" style="rhombus;whiteSpace=wrap;html=1;fontSize=15;rounded=0;fontStyle=1;strokeColor=#6c8ebf;strokeWidth=4;fillColor=#dae8fc;spacing=5;spacingTop=-20;" parent="awDAAARCZt9qaH9nBusd-22" vertex="1">
          <mxGeometry x="710" y="798.13" width="125" height="95" as="geometry" />
        </mxCell>
        <mxCell id="Y2ZBj6na6wr-5ao4Nka5-54" style="edgeStyle=orthogonalEdgeStyle;jumpStyle=arc;orthogonalLoop=1;jettySize=auto;html=1;entryX=0;entryY=0.5;entryDx=0;entryDy=0;startFill=0;endArrow=openThin;endFill=0;strokeColor=#85BEFF;strokeWidth=6;fillColor=#7EA6E0;fontSize=12;" parent="awDAAARCZt9qaH9nBusd-22" source="Y2ZBj6na6wr-5ao4Nka5-9" target="Y2ZBj6na6wr-5ao4Nka5-29" edge="1">
          <mxGeometry relative="1" as="geometry">
            <Array as="points">
              <mxPoint x="960" y="773" />
              <mxPoint x="960" y="917" />
            </Array>
          </mxGeometry>
        </mxCell>
        <mxCell id="Y2ZBj6na6wr-5ao4Nka5-9" value="&lt;div&gt;&lt;br&gt;&lt;/div&gt;&lt;div&gt;observers accuracy&lt;/div&gt;" style="rhombus;whiteSpace=wrap;html=1;fontSize=15;rounded=0;fontStyle=1;strokeColor=#6c8ebf;strokeWidth=4;fillColor=#dae8fc;spacing=5;spacingTop=-20;" parent="awDAAARCZt9qaH9nBusd-22" vertex="1">
          <mxGeometry x="780" y="726" width="125" height="95" as="geometry" />
        </mxCell>
        <mxCell id="Y2ZBj6na6wr-5ao4Nka5-40" style="edgeStyle=orthogonalEdgeStyle;orthogonalLoop=1;jettySize=auto;html=1;entryX=0;entryY=0.5;entryDx=0;entryDy=0;startFill=0;endArrow=openThin;endFill=0;strokeColor=#4D9AFF;strokeWidth=6;fillColor=#7EA6E0;fontSize=12;" parent="awDAAARCZt9qaH9nBusd-22" source="Y2ZBj6na6wr-5ao4Nka5-10" target="Y2ZBj6na6wr-5ao4Nka5-15" edge="1">
          <mxGeometry relative="1" as="geometry">
            <Array as="points">
              <mxPoint x="990" y="667" />
              <mxPoint x="990" y="573" />
            </Array>
          </mxGeometry>
        </mxCell>
        <mxCell id="Y2ZBj6na6wr-5ao4Nka5-42" style="edgeStyle=orthogonalEdgeStyle;orthogonalLoop=1;jettySize=auto;html=1;startFill=0;endArrow=openThin;endFill=0;strokeColor=#4D9AFF;strokeWidth=6;fillColor=#7EA6E0;fontSize=12;" parent="awDAAARCZt9qaH9nBusd-22" source="Y2ZBj6na6wr-5ao4Nka5-10" target="Y7cJZKocZSNqlVmRAGfy-44" edge="1">
          <mxGeometry relative="1" as="geometry">
            <Array as="points">
              <mxPoint x="990" y="667" />
              <mxPoint x="990" y="743" />
            </Array>
          </mxGeometry>
        </mxCell>
        <mxCell id="Y2ZBj6na6wr-5ao4Nka5-47" style="edgeStyle=orthogonalEdgeStyle;jumpStyle=arc;orthogonalLoop=1;jettySize=auto;html=1;entryX=0;entryY=0.5;entryDx=0;entryDy=0;startFill=0;endArrow=openThin;endFill=0;strokeColor=#85BEFF;strokeWidth=6;fillColor=#7EA6E0;fontSize=12;" parent="awDAAARCZt9qaH9nBusd-22" source="Y2ZBj6na6wr-5ao4Nka5-10" target="Y2ZBj6na6wr-5ao4Nka5-29" edge="1">
          <mxGeometry relative="1" as="geometry">
            <Array as="points">
              <mxPoint x="960" y="668" />
              <mxPoint x="960" y="917" />
            </Array>
          </mxGeometry>
        </mxCell>
        <mxCell id="Y2ZBj6na6wr-5ao4Nka5-10" value="&lt;div&gt;&lt;br&gt;&lt;/div&gt;&lt;div&gt;observers consistency&lt;/div&gt;" style="rhombus;whiteSpace=wrap;html=1;fontSize=15;rounded=0;fontStyle=1;strokeColor=#6c8ebf;strokeWidth=4;fillColor=#dae8fc;spacing=5;spacingTop=-20;" parent="awDAAARCZt9qaH9nBusd-22" vertex="1">
          <mxGeometry x="780" y="620" width="125" height="95" as="geometry" />
        </mxCell>
        <mxCell id="Y2ZBj6na6wr-5ao4Nka5-15" value="GIS" style="shape=image;html=1;verticalAlign=top;verticalLabelPosition=bottom;labelBackgroundColor=#ffffff;imageAspect=0;aspect=fixed;image=https://cdn2.iconfinder.com/data/icons/iconslandgps/PNG/128x128/GIS/Layers.png;fontSize=12;" parent="awDAAARCZt9qaH9nBusd-22" vertex="1">
          <mxGeometry x="1027" y="540" width="67" height="67" as="geometry" />
        </mxCell>
        <mxCell id="Y2ZBj6na6wr-5ao4Nka5-61" style="edgeStyle=orthogonalEdgeStyle;jumpStyle=none;orthogonalLoop=1;jettySize=auto;html=1;startFill=0;endArrow=openThin;endFill=0;strokeWidth=6;fillColor=#7EA6E0;fontSize=12;strokeColor=#85BEFF;" parent="awDAAARCZt9qaH9nBusd-22" source="Y2ZBj6na6wr-5ao4Nka5-17" target="Y7cJZKocZSNqlVmRAGfy-73" edge="1">
          <mxGeometry relative="1" as="geometry">
            <Array as="points">
              <mxPoint x="930" y="1064" />
              <mxPoint x="930" y="1091" />
            </Array>
          </mxGeometry>
        </mxCell>
        <mxCell id="Y2ZBj6na6wr-5ao4Nka5-17" value="&lt;div&gt;&lt;br&gt;&lt;/div&gt;&lt;div&gt;rarity&amp;nbsp;&lt;/div&gt;&lt;div&gt;recording&lt;/div&gt;" style="rhombus;whiteSpace=wrap;html=1;fontSize=15;rounded=0;fontStyle=1;strokeColor=#6c8ebf;strokeWidth=4;fillColor=#dae8fc;spacing=5;spacingTop=-20;" parent="awDAAARCZt9qaH9nBusd-22" vertex="1">
          <mxGeometry x="777.5" y="1016.1300000000001" width="125" height="95" as="geometry" />
        </mxCell>
        <mxCell id="Y2ZBj6na6wr-5ao4Nka5-57" style="edgeStyle=orthogonalEdgeStyle;jumpStyle=none;orthogonalLoop=1;jettySize=auto;html=1;startFill=0;endArrow=openThin;endFill=0;strokeColor=#4D9AFF;strokeWidth=6;fillColor=#7EA6E0;fontSize=12;" parent="awDAAARCZt9qaH9nBusd-22" source="Y2ZBj6na6wr-5ao4Nka5-18" target="Y2ZBj6na6wr-5ao4Nka5-29" edge="1">
          <mxGeometry relative="1" as="geometry" />
        </mxCell>
        <mxCell id="Y2ZBj6na6wr-5ao4Nka5-58" style="edgeStyle=orthogonalEdgeStyle;jumpStyle=none;orthogonalLoop=1;jettySize=auto;html=1;entryX=0;entryY=0.5;entryDx=0;entryDy=0;startFill=0;endArrow=openThin;endFill=0;strokeWidth=6;fillColor=#7EA6E0;fontSize=12;strokeColor=#85BEFF;" parent="awDAAARCZt9qaH9nBusd-22" source="Y2ZBj6na6wr-5ao4Nka5-18" target="Y7cJZKocZSNqlVmRAGfy-73" edge="1">
          <mxGeometry relative="1" as="geometry">
            <Array as="points">
              <mxPoint x="930" y="919" />
              <mxPoint x="930" y="1091" />
            </Array>
          </mxGeometry>
        </mxCell>
        <mxCell id="Y2ZBj6na6wr-5ao4Nka5-18" value="&lt;div&gt;&lt;br&gt;&lt;/div&gt;&lt;div&gt;list length&lt;/div&gt;" style="rhombus;whiteSpace=wrap;html=1;fontSize=15;rounded=0;fontStyle=1;strokeColor=#6c8ebf;strokeWidth=4;fillColor=#dae8fc;spacing=5;spacingTop=-20;" parent="awDAAARCZt9qaH9nBusd-22" vertex="1">
          <mxGeometry x="777.5" y="871.13" width="125" height="95" as="geometry" />
        </mxCell>
        <mxCell id="Y2ZBj6na6wr-5ao4Nka5-59" style="edgeStyle=orthogonalEdgeStyle;jumpStyle=none;orthogonalLoop=1;jettySize=auto;html=1;entryX=0;entryY=0.5;entryDx=0;entryDy=0;startFill=0;endArrow=openThin;endFill=0;strokeColor=#4D9AFF;strokeWidth=6;fillColor=#7EA6E0;fontSize=12;" parent="awDAAARCZt9qaH9nBusd-22" source="Y2ZBj6na6wr-5ao4Nka5-19" target="Y2ZBj6na6wr-5ao4Nka5-29" edge="1">
          <mxGeometry relative="1" as="geometry">
            <Array as="points">
              <mxPoint x="960" y="991" />
              <mxPoint x="960" y="918" />
            </Array>
          </mxGeometry>
        </mxCell>
        <mxCell id="Y2ZBj6na6wr-5ao4Nka5-60" style="edgeStyle=orthogonalEdgeStyle;jumpStyle=none;orthogonalLoop=1;jettySize=auto;html=1;entryX=0;entryY=0.5;entryDx=0;entryDy=0;startFill=0;endArrow=openThin;endFill=0;strokeWidth=6;fillColor=#7EA6E0;fontSize=12;strokeColor=#85BEFF;" parent="awDAAARCZt9qaH9nBusd-22" source="Y2ZBj6na6wr-5ao4Nka5-19" target="Y7cJZKocZSNqlVmRAGfy-73" edge="1">
          <mxGeometry relative="1" as="geometry" />
        </mxCell>
        <mxCell id="Y2ZBj6na6wr-5ao4Nka5-19" value="&lt;div&gt;&lt;br&gt;&lt;/div&gt;&lt;div&gt;intensity&lt;/div&gt;" style="rhombus;whiteSpace=wrap;html=1;fontSize=15;rounded=0;fontStyle=1;strokeColor=#6c8ebf;strokeWidth=4;fillColor=#dae8fc;spacing=5;spacingTop=-20;" parent="awDAAARCZt9qaH9nBusd-22" vertex="1">
          <mxGeometry x="710" y="943.13" width="125" height="95" as="geometry" />
        </mxCell>
        <mxCell id="Y2ZBj6na6wr-5ao4Nka5-24" style="edgeStyle=orthogonalEdgeStyle;jumpStyle=arc;orthogonalLoop=1;jettySize=auto;html=1;entryX=0;entryY=0.5;entryDx=0;entryDy=0;startFill=0;endArrow=openThin;endFill=0;strokeColor=#4D9AFF;strokeWidth=6;fillColor=#7EA6E0;fontSize=12;" parent="awDAAARCZt9qaH9nBusd-22" source="Y2ZBj6na6wr-5ao4Nka5-23" target="Y2ZBj6na6wr-5ao4Nka5-25" edge="1">
          <mxGeometry relative="1" as="geometry">
            <mxPoint x="930" y="122.5" as="targetPoint" />
          </mxGeometry>
        </mxCell>
        <mxCell id="Y2ZBj6na6wr-5ao4Nka5-26" value="no" style="edgeLabel;html=1;align=center;verticalAlign=middle;resizable=0;points=[];fontSize=12;" parent="Y2ZBj6na6wr-5ao4Nka5-24" vertex="1" connectable="0">
          <mxGeometry x="-0.2326" y="2" relative="1" as="geometry">
            <mxPoint x="1.58" y="1.82" as="offset" />
          </mxGeometry>
        </mxCell>
        <mxCell id="Y2ZBj6na6wr-5ao4Nka5-23" value="&lt;br&gt;absence data?" style="shape=hexagon;perimeter=hexagonPerimeter2;whiteSpace=wrap;html=1;fixedSize=1;rounded=0;labelBackgroundColor=none;strokeColor=#6c8ebf;fillColor=#dae8fc;gradientColor=none;fontSize=15;direction=south;strokeWidth=4;spacing=5;spacingTop=-20;fontStyle=1;verticalAlign=middle;size=20.000000000000227;" parent="awDAAARCZt9qaH9nBusd-22" vertex="1">
          <mxGeometry x="527.0022388059697" y="64.24" width="204.23507462686567" height="71.5" as="geometry" />
        </mxCell>
        <mxCell id="3pJFGj4-_oHTbB4DjswW-111" style="edgeStyle=orthogonalEdgeStyle;orthogonalLoop=1;jettySize=auto;html=1;entryX=0;entryY=0.25;entryDx=0;entryDy=0;labelBackgroundColor=none;startArrow=none;startFill=0;endArrow=openThin;endFill=0;strokeColor=#4D9AFF;strokeWidth=6;fontSize=25;fontColor=#000000;" parent="awDAAARCZt9qaH9nBusd-22" source="Y2ZBj6na6wr-5ao4Nka5-25" target="3pJFGj4-_oHTbB4DjswW-106" edge="1">
          <mxGeometry relative="1" as="geometry" />
        </mxCell>
        <mxCell id="Y2ZBj6na6wr-5ao4Nka5-25" value="&lt;div&gt;&lt;br&gt;&lt;/div&gt;&lt;div&gt;do you need it?&lt;/div&gt;" style="rhombus;whiteSpace=wrap;html=1;fontSize=15;rounded=0;fontStyle=1;strokeColor=#6c8ebf;strokeWidth=4;fillColor=#dae8fc;spacing=5;spacingTop=-20;" parent="awDAAARCZt9qaH9nBusd-22" vertex="1">
          <mxGeometry x="802" y="49.370000000000005" width="180" height="101.25" as="geometry" />
        </mxCell>
        <mxCell id="Y2ZBj6na6wr-5ao4Nka5-28" value="dplyer" style="shape=image;html=1;verticalAlign=top;verticalLabelPosition=bottom;labelBackgroundColor=#ffffff;imageAspect=0;aspect=fixed;image=https://cdn4.iconfinder.com/data/icons/logos-and-brands/512/285_R_Project_logo-128.png" parent="awDAAARCZt9qaH9nBusd-22" vertex="1">
          <mxGeometry x="1026.2489552238803" y="369.99999999999994" width="67.74626865671642" height="67.74626865671642" as="geometry" />
        </mxCell>
        <mxCell id="Y2ZBj6na6wr-5ao4Nka5-29" value="BIRDS" style="shape=image;html=1;verticalAlign=top;verticalLabelPosition=bottom;labelBackgroundColor=#ffffff;imageAspect=0;aspect=fixed;image=https://cdn4.iconfinder.com/data/icons/logos-and-brands/512/285_R_Project_logo-128.png" parent="awDAAARCZt9qaH9nBusd-22" vertex="1">
          <mxGeometry x="1026.2489552238803" y="884" width="67.74626865671642" height="67.74626865671642" as="geometry" />
        </mxCell>
        <mxCell id="Y2ZBj6na6wr-5ao4Nka5-43" style="edgeStyle=orthogonalEdgeStyle;orthogonalLoop=1;jettySize=auto;html=1;entryX=0;entryY=0.5;entryDx=0;entryDy=0;startFill=0;endArrow=openThin;endFill=0;strokeColor=#4D9AFF;strokeWidth=6;fillColor=#7EA6E0;fontSize=12;" parent="awDAAARCZt9qaH9nBusd-22" source="Y2ZBj6na6wr-5ao4Nka5-5" target="Y2ZBj6na6wr-5ao4Nka5-28" edge="1">
          <mxGeometry relative="1" as="geometry">
            <Array as="points">
              <mxPoint x="990" y="466" />
              <mxPoint x="990" y="404" />
            </Array>
          </mxGeometry>
        </mxCell>
        <mxCell id="Y2ZBj6na6wr-5ao4Nka5-44" style="edgeStyle=orthogonalEdgeStyle;orthogonalLoop=1;jettySize=auto;html=1;entryX=0;entryY=0.5;entryDx=0;entryDy=0;startFill=0;endArrow=openThin;endFill=0;strokeColor=#85BEFF;strokeWidth=6;fillColor=#7EA6E0;fontSize=12;jumpStyle=none;" parent="awDAAARCZt9qaH9nBusd-22" source="Y2ZBj6na6wr-5ao4Nka5-5" target="Y2ZBj6na6wr-5ao4Nka5-29" edge="1">
          <mxGeometry relative="1" as="geometry">
            <Array as="points">
              <mxPoint x="960" y="466" />
              <mxPoint x="960" y="917" />
            </Array>
          </mxGeometry>
        </mxCell>
        <mxCell id="Y2ZBj6na6wr-5ao4Nka5-5" value="&lt;div&gt;&lt;br&gt;&lt;/div&gt;&lt;div&gt;&lt;span&gt;observation index&lt;/span&gt;&lt;/div&gt;" style="rhombus;whiteSpace=wrap;html=1;fontSize=15;rounded=0;fontStyle=1;strokeColor=#6c8ebf;strokeWidth=4;fillColor=#dae8fc;spacing=5;spacingTop=-20;" parent="awDAAARCZt9qaH9nBusd-22" vertex="1">
          <mxGeometry x="710" y="418.25" width="125" height="95" as="geometry" />
        </mxCell>
        <mxCell id="Y2ZBj6na6wr-5ao4Nka5-30" style="edgeStyle=orthogonalEdgeStyle;jumpStyle=none;orthogonalLoop=1;jettySize=auto;html=1;entryX=0;entryY=0.5;entryDx=0;entryDy=0;startFill=0;endArrow=openThin;endFill=0;strokeColor=#85BEFF;strokeWidth=6;fillColor=#7EA6E0;fontSize=12;" parent="awDAAARCZt9qaH9nBusd-22" source="Y7cJZKocZSNqlVmRAGfy-67" target="Y2ZBj6na6wr-5ao4Nka5-10" edge="1">
          <mxGeometry relative="1" as="geometry">
            <Array as="points">
              <mxPoint x="650" y="507" />
              <mxPoint x="650" y="668" />
            </Array>
          </mxGeometry>
        </mxCell>
        <mxCell id="Y2ZBj6na6wr-5ao4Nka5-46" style="edgeStyle=orthogonalEdgeStyle;orthogonalLoop=1;jettySize=auto;html=1;entryX=0;entryY=0.5;entryDx=0;entryDy=0;startFill=0;endArrow=openThin;endFill=0;strokeColor=#85BEFF;strokeWidth=6;fillColor=#7EA6E0;fontSize=12;jumpStyle=none;" parent="awDAAARCZt9qaH9nBusd-22" source="Y2ZBj6na6wr-5ao4Nka5-7" target="Y2ZBj6na6wr-5ao4Nka5-29" edge="1">
          <mxGeometry relative="1" as="geometry">
            <Array as="points">
              <mxPoint x="960" y="404" />
              <mxPoint x="960" y="917" />
            </Array>
          </mxGeometry>
        </mxCell>
        <mxCell id="Y2ZBj6na6wr-5ao4Nka5-41" style="edgeStyle=orthogonalEdgeStyle;orthogonalLoop=1;jettySize=auto;html=1;entryX=0;entryY=0.5;entryDx=0;entryDy=0;startFill=0;endArrow=openThin;endFill=0;strokeColor=#85BEFF;strokeWidth=6;fillColor=#7EA6E0;fontSize=12;jumpStyle=none;" parent="awDAAARCZt9qaH9nBusd-22" source="Y2ZBj6na6wr-5ao4Nka5-6" target="Y2ZBj6na6wr-5ao4Nka5-29" edge="1">
          <mxGeometry relative="1" as="geometry">
            <Array as="points">
              <mxPoint x="960" y="601" />
              <mxPoint x="960" y="917" />
            </Array>
          </mxGeometry>
        </mxCell>
        <mxCell id="Y2ZBj6na6wr-5ao4Nka5-148" value="spreadsheet" style="shape=image;html=1;verticalAlign=top;verticalLabelPosition=bottom;labelBackgroundColor=#ffffff;imageAspect=0;aspect=fixed;image=https://cdn4.iconfinder.com/data/icons/social-media-logos-6/512/79-excel-128.png;fontSize=12;" parent="awDAAARCZt9qaH9nBusd-22" vertex="1">
          <mxGeometry x="1120" y="370.37" width="67" height="67" as="geometry" />
        </mxCell>
        <mxCell id="Y7cJZKocZSNqlVmRAGfy-77" value="" style="shape=flexArrow;endArrow=classic;html=1;strokeColor=#b85450;strokeWidth=6;fillColor=#f8cecc;width=20;" parent="awDAAARCZt9qaH9nBusd-22" edge="1">
          <mxGeometry width="50" height="50" relative="1" as="geometry">
            <mxPoint x="1210" y="1143" as="sourcePoint" />
            <mxPoint x="1210" y="1233" as="targetPoint" />
          </mxGeometry>
        </mxCell>
        <mxCell id="Y7cJZKocZSNqlVmRAGfy-27" value="Your fit for purpose dataset" style="aspect=fixed;html=1;points=[];align=center;image;fontSize=12;image=img/lib/azure2/general/Files.svg;" parent="awDAAARCZt9qaH9nBusd-22" vertex="1">
          <mxGeometry x="1150.004328358209" y="1003.85" width="109.30063432835821" height="119.55223880597015" as="geometry" />
        </mxCell>
        <mxCell id="Y2ZBj6na6wr-5ao4Nka5-145" value="Occupancy Models" style="swimlane;fontSize=12;fillColor=#d5e8d4;strokeColor=#82b366;" parent="awDAAARCZt9qaH9nBusd-22" vertex="1">
          <mxGeometry x="1060" y="30" width="210" height="150" as="geometry" />
        </mxCell>
        <mxCell id="Y2ZBj6na6wr-5ao4Nka5-20" value="distance" style="shape=image;html=1;verticalAlign=top;verticalLabelPosition=bottom;labelBackgroundColor=#ffffff;imageAspect=0;aspect=fixed;image=https://cdn4.iconfinder.com/data/icons/logos-and-brands/512/285_R_Project_logo-128.png" parent="Y2ZBj6na6wr-5ao4Nka5-145" vertex="1">
          <mxGeometry x="26.12895522388033" y="49.999999999999886" width="67.74626865671642" height="67.74626865671642" as="geometry" />
        </mxCell>
        <mxCell id="Y2ZBj6na6wr-5ao4Nka5-146" value="&lt;div style=&quot;color: rgb(0 , 0 , 0) ; font-family: &amp;#34;helvetica&amp;#34; ; font-style: normal ; letter-spacing: normal ; text-indent: 0px ; text-transform: none ; word-spacing: 0px ; background-color: rgb(248 , 249 , 250)&quot;&gt;&lt;b&gt;&lt;font style=&quot;font-size: 15px&quot;&gt;Occupancy models&lt;/font&gt;&lt;/b&gt;&lt;/div&gt;" style="text;whiteSpace=wrap;html=1;fontSize=16;align=center;" parent="Y2ZBj6na6wr-5ao4Nka5-145" vertex="1">
          <mxGeometry x="10" y="26" width="190" height="24" as="geometry" />
        </mxCell>
        <mxCell id="Y2ZBj6na6wr-5ao4Nka5-147" value="&quot;own script&quot;" style="shape=image;html=1;verticalAlign=top;verticalLabelPosition=bottom;labelBackgroundColor=#ffffff;imageAspect=0;aspect=fixed;image=https://cdn4.iconfinder.com/data/icons/logos-and-brands/512/285_R_Project_logo-128.png" parent="Y2ZBj6na6wr-5ao4Nka5-145" vertex="1">
          <mxGeometry x="116.12895522388033" y="49.999999999999886" width="67.74626865671642" height="67.74626865671642" as="geometry" />
        </mxCell>
        <mxCell id="awDAAARCZt9qaH9nBusd-7" style="edgeStyle=orthogonalEdgeStyle;rounded=1;orthogonalLoop=1;jettySize=auto;html=1;strokeColor=#4D9AFF;strokeWidth=6;fillColor=#7EA6E0;endFill=0;endArrow=openThin;startFill=0;exitX=0.992;exitY=0.502;exitDx=0;exitDy=0;exitPerimeter=0;entryX=0;entryY=0.25;entryDx=0;entryDy=0;" parent="awDAAARCZt9qaH9nBusd-22" source="Y2ZBj6na6wr-5ao4Nka5-25" target="Y2ZBj6na6wr-5ao4Nka5-145" edge="1">
          <mxGeometry relative="1" as="geometry">
            <mxPoint x="1800" y="100" as="targetPoint" />
            <mxPoint x="1110" y="122.5" as="sourcePoint" />
          </mxGeometry>
        </mxCell>
        <mxCell id="Y2ZBj6na6wr-5ao4Nka5-27" value="yes" style="edgeLabel;html=1;align=center;verticalAlign=middle;resizable=0;points=[];fontSize=12;" parent="awDAAARCZt9qaH9nBusd-7" vertex="1" connectable="0">
          <mxGeometry x="-0.6781" y="1" relative="1" as="geometry">
            <mxPoint as="offset" />
          </mxGeometry>
        </mxCell>
        <mxCell id="Y2ZBj6na6wr-5ao4Nka5-166" value="" style="shape=flexArrow;endArrow=classic;html=1;strokeColor=#b85450;strokeWidth=6;fillColor=#f8cecc;width=20;" parent="awDAAARCZt9qaH9nBusd-22" edge="1">
          <mxGeometry width="50" height="50" relative="1" as="geometry">
            <mxPoint x="1259.3" y="823.8" as="sourcePoint" />
            <mxPoint x="1349.3" y="823.8" as="targetPoint" />
          </mxGeometry>
        </mxCell>
        <mxCell id="3pJFGj4-_oHTbB4DjswW-106" value="pseudo absences" style="swimlane;fontSize=12;fillColor=#d5e8d4;strokeColor=#82b366;" parent="awDAAARCZt9qaH9nBusd-22" vertex="1">
          <mxGeometry x="1060" y="190.63" width="210" height="159.37" as="geometry" />
        </mxCell>
        <mxCell id="3pJFGj4-_oHTbB4DjswW-108" value="&lt;div style=&quot;color: rgb(0 , 0 , 0) ; font-family: &amp;#34;helvetica&amp;#34; ; font-style: normal ; letter-spacing: normal ; text-indent: 0px ; text-transform: none ; word-spacing: 0px ; background-color: rgb(248 , 249 , 250)&quot;&gt;&lt;b&gt;&lt;font style=&quot;font-size: 15px&quot;&gt;Inference from Background&lt;/font&gt;&lt;/b&gt;&lt;/div&gt;" style="text;whiteSpace=wrap;html=1;fontSize=12;align=center;" parent="3pJFGj4-_oHTbB4DjswW-106" vertex="1">
          <mxGeometry x="10" y="26" width="190" height="44" as="geometry" />
        </mxCell>
        <mxCell id="3pJFGj4-_oHTbB4DjswW-109" value="spatialEcol" style="shape=image;html=1;verticalAlign=top;verticalLabelPosition=bottom;labelBackgroundColor=#ffffff;imageAspect=0;aspect=fixed;image=https://cdn4.iconfinder.com/data/icons/logos-and-brands/512/285_R_Project_logo-128.png" parent="3pJFGj4-_oHTbB4DjswW-106" vertex="1">
          <mxGeometry x="71.12895522388033" y="69.99999999999989" width="67.74626865671642" height="67.74626865671642" as="geometry" />
        </mxCell>
        <mxCell id="yJk_V7Hbr1PSN4Hg7ylu-122" value="Data Cleaning" style="swimlane;container=1;fillColor=#ffe6cc;strokeColor=#d79b00;" parent="WIyWlLk6GJQsqaUBKTNV-1" vertex="1">
          <mxGeometry x="900" width="860" height="1160" as="geometry">
            <mxRectangle x="900" width="90" height="23" as="alternateBounds" />
          </mxGeometry>
        </mxCell>
        <mxCell id="CvzA-OZoxFN5VkNT656r-120" value="&lt;div&gt;&lt;br&gt;&lt;/div&gt;&lt;div&gt;is there relevant&amp;nbsp;&lt;/div&gt;&lt;div&gt;data in the columns?&lt;/div&gt;" style="rhombus;whiteSpace=wrap;html=1;fontSize=15;rounded=0;fontStyle=1;strokeColor=#6c8ebf;strokeWidth=4;fillColor=#dae8fc;spacing=5;spacingTop=-20;" parent="yJk_V7Hbr1PSN4Hg7ylu-122" vertex="1">
          <mxGeometry x="82.19059701492529" y="388.95" width="229.14179104477614" height="101.25" as="geometry" />
        </mxCell>
        <mxCell id="CvzA-OZoxFN5VkNT656r-125" value="&lt;br&gt;geocode &lt;br&gt;location names" style="shape=hexagon;perimeter=hexagonPerimeter2;whiteSpace=wrap;html=1;fixedSize=1;rounded=0;labelBackgroundColor=none;strokeColor=#6c8ebf;fillColor=#dae8fc;gradientColor=none;fontSize=15;direction=south;strokeWidth=4;spacing=5;spacingTop=-20;fontStyle=1;verticalAlign=middle;size=11.75;" parent="yJk_V7Hbr1PSN4Hg7ylu-122" vertex="1">
          <mxGeometry x="277.4555970149254" y="590" width="204.23507462686567" height="71.5" as="geometry" />
        </mxCell>
        <mxCell id="CvzA-OZoxFN5VkNT656r-126" style="edgeStyle=orthogonalEdgeStyle;rounded=1;orthogonalLoop=1;jettySize=auto;html=1;fontSize=11;strokeColor=#4D9AFF;strokeWidth=6;endFill=0;endArrow=openThin;startFill=0;entryX=0.5;entryY=1;entryDx=0;entryDy=0;" parent="yJk_V7Hbr1PSN4Hg7ylu-122" source="CvzA-OZoxFN5VkNT656r-120" target="CvzA-OZoxFN5VkNT656r-125" edge="1">
          <mxGeometry as="geometry">
            <mxPoint x="403.4888059701493" y="738" as="targetPoint" />
          </mxGeometry>
        </mxCell>
        <mxCell id="CvzA-OZoxFN5VkNT656r-116" value="tidyverse&lt;br&gt;::mutategeocode()" style="shape=image;html=1;verticalAlign=top;verticalLabelPosition=bottom;labelBackgroundColor=#ffffff;imageAspect=0;aspect=fixed;image=https://cdn4.iconfinder.com/data/icons/logos-and-brands/512/285_R_Project_logo-128.png" parent="yJk_V7Hbr1PSN4Hg7ylu-122" vertex="1">
          <mxGeometry x="497.4552985074626" y="593.75" width="67.74626865671642" height="67.74626865671642" as="geometry" />
        </mxCell>
        <mxCell id="Y7cJZKocZSNqlVmRAGfy-29" style="edgeStyle=orthogonalEdgeStyle;orthogonalLoop=1;jettySize=auto;html=1;startFill=0;endArrow=openThin;endFill=0;strokeColor=#4D9AFF;strokeWidth=6;fillColor=#7EA6E0;entryX=0.517;entryY=0;entryDx=0;entryDy=0;entryPerimeter=0;" parent="yJk_V7Hbr1PSN4Hg7ylu-122" source="CvzA-OZoxFN5VkNT656r-131" target="CvzA-OZoxFN5VkNT656r-135" edge="1">
          <mxGeometry relative="1" as="geometry">
            <Array as="points">
              <mxPoint x="734" y="628" />
            </Array>
            <mxPoint x="734" y="980" as="targetPoint" />
          </mxGeometry>
        </mxCell>
        <mxCell id="CvzA-OZoxFN5VkNT656r-131" value="ggmap&lt;br&gt;::geocode()" style="shape=image;html=1;verticalAlign=top;verticalLabelPosition=bottom;labelBackgroundColor=#ffffff;imageAspect=0;aspect=fixed;image=https://cdn4.iconfinder.com/data/icons/logos-and-brands/512/285_R_Project_logo-128.png" parent="yJk_V7Hbr1PSN4Hg7ylu-122" vertex="1">
          <mxGeometry x="597.4629104477613" y="593.75" width="67.74626865671642" height="67.74626865671642" as="geometry" />
        </mxCell>
        <mxCell id="CvzA-OZoxFN5VkNT656r-4" value="taxise" style="shape=image;html=1;verticalAlign=top;verticalLabelPosition=bottom;labelBackgroundColor=#ffffff;imageAspect=0;aspect=fixed;image=https://cdn4.iconfinder.com/data/icons/logos-and-brands/512/285_R_Project_logo-128.png" parent="yJk_V7Hbr1PSN4Hg7ylu-122" vertex="1">
          <mxGeometry x="597.4614925373135" y="355.5" width="67.74626865671642" height="67.74626865671642" as="geometry" />
        </mxCell>
        <mxCell id="CvzA-OZoxFN5VkNT656r-63" value="gbif.org" style="html=1;points=[];align=center;image;fontSize=12;image=img/lib/mscae/Shared_Dashboard.svg;aspect=fixed;" parent="yJk_V7Hbr1PSN4Hg7ylu-122" vertex="1">
          <mxGeometry x="677.4598507462688" y="364.36962686567165" width="67" height="50" as="geometry" />
        </mxCell>
        <mxCell id="CvzA-OZoxFN5VkNT656r-121" value="dyntaxa.se" style="html=1;points=[];align=center;image;fontSize=12;image=img/lib/mscae/Shared_Dashboard.svg;aspect=fixed;" parent="yJk_V7Hbr1PSN4Hg7ylu-122" vertex="1">
          <mxGeometry x="761.0580597014927" y="364.36962686567165" width="67" height="50" as="geometry" />
        </mxCell>
        <mxCell id="CvzA-OZoxFN5VkNT656r-0" value="dyntaxa" style="shape=image;html=1;verticalAlign=top;verticalLabelPosition=bottom;labelBackgroundColor=#ffffff;imageAspect=0;aspect=fixed;image=https://cdn4.iconfinder.com/data/icons/logos-and-brands/512/285_R_Project_logo-128.png" parent="yJk_V7Hbr1PSN4Hg7ylu-122" vertex="1">
          <mxGeometry x="517.4558208955225" y="355.5" width="67.74626865671642" height="67.74626865671642" as="geometry" />
        </mxCell>
        <mxCell id="Y7cJZKocZSNqlVmRAGfy-32" style="edgeStyle=orthogonalEdgeStyle;orthogonalLoop=1;jettySize=auto;html=1;startFill=0;endArrow=openThin;endFill=0;strokeColor=#4D9AFF;strokeWidth=6;fillColor=#7EA6E0;entryX=0.52;entryY=-0.007;entryDx=0;entryDy=0;entryPerimeter=0;" parent="yJk_V7Hbr1PSN4Hg7ylu-122" target="CvzA-OZoxFN5VkNT656r-135" edge="1">
          <mxGeometry relative="1" as="geometry">
            <mxPoint x="734" y="520" as="sourcePoint" />
            <mxPoint x="750" y="970" as="targetPoint" />
            <Array as="points">
              <mxPoint x="734" y="570" />
              <mxPoint x="734" y="570" />
            </Array>
          </mxGeometry>
        </mxCell>
        <mxCell id="CvzA-OZoxFN5VkNT656r-130" value="Wallace" style="shape=image;html=1;verticalAlign=top;verticalLabelPosition=bottom;labelBackgroundColor=#ffffff;imageAspect=0;aspect=fixed;image=https://cdn4.iconfinder.com/data/icons/logos-and-brands/512/285_R_Project_logo-128.png" parent="yJk_V7Hbr1PSN4Hg7ylu-122" vertex="1">
          <mxGeometry x="597.4589552238806" y="464.75" width="67.74626865671642" height="67.74626865671642" as="geometry" />
        </mxCell>
        <mxCell id="CvzA-OZoxFN5VkNT656r-135" value="Your accurate and certain dataset" style="aspect=fixed;html=1;points=[];align=center;image;fontSize=12;image=img/lib/azure2/general/Files.svg;" parent="yJk_V7Hbr1PSN4Hg7ylu-122" vertex="1">
          <mxGeometry x="677.4643283582091" y="1000" width="109.30063432835821" height="119.55223880597015" as="geometry" />
        </mxCell>
        <mxCell id="Y7cJZKocZSNqlVmRAGfy-13" value="" style="shape=flexArrow;endArrow=classic;html=1;strokeColor=#d79b00;strokeWidth=6;fillColor=#ffe6cc;width=20;" parent="yJk_V7Hbr1PSN4Hg7ylu-122" edge="1">
          <mxGeometry width="50" height="50" relative="1" as="geometry">
            <mxPoint x="820" y="60" as="sourcePoint" />
            <mxPoint x="910" y="60" as="targetPoint" />
          </mxGeometry>
        </mxCell>
        <mxCell id="CvzA-OZoxFN5VkNT656r-118" value="scrubr" style="shape=image;html=1;verticalAlign=top;verticalLabelPosition=bottom;labelBackgroundColor=#ffffff;imageAspect=0;aspect=fixed;image=https://cdn4.iconfinder.com/data/icons/logos-and-brands/512/285_R_Project_logo-128.png" parent="yJk_V7Hbr1PSN4Hg7ylu-122" vertex="1">
          <mxGeometry x="517.4558208955225" y="249.75" width="67.74626865671642" height="67.74626865671642" as="geometry" />
        </mxCell>
        <mxCell id="CvzA-OZoxFN5VkNT656r-1" value="CoordinateCleaner" style="shape=image;html=1;verticalAlign=top;verticalLabelPosition=bottom;labelBackgroundColor=#ffffff;imageAspect=0;aspect=fixed;image=https://cdn4.iconfinder.com/data/icons/logos-and-brands/512/285_R_Project_logo-128.png" parent="yJk_V7Hbr1PSN4Hg7ylu-122" vertex="1">
          <mxGeometry x="517.4558208955225" y="140" width="67.74626865671642" height="67.74626865671642" as="geometry" />
        </mxCell>
        <mxCell id="CvzA-OZoxFN5VkNT656r-115" value="scrubr" style="shape=image;html=1;verticalAlign=top;verticalLabelPosition=bottom;labelBackgroundColor=#ffffff;imageAspect=0;aspect=fixed;image=https://cdn4.iconfinder.com/data/icons/logos-and-brands/512/285_R_Project_logo-128.png" parent="yJk_V7Hbr1PSN4Hg7ylu-122" vertex="1">
          <mxGeometry x="597.4614925373136" y="140" width="67.74626865671642" height="67.74626865671642" as="geometry" />
        </mxCell>
        <mxCell id="CvzA-OZoxFN5VkNT656r-129" value="bdclean" style="shape=image;html=1;verticalAlign=top;verticalLabelPosition=bottom;labelBackgroundColor=#ffffff;imageAspect=0;aspect=fixed;image=https://cdn4.iconfinder.com/data/icons/logos-and-brands/512/285_R_Project_logo-128.png" parent="yJk_V7Hbr1PSN4Hg7ylu-122" vertex="1">
          <mxGeometry x="517.459552238806" y="464.75" width="67.74626865671642" height="67.74626865671642" as="geometry" />
        </mxCell>
        <mxCell id="CvzA-OZoxFN5VkNT656r-52" value="&lt;br&gt;clean by&lt;br&gt;assumed visit/checklist quality" style="shape=hexagon;perimeter=hexagonPerimeter2;whiteSpace=wrap;html=1;fixedSize=1;rounded=0;labelBackgroundColor=none;strokeColor=#6c8ebf;fillColor=#dae8fc;gradientColor=none;fontSize=15;direction=south;strokeWidth=4;spacing=5;spacingTop=-20;fontStyle=1;verticalAlign=middle;size=11.75;" parent="yJk_V7Hbr1PSN4Hg7ylu-122" vertex="1">
          <mxGeometry x="94.6455223880597" y="890.0999999999999" width="204.23507462686567" height="71.5" as="geometry" />
        </mxCell>
        <mxCell id="CvzA-OZoxFN5VkNT656r-138" value="&lt;br&gt;misspellings&lt;br&gt;and duplicates" style="shape=hexagon;perimeter=hexagonPerimeter2;whiteSpace=wrap;html=1;fixedSize=1;rounded=0;labelBackgroundColor=none;strokeColor=#6c8ebf;fillColor=#dae8fc;gradientColor=none;fontSize=15;direction=south;strokeWidth=4;spacing=5;spacingTop=-20;fontStyle=1;verticalAlign=middle;size=11.75;" parent="yJk_V7Hbr1PSN4Hg7ylu-122" vertex="1">
          <mxGeometry x="94.6455223880597" y="750" width="204.23507462686567" height="71.5" as="geometry" />
        </mxCell>
        <mxCell id="CvzA-OZoxFN5VkNT656r-142" value="&lt;br&gt;missing or &lt;br&gt;incorrect data" style="shape=hexagon;perimeter=hexagonPerimeter2;whiteSpace=wrap;html=1;fixedSize=1;rounded=0;labelBackgroundColor=none;strokeColor=#6c8ebf;fillColor=#dae8fc;gradientColor=none;fontSize=15;direction=south;strokeWidth=4;spacing=5;spacingTop=-20;fontStyle=1;verticalAlign=middle;size=11.75;" parent="yJk_V7Hbr1PSN4Hg7ylu-122" vertex="1">
          <mxGeometry x="94.6455223880597" y="248" width="204.23507462686567" height="71.5" as="geometry" />
        </mxCell>
        <mxCell id="CvzA-OZoxFN5VkNT656r-134" style="edgeStyle=orthogonalEdgeStyle;orthogonalLoop=1;jettySize=auto;html=1;startFill=0;endArrow=openThin;endFill=0;strokeColor=#4D9AFF;strokeWidth=6;exitX=1;exitY=0.5;exitDx=0;exitDy=0;" parent="yJk_V7Hbr1PSN4Hg7ylu-122" source="CvzA-OZoxFN5VkNT656r-142" target="CvzA-OZoxFN5VkNT656r-120" edge="1">
          <mxGeometry as="geometry">
            <mxPoint x="249.06716417910457" y="628.5" as="sourcePoint" />
          </mxGeometry>
        </mxCell>
        <mxCell id="CvzA-OZoxFN5VkNT656r-54" style="edgeStyle=orthogonalEdgeStyle;rounded=1;orthogonalLoop=1;jettySize=auto;html=1;fontSize=11;strokeColor=#4D9AFF;strokeWidth=6;endFill=0;endArrow=openThin;startFill=0;entryX=0;entryY=0.5;entryDx=0;entryDy=0;exitX=0.5;exitY=0;exitDx=0;exitDy=0;" parent="yJk_V7Hbr1PSN4Hg7ylu-122" source="CvzA-OZoxFN5VkNT656r-142" target="CvzA-OZoxFN5VkNT656r-1" edge="1">
          <mxGeometry x="-337.53999999999996" y="4" as="geometry">
            <mxPoint x="569.0644776119402" y="173.5" as="targetPoint" />
            <Array as="points">
              <mxPoint x="380" y="284" />
              <mxPoint x="380" y="174" />
            </Array>
            <mxPoint x="319.99731343283565" y="290.0588235294117" as="sourcePoint" />
          </mxGeometry>
        </mxCell>
        <mxCell id="CvzA-OZoxFN5VkNT656r-55" value="Spatially" style="edgeLabel;html=1;align=center;verticalAlign=middle;resizable=0;points=[];fontSize=15;" parent="CvzA-OZoxFN5VkNT656r-54" vertex="1" connectable="0">
          <mxGeometry x="0.1867" y="-3" relative="1" as="geometry">
            <mxPoint x="35.09" y="-2.5" as="offset" />
          </mxGeometry>
        </mxCell>
        <mxCell id="CvzA-OZoxFN5VkNT656r-58" style="edgeStyle=orthogonalEdgeStyle;rounded=1;orthogonalLoop=1;jettySize=auto;html=1;fontSize=11;strokeColor=#4D9AFF;strokeWidth=6;endFill=0;endArrow=openThin;startFill=0;entryX=0;entryY=0.5;entryDx=0;entryDy=0;exitX=0.5;exitY=0;exitDx=0;exitDy=0;" parent="yJk_V7Hbr1PSN4Hg7ylu-122" source="CvzA-OZoxFN5VkNT656r-142" target="CvzA-OZoxFN5VkNT656r-118" edge="1">
          <mxGeometry x="-337.53999999999996" y="4" as="geometry">
            <mxPoint x="569.0644776119402" y="289.5" as="targetPoint" />
            <mxPoint x="300" y="290" as="sourcePoint" />
          </mxGeometry>
        </mxCell>
        <mxCell id="CvzA-OZoxFN5VkNT656r-59" value="Temporally" style="edgeLabel;html=1;align=center;verticalAlign=middle;resizable=0;points=[];fontSize=15;" parent="CvzA-OZoxFN5VkNT656r-58" vertex="1" connectable="0">
          <mxGeometry x="0.1692" y="1" relative="1" as="geometry">
            <mxPoint x="-0.9399999999999995" y="0.4" as="offset" />
          </mxGeometry>
        </mxCell>
        <mxCell id="CvzA-OZoxFN5VkNT656r-60" style="edgeStyle=orthogonalEdgeStyle;rounded=1;orthogonalLoop=1;jettySize=auto;html=1;fontSize=11;strokeColor=#4D9AFF;strokeWidth=6;endFill=0;endArrow=openThin;startFill=0;exitX=0.5;exitY=0;exitDx=0;exitDy=0;entryX=0;entryY=0.5;entryDx=0;entryDy=0;" parent="yJk_V7Hbr1PSN4Hg7ylu-122" source="CvzA-OZoxFN5VkNT656r-142" target="CvzA-OZoxFN5VkNT656r-0" edge="1">
          <mxGeometry x="-337.53999999999996" y="4" as="geometry">
            <mxPoint x="560" y="410" as="targetPoint" />
            <Array as="points">
              <mxPoint x="380" y="284" />
              <mxPoint x="380" y="389" />
            </Array>
            <mxPoint x="319.99731343283565" y="290.0588235294117" as="sourcePoint" />
          </mxGeometry>
        </mxCell>
        <mxCell id="CvzA-OZoxFN5VkNT656r-61" value="Taxonomically" style="edgeLabel;html=1;align=center;verticalAlign=middle;resizable=0;points=[];fontSize=15;" parent="CvzA-OZoxFN5VkNT656r-60" vertex="1" connectable="0">
          <mxGeometry x="0.2993" y="-3" relative="1" as="geometry">
            <mxPoint x="36.050000000000004" y="-3.45" as="offset" />
          </mxGeometry>
        </mxCell>
        <mxCell id="CvzA-OZoxFN5VkNT656r-127" style="edgeStyle=orthogonalEdgeStyle;rounded=1;orthogonalLoop=1;jettySize=auto;html=1;fontSize=11;strokeColor=#4D9AFF;strokeWidth=6;endFill=0;endArrow=openThin;startFill=0;entryX=0;entryY=0.5;entryDx=0;entryDy=0;exitX=0.5;exitY=0;exitDx=0;exitDy=0;" parent="yJk_V7Hbr1PSN4Hg7ylu-122" source="CvzA-OZoxFN5VkNT656r-142" target="CvzA-OZoxFN5VkNT656r-129" edge="1">
          <mxGeometry x="-337.53999999999996" y="4" as="geometry">
            <mxPoint x="569.0644776119402" y="522" as="targetPoint" />
            <Array as="points">
              <mxPoint x="380" y="284" />
              <mxPoint x="380" y="499" />
            </Array>
            <mxPoint x="319.99731343283565" y="289" as="sourcePoint" />
          </mxGeometry>
        </mxCell>
        <mxCell id="CvzA-OZoxFN5VkNT656r-128" value="All" style="edgeLabel;html=1;align=center;verticalAlign=middle;resizable=0;points=[];fontSize=15;" parent="CvzA-OZoxFN5VkNT656r-127" vertex="1" connectable="0">
          <mxGeometry x="0.7284" y="2" relative="1" as="geometry">
            <mxPoint x="-58.75" y="2.0100000000000002" as="offset" />
          </mxGeometry>
        </mxCell>
        <mxCell id="gclnOcu_DNjMdLOXnFwR-88" value="" style="shape=image;html=1;verticalAlign=top;verticalLabelPosition=bottom;labelBackgroundColor=#ffffff;imageAspect=0;aspect=fixed;image=https://cdn3.iconfinder.com/data/icons/materia-flat-halloween-free/24/039_007_broom_halloween_witch_magic-128.png;strokeWidth=4;align=center;" parent="yJk_V7Hbr1PSN4Hg7ylu-122" vertex="1">
          <mxGeometry x="19.92537313432831" y="40" width="119.55223880597015" height="119.55223880597015" as="geometry" />
        </mxCell>
        <mxCell id="Y7cJZKocZSNqlVmRAGfy-9" style="edgeStyle=orthogonalEdgeStyle;orthogonalLoop=1;jettySize=auto;html=1;startFill=0;endArrow=openThin;endFill=0;strokeColor=#4D9AFF;strokeWidth=6;exitX=0;exitY=1;exitDx=0;exitDy=0;entryX=0.5;entryY=1;entryDx=0;entryDy=0;" parent="yJk_V7Hbr1PSN4Hg7ylu-122" source="gclnOcu_DNjMdLOXnFwR-88" target="CvzA-OZoxFN5VkNT656r-52" edge="1">
          <mxGeometry as="geometry">
            <mxPoint x="60" y="1030" as="targetPoint" />
            <Array as="points">
              <mxPoint x="20" y="926" />
            </Array>
          </mxGeometry>
        </mxCell>
        <mxCell id="Y7cJZKocZSNqlVmRAGfy-8" style="edgeStyle=orthogonalEdgeStyle;orthogonalLoop=1;jettySize=auto;html=1;entryX=0.5;entryY=0.997;entryDx=0;entryDy=0;entryPerimeter=0;startFill=0;endArrow=openThin;endFill=0;strokeColor=#4D9AFF;strokeWidth=6;exitX=0;exitY=1;exitDx=0;exitDy=0;" parent="yJk_V7Hbr1PSN4Hg7ylu-122" source="gclnOcu_DNjMdLOXnFwR-88" target="CvzA-OZoxFN5VkNT656r-138" edge="1">
          <mxGeometry as="geometry" />
        </mxCell>
        <mxCell id="Y7cJZKocZSNqlVmRAGfy-7" style="edgeStyle=orthogonalEdgeStyle;orthogonalLoop=1;jettySize=auto;html=1;entryX=0.5;entryY=1;entryDx=0;entryDy=0;startFill=0;endArrow=openThin;endFill=0;strokeColor=#4D9AFF;strokeWidth=6;exitX=0;exitY=1;exitDx=0;exitDy=0;" parent="yJk_V7Hbr1PSN4Hg7ylu-122" source="gclnOcu_DNjMdLOXnFwR-88" target="CvzA-OZoxFN5VkNT656r-142" edge="1">
          <mxGeometry as="geometry" />
        </mxCell>
        <mxCell id="Y2ZBj6na6wr-5ao4Nka5-62" value="&lt;div style=&quot;color: rgb(0 , 0 , 0) ; font-family: &amp;#34;helvetica&amp;#34; ; font-style: normal ; letter-spacing: normal ; text-align: center ; text-indent: 0px ; text-transform: none ; word-spacing: 0px ; background-color: rgb(248 , 249 , 250)&quot;&gt;&lt;h1 style=&quot;font-family: &amp;#34;helvetica&amp;#34; ; text-align: left ; font-size: 20px&quot;&gt;Data cleaning and filling&lt;/h1&gt;&lt;/div&gt;" style="text;whiteSpace=wrap;html=1;fontSize=16;" parent="yJk_V7Hbr1PSN4Hg7ylu-122" vertex="1">
          <mxGeometry x="139.48" y="20" width="133.24" height="70" as="geometry" />
        </mxCell>
        <mxCell id="Y2ZBj6na6wr-5ao4Nka5-149" value="spreadsheet" style="shape=image;html=1;verticalAlign=top;verticalLabelPosition=bottom;labelBackgroundColor=#ffffff;imageAspect=0;aspect=fixed;image=https://cdn4.iconfinder.com/data/icons/social-media-logos-6/512/79-excel-128.png;fontSize=12;" parent="yJk_V7Hbr1PSN4Hg7ylu-122" vertex="1">
          <mxGeometry x="420" y="752.25" width="67" height="67" as="geometry" />
        </mxCell>
        <mxCell id="CvzA-OZoxFN5VkNT656r-139" value="tidyverse" style="shape=image;html=1;verticalAlign=top;verticalLabelPosition=bottom;labelBackgroundColor=#ffffff;imageAspect=0;aspect=fixed;image=https://cdn4.iconfinder.com/data/icons/logos-and-brands/512/285_R_Project_logo-128.png" parent="yJk_V7Hbr1PSN4Hg7ylu-122" vertex="1">
          <mxGeometry x="497.45559701492533" y="750" width="67.74626865671642" height="67.74626865671642" as="geometry" />
        </mxCell>
        <mxCell id="Y2ZBj6na6wr-5ao4Nka5-150" value="GIS" style="shape=image;html=1;verticalAlign=top;verticalLabelPosition=bottom;labelBackgroundColor=#ffffff;imageAspect=0;aspect=fixed;image=https://cdn2.iconfinder.com/data/icons/iconslandgps/PNG/128x128/GIS/Layers.png;fontSize=12;" parent="yJk_V7Hbr1PSN4Hg7ylu-122" vertex="1">
          <mxGeometry x="761.06" y="150" width="67" height="67" as="geometry" />
        </mxCell>
        <mxCell id="CvzA-OZoxFN5VkNT656r-136" value="BIRDS" style="shape=image;html=1;verticalAlign=top;verticalLabelPosition=bottom;labelBackgroundColor=#ffffff;imageAspect=0;aspect=fixed;image=https://cdn4.iconfinder.com/data/icons/logos-and-brands/512/285_R_Project_logo-128.png" parent="yJk_V7Hbr1PSN4Hg7ylu-122" vertex="1">
          <mxGeometry x="330.0026865671642" y="890.1" width="67.74626865671642" height="67.74626865671642" as="geometry" />
        </mxCell>
        <mxCell id="Y2ZBj6na6wr-5ao4Nka5-152" value="spreadsheet" style="shape=image;html=1;verticalAlign=top;verticalLabelPosition=bottom;labelBackgroundColor=#ffffff;imageAspect=0;aspect=fixed;image=https://cdn4.iconfinder.com/data/icons/social-media-logos-6/512/79-excel-128.png;fontSize=12;" parent="yJk_V7Hbr1PSN4Hg7ylu-122" vertex="1">
          <mxGeometry x="598.21" y="250.5" width="67" height="67" as="geometry" />
        </mxCell>
        <mxCell id="Y2ZBj6na6wr-5ao4Nka5-170" value="biogeo" style="shape=image;html=1;verticalAlign=top;verticalLabelPosition=bottom;labelBackgroundColor=#ffffff;imageAspect=0;aspect=fixed;image=https://cdn4.iconfinder.com/data/icons/logos-and-brands/512/285_R_Project_logo-128.png" parent="yJk_V7Hbr1PSN4Hg7ylu-122" vertex="1">
          <mxGeometry x="676.7089552238803" y="140" width="67.74626865671642" height="67.74626865671642" as="geometry" />
        </mxCell>
        <mxCell id="Y7cJZKocZSNqlVmRAGfy-30" style="edgeStyle=orthogonalEdgeStyle;orthogonalLoop=1;jettySize=auto;html=1;startFill=0;endArrow=openThin;endFill=0;strokeColor=#4D9AFF;strokeWidth=6;fillColor=#7EA6E0;" parent="yJk_V7Hbr1PSN4Hg7ylu-122" source="CvzA-OZoxFN5VkNT656r-139" edge="1">
          <mxGeometry relative="1" as="geometry">
            <mxPoint x="734" y="1001" as="targetPoint" />
            <Array as="points">
              <mxPoint x="690" y="779" />
              <mxPoint x="734" y="779" />
            </Array>
          </mxGeometry>
        </mxCell>
        <mxCell id="Y7cJZKocZSNqlVmRAGfy-31" style="edgeStyle=orthogonalEdgeStyle;orthogonalLoop=1;jettySize=auto;html=1;startFill=0;endArrow=openThin;endFill=0;strokeColor=#4D9AFF;strokeWidth=6;fillColor=#7EA6E0;entryX=0.517;entryY=-0.004;entryDx=0;entryDy=0;entryPerimeter=0;" parent="yJk_V7Hbr1PSN4Hg7ylu-122" source="CvzA-OZoxFN5VkNT656r-136" target="CvzA-OZoxFN5VkNT656r-135" edge="1">
          <mxGeometry relative="1" as="geometry">
            <mxPoint x="760" y="990" as="targetPoint" />
            <Array as="points">
              <mxPoint x="734" y="924" />
            </Array>
          </mxGeometry>
        </mxCell>
        <mxCell id="3pJFGj4-_oHTbB4DjswW-72" value="OpenRefine" style="shape=image;html=1;verticalAlign=top;verticalLabelPosition=bottom;labelBackgroundColor=#ffffff;imageAspect=0;aspect=fixed;image=https://cdn3.iconfinder.com/data/icons/google-suits-1/32/3_sites_google_window_website_search_engine-128.png;fontSize=12;" parent="yJk_V7Hbr1PSN4Hg7ylu-122" vertex="1">
          <mxGeometry x="330" y="752.25" width="67" height="67" as="geometry" />
        </mxCell>
        <mxCell id="Y7cJZKocZSNqlVmRAGfy-76" value="" style="shape=flexArrow;endArrow=classic;html=1;strokeColor=#d79b00;strokeWidth=6;fillColor=#ffe6cc;width=20;" parent="yJk_V7Hbr1PSN4Hg7ylu-122" edge="1">
          <mxGeometry width="50" height="50" relative="1" as="geometry">
            <mxPoint x="731.53" y="1140" as="sourcePoint" />
            <mxPoint x="731.53" y="1230" as="targetPoint" />
          </mxGeometry>
        </mxCell>
        <mxCell id="yJk_V7Hbr1PSN4Hg7ylu-46" value="Research Question" style="swimlane;fillColor=#fff2cc;strokeColor=#d6b656;" parent="WIyWlLk6GJQsqaUBKTNV-1" vertex="1">
          <mxGeometry width="880" height="1160" as="geometry">
            <mxRectangle y="0.8600000000000003" width="90" height="23" as="alternateBounds" />
          </mxGeometry>
        </mxCell>
        <mxCell id="K3oOLh2pZVhGYxKfuLFw-25" value="&lt;h1&gt;&lt;font style=&quot;font-size: 16px&quot;&gt;Functional Diversity&lt;/font&gt;&lt;/h1&gt;" style="text;html=1;spacing=5;spacingTop=-20;whiteSpace=wrap;overflow=hidden;rounded=0;fontSize=12;fillColor=#dae8fc;strokeColor=#6c8ebf;align=center;verticalAlign=middle;strokeWidth=4;" parent="yJk_V7Hbr1PSN4Hg7ylu-46" vertex="1">
          <mxGeometry x="655" y="324.3" width="170" height="44" as="geometry" />
        </mxCell>
        <mxCell id="K3oOLh2pZVhGYxKfuLFw-26" value="&lt;h1&gt;&lt;font style=&quot;font-size: 16px&quot;&gt;Taxonomic&amp;nbsp; Diversity&lt;/font&gt;&lt;/h1&gt;" style="text;html=1;spacing=5;spacingTop=-20;whiteSpace=wrap;overflow=hidden;rounded=0;fontSize=12;fillColor=#dae8fc;strokeColor=#6c8ebf;align=center;verticalAlign=middle;strokeWidth=4;" parent="yJk_V7Hbr1PSN4Hg7ylu-46" vertex="1">
          <mxGeometry x="655" y="83.63" width="170" height="44" as="geometry" />
        </mxCell>
        <mxCell id="w-YvjRMWvmcFSU0H_ef8-19" value="&lt;h1&gt;&lt;font style=&quot;font-size: 16px&quot;&gt;Phylogenetic Diversity&lt;/font&gt;&lt;/h1&gt;" style="text;html=1;spacing=5;spacingTop=-20;whiteSpace=wrap;overflow=hidden;rounded=0;fontSize=12;fillColor=#dae8fc;strokeColor=#6c8ebf;align=center;verticalAlign=middle;strokeWidth=4;" parent="yJk_V7Hbr1PSN4Hg7ylu-46" vertex="1">
          <mxGeometry x="647.5" y="520" width="185" height="44" as="geometry" />
        </mxCell>
        <mxCell id="gclnOcu_DNjMdLOXnFwR-61" style="edgeStyle=orthogonalEdgeStyle;rounded=1;orthogonalLoop=1;jettySize=auto;html=1;startArrow=none;startFill=0;endArrow=openThin;endFill=0;strokeColor=#4D9AFF;strokeWidth=6;entryX=0.506;entryY=-0.011;entryDx=0;entryDy=0;entryPerimeter=0;" parent="yJk_V7Hbr1PSN4Hg7ylu-46" source="i0vj7bkVoeIxhTv1__Wb-69" target="gclnOcu_DNjMdLOXnFwR-8" edge="1">
          <mxGeometry relative="1" as="geometry">
            <Array as="points">
              <mxPoint x="219" y="106" />
            </Array>
          </mxGeometry>
        </mxCell>
        <mxCell id="i0vj7bkVoeIxhTv1__Wb-69" value="Checked species &lt;br&gt;list of &lt;br&gt;agreed synonyms" style="shape=parallelogram;perimeter=parallelogramPerimeter;whiteSpace=wrap;html=1;fixedSize=1;labelBackgroundColor=none;strokeColor=#6c8ebf;fillColor=#dae8fc;fontSize=12;rounded=1;strokeWidth=5;" parent="yJk_V7Hbr1PSN4Hg7ylu-46" vertex="1">
          <mxGeometry x="290" y="75.75" width="140" height="60" as="geometry" />
        </mxCell>
        <UserObject label="&lt;font size=&quot;1&quot;&gt;&lt;b style=&quot;font-size: 20px&quot;&gt;Research &lt;br&gt;Question&lt;/b&gt;&lt;/font&gt;" link="https://biodiversitydata-se.github.io/biodiversity-analysis-tools/the-importance-of-questions-and-sources-of-data.html" id="gclnOcu_DNjMdLOXnFwR-2">
          <mxCell style="aspect=fixed;html=1;points=[];align=center;image;fontSize=12;image=img/lib/mscae/Batch_AI.svg;" parent="yJk_V7Hbr1PSN4Hg7ylu-46" vertex="1">
            <mxGeometry x="50" y="51.5" width="78.12" height="108.5" as="geometry" />
          </mxCell>
        </UserObject>
        <mxCell id="gclnOcu_DNjMdLOXnFwR-81" style="edgeStyle=orthogonalEdgeStyle;rounded=1;sketch=0;orthogonalLoop=1;jettySize=auto;html=1;startArrow=none;startFill=0;startSize=6;sourcePerimeterSpacing=0;endArrow=none;endFill=0;endSize=6;targetPerimeterSpacing=0;strokeColor=#4D9AFF;strokeWidth=6;" parent="yJk_V7Hbr1PSN4Hg7ylu-46" source="gclnOcu_DNjMdLOXnFwR-4" target="gclnOcu_DNjMdLOXnFwR-6" edge="1">
          <mxGeometry relative="1" as="geometry" />
        </mxCell>
        <mxCell id="gclnOcu_DNjMdLOXnFwR-4" value="Biodiversity&lt;br&gt;Atlas&lt;br&gt;Sweden" style="aspect=fixed;html=1;points=[];align=center;image;fontSize=12;image=img/lib/mscae/Database_General.svg;" parent="yJk_V7Hbr1PSN4Hg7ylu-46" vertex="1">
          <mxGeometry x="90.12" y="491.14" width="38" height="50" as="geometry" />
        </mxCell>
        <mxCell id="gclnOcu_DNjMdLOXnFwR-5" value="&lt;b&gt;SBDI4R&lt;/b&gt;" style="shape=image;html=1;verticalAlign=top;verticalLabelPosition=bottom;labelBackgroundColor=#ffffff;imageAspect=0;aspect=fixed;image=https://cdn4.iconfinder.com/data/icons/logos-and-brands/512/285_R_Project_logo-128.png" parent="yJk_V7Hbr1PSN4Hg7ylu-46" vertex="1">
          <mxGeometry x="283" y="541.14" width="68" height="68" as="geometry" />
        </mxCell>
        <mxCell id="gclnOcu_DNjMdLOXnFwR-7" value="www.bioatlas.se" style="aspect=fixed;html=1;points=[];align=center;image;fontSize=12;image=img/lib/mscae/Shared_Dashboard.svg;" parent="yJk_V7Hbr1PSN4Hg7ylu-46" vertex="1">
          <mxGeometry x="292" y="469.03" width="50" height="41" as="geometry" />
        </mxCell>
        <mxCell id="gclnOcu_DNjMdLOXnFwR-62" style="edgeStyle=orthogonalEdgeStyle;rounded=1;orthogonalLoop=1;jettySize=auto;html=1;startArrow=none;startFill=0;endArrow=openThin;endFill=0;strokeColor=#4D9AFF;strokeWidth=6;" parent="yJk_V7Hbr1PSN4Hg7ylu-46" source="gclnOcu_DNjMdLOXnFwR-8" target="gclnOcu_DNjMdLOXnFwR-44" edge="1">
          <mxGeometry relative="1" as="geometry" />
        </mxCell>
        <mxCell id="gclnOcu_DNjMdLOXnFwR-8" value="Query" style="aspect=fixed;html=1;points=[];align=center;image;fontSize=12;image=img/lib/azure2/general/Search.svg;" parent="yJk_V7Hbr1PSN4Hg7ylu-46" vertex="1">
          <mxGeometry x="186.2" y="160" width="64" height="65" as="geometry" />
        </mxCell>
        <mxCell id="gclnOcu_DNjMdLOXnFwR-56" style="edgeStyle=orthogonalEdgeStyle;rounded=1;orthogonalLoop=1;jettySize=auto;html=1;entryX=-0.003;entryY=0.544;entryDx=0;entryDy=0;entryPerimeter=0;exitX=0.011;exitY=0.52;exitDx=0;exitDy=0;exitPerimeter=0;strokeColor=#4D9AFF;strokeWidth=6;startArrow=openThin;startFill=0;endArrow=openThin;endFill=0;" parent="yJk_V7Hbr1PSN4Hg7ylu-46" source="gclnOcu_DNjMdLOXnFwR-9" target="gclnOcu_DNjMdLOXnFwR-4" edge="1">
          <mxGeometry relative="1" as="geometry">
            <Array as="points">
              <mxPoint x="20" y="347" />
              <mxPoint x="20" y="518" />
              <mxPoint x="90" y="518" />
            </Array>
          </mxGeometry>
        </mxCell>
        <mxCell id="gclnOcu_DNjMdLOXnFwR-58" style="edgeStyle=orthogonalEdgeStyle;rounded=1;orthogonalLoop=1;jettySize=auto;html=1;entryX=-0.019;entryY=0.496;entryDx=0;entryDy=0;entryPerimeter=0;startArrow=openThin;startFill=0;endArrow=openThin;endFill=0;strokeColor=#4D9AFF;strokeWidth=6;exitX=0.01;exitY=0.514;exitDx=0;exitDy=0;exitPerimeter=0;endSize=6;targetPerimeterSpacing=0;startSize=6;sourcePerimeterSpacing=0;sketch=0;" parent="yJk_V7Hbr1PSN4Hg7ylu-46" source="gclnOcu_DNjMdLOXnFwR-9" target="gclnOcu_DNjMdLOXnFwR-10" edge="1">
          <mxGeometry relative="1" as="geometry">
            <Array as="points">
              <mxPoint x="20" y="346" />
              <mxPoint x="20" y="735" />
              <mxPoint x="89" y="735" />
            </Array>
          </mxGeometry>
        </mxCell>
        <mxCell id="gclnOcu_DNjMdLOXnFwR-71" style="edgeStyle=orthogonalEdgeStyle;rounded=1;orthogonalLoop=1;jettySize=auto;html=1;entryX=0.019;entryY=0.543;entryDx=0;entryDy=0;entryPerimeter=0;startArrow=openThin;startFill=0;endArrow=openThin;endFill=0;strokeColor=#4D9AFF;strokeWidth=6;" parent="yJk_V7Hbr1PSN4Hg7ylu-46" source="gclnOcu_DNjMdLOXnFwR-9" target="gclnOcu_DNjMdLOXnFwR-11" edge="1">
          <mxGeometry relative="1" as="geometry">
            <Array as="points">
              <mxPoint x="20" y="345" />
              <mxPoint x="20" y="947" />
            </Array>
          </mxGeometry>
        </mxCell>
        <mxCell id="gclnOcu_DNjMdLOXnFwR-82" style="edgeStyle=orthogonalEdgeStyle;rounded=1;sketch=0;orthogonalLoop=1;jettySize=auto;html=1;startArrow=none;startFill=0;startSize=6;sourcePerimeterSpacing=0;endArrow=none;endFill=0;endSize=6;targetPerimeterSpacing=0;strokeColor=#4D9AFF;strokeWidth=6;" parent="yJk_V7Hbr1PSN4Hg7ylu-46" source="gclnOcu_DNjMdLOXnFwR-9" target="gclnOcu_DNjMdLOXnFwR-43" edge="1">
          <mxGeometry relative="1" as="geometry" />
        </mxCell>
        <mxCell id="gclnOcu_DNjMdLOXnFwR-9" value="GBIF" style="aspect=fixed;html=1;points=[];align=center;image;fontSize=12;image=img/lib/mscae/Database_General.svg;" parent="yJk_V7Hbr1PSN4Hg7ylu-46" vertex="1">
          <mxGeometry x="60.06" y="280" width="98.12" height="129.11" as="geometry" />
        </mxCell>
        <mxCell id="gclnOcu_DNjMdLOXnFwR-80" style="edgeStyle=orthogonalEdgeStyle;rounded=1;orthogonalLoop=1;jettySize=auto;html=1;startArrow=none;startFill=0;endArrow=none;endFill=0;strokeColor=#4D9AFF;strokeWidth=6;" parent="yJk_V7Hbr1PSN4Hg7ylu-46" source="gclnOcu_DNjMdLOXnFwR-10" target="gclnOcu_DNjMdLOXnFwR-46" edge="1">
          <mxGeometry relative="1" as="geometry" />
        </mxCell>
        <mxCell id="gclnOcu_DNjMdLOXnFwR-10" value="eBbird" style="aspect=fixed;html=1;points=[];align=center;image;fontSize=12;image=img/lib/mscae/Database_General.svg;" parent="yJk_V7Hbr1PSN4Hg7ylu-46" vertex="1">
          <mxGeometry x="90.11999999999999" y="710" width="38" height="50" as="geometry" />
        </mxCell>
        <mxCell id="3pJFGj4-_oHTbB4DjswW-70" style="edgeStyle=orthogonalEdgeStyle;rounded=1;jumpStyle=none;orthogonalLoop=1;jettySize=auto;html=1;strokeColor=#4D9AFF;strokeWidth=6;endFill=0;endArrow=openThin;startFill=0;startArrow=none;" parent="yJk_V7Hbr1PSN4Hg7ylu-46" source="gclnOcu_DNjMdLOXnFwR-11" target="Y2ZBj6na6wr-5ao4Nka5-151" edge="1">
          <mxGeometry relative="1" as="geometry" />
        </mxCell>
        <mxCell id="gclnOcu_DNjMdLOXnFwR-11" value="Others..." style="aspect=fixed;html=1;points=[];align=center;image;fontSize=12;image=img/lib/mscae/Database_General.svg;" parent="yJk_V7Hbr1PSN4Hg7ylu-46" vertex="1">
          <mxGeometry x="90.12" y="920" width="38" height="50" as="geometry" />
        </mxCell>
        <mxCell id="gclnOcu_DNjMdLOXnFwR-41" value="Your dataset" style="aspect=fixed;html=1;points=[];align=center;image;fontSize=12;image=img/lib/azure2/general/Files.svg;" parent="yJk_V7Hbr1PSN4Hg7ylu-46" vertex="1">
          <mxGeometry x="750" y="1000" width="109.71" height="120" as="geometry" />
        </mxCell>
        <mxCell id="gclnOcu_DNjMdLOXnFwR-42" value="rgbif, spooc" style="shape=image;html=1;verticalAlign=top;verticalLabelPosition=bottom;labelBackgroundColor=#ffffff;imageAspect=0;aspect=fixed;image=https://cdn4.iconfinder.com/data/icons/logos-and-brands/512/285_R_Project_logo-128.png" parent="yJk_V7Hbr1PSN4Hg7ylu-46" vertex="1">
          <mxGeometry x="283" y="341.11" width="68" height="68" as="geometry" />
        </mxCell>
        <mxCell id="gclnOcu_DNjMdLOXnFwR-74" style="edgeStyle=orthogonalEdgeStyle;rounded=1;orthogonalLoop=1;jettySize=auto;html=1;entryX=0.008;entryY=0.595;entryDx=0;entryDy=0;entryPerimeter=0;startArrow=none;startFill=0;endArrow=none;endFill=0;strokeColor=#4D9AFF;strokeWidth=6;" parent="yJk_V7Hbr1PSN4Hg7ylu-46" source="gclnOcu_DNjMdLOXnFwR-43" target="gclnOcu_DNjMdLOXnFwR-44" edge="1">
          <mxGeometry relative="1" as="geometry">
            <Array as="points">
              <mxPoint x="250" y="344" />
              <mxPoint x="250" y="294" />
            </Array>
          </mxGeometry>
        </mxCell>
        <mxCell id="gclnOcu_DNjMdLOXnFwR-75" style="edgeStyle=orthogonalEdgeStyle;rounded=1;orthogonalLoop=1;jettySize=auto;html=1;entryX=0;entryY=0.5;entryDx=0;entryDy=0;startArrow=none;startFill=0;endArrow=none;endFill=0;strokeColor=#4D9AFF;strokeWidth=6;" parent="yJk_V7Hbr1PSN4Hg7ylu-46" source="gclnOcu_DNjMdLOXnFwR-43" target="gclnOcu_DNjMdLOXnFwR-42" edge="1">
          <mxGeometry relative="1" as="geometry">
            <Array as="points">
              <mxPoint x="250" y="345" />
              <mxPoint x="250" y="375" />
            </Array>
          </mxGeometry>
        </mxCell>
        <mxCell id="gclnOcu_DNjMdLOXnFwR-43" value="GBIF API" style="aspect=fixed;html=1;points=[];align=center;image;fontSize=12;image=img/lib/azure2/app_services/API_Management_Services.svg;" parent="yJk_V7Hbr1PSN4Hg7ylu-46" vertex="1">
          <mxGeometry x="180" y="319.5" width="54.16" height="50" as="geometry" />
        </mxCell>
        <mxCell id="gclnOcu_DNjMdLOXnFwR-44" value="GBIF.org" style="aspect=fixed;html=1;points=[];align=center;image;fontSize=12;image=img/lib/mscae/Shared_Dashboard.svg;" parent="yJk_V7Hbr1PSN4Hg7ylu-46" vertex="1">
          <mxGeometry x="292" y="270" width="50" height="41" as="geometry" />
        </mxCell>
        <mxCell id="gclnOcu_DNjMdLOXnFwR-45" value="auk" style="shape=image;html=1;verticalAlign=top;verticalLabelPosition=bottom;labelBackgroundColor=#ffffff;imageAspect=0;aspect=fixed;image=https://cdn4.iconfinder.com/data/icons/logos-and-brands/512/285_R_Project_logo-128.png" parent="yJk_V7Hbr1PSN4Hg7ylu-46" vertex="1">
          <mxGeometry x="280.2" y="740" width="68" height="68" as="geometry" />
        </mxCell>
        <mxCell id="gclnOcu_DNjMdLOXnFwR-78" style="edgeStyle=orthogonalEdgeStyle;rounded=1;orthogonalLoop=1;jettySize=auto;html=1;entryX=0.016;entryY=0.51;entryDx=0;entryDy=0;entryPerimeter=0;startArrow=none;startFill=0;endArrow=none;endFill=0;strokeColor=#4D9AFF;strokeWidth=6;" parent="yJk_V7Hbr1PSN4Hg7ylu-46" source="gclnOcu_DNjMdLOXnFwR-46" target="gclnOcu_DNjMdLOXnFwR-49" edge="1">
          <mxGeometry relative="1" as="geometry">
            <Array as="points">
              <mxPoint x="250" y="735" />
              <mxPoint x="250" y="685" />
            </Array>
          </mxGeometry>
        </mxCell>
        <mxCell id="gclnOcu_DNjMdLOXnFwR-79" style="edgeStyle=orthogonalEdgeStyle;rounded=1;orthogonalLoop=1;jettySize=auto;html=1;startArrow=none;startFill=0;endArrow=none;endFill=0;strokeColor=#4D9AFF;strokeWidth=6;" parent="yJk_V7Hbr1PSN4Hg7ylu-46" source="gclnOcu_DNjMdLOXnFwR-46" target="gclnOcu_DNjMdLOXnFwR-45" edge="1">
          <mxGeometry relative="1" as="geometry">
            <Array as="points">
              <mxPoint x="250" y="735" />
              <mxPoint x="250" y="774" />
            </Array>
          </mxGeometry>
        </mxCell>
        <mxCell id="gclnOcu_DNjMdLOXnFwR-46" value="eBird API" style="aspect=fixed;html=1;points=[];align=center;image;fontSize=12;image=img/lib/azure2/app_services/API_Management_Services.svg;" parent="yJk_V7Hbr1PSN4Hg7ylu-46" vertex="1">
          <mxGeometry x="170" y="710" width="54.16" height="50" as="geometry" />
        </mxCell>
        <mxCell id="gclnOcu_DNjMdLOXnFwR-48" value="" style="shape=image;html=1;verticalAlign=top;verticalLabelPosition=bottom;labelBackgroundColor=#ffffff;imageAspect=0;aspect=fixed;image=https://cdn0.iconfinder.com/data/icons/mobile-basic-vol-1/32/Dot_Menu-128.png" parent="yJk_V7Hbr1PSN4Hg7ylu-46" vertex="1">
          <mxGeometry x="64.11999999999999" y="808" width="90" height="90" as="geometry" />
        </mxCell>
        <mxCell id="gclnOcu_DNjMdLOXnFwR-49" value="ebird.org" style="aspect=fixed;html=1;points=[];align=center;image;fontSize=12;image=img/lib/mscae/Shared_Dashboard.svg;" parent="yJk_V7Hbr1PSN4Hg7ylu-46" vertex="1">
          <mxGeometry x="292" y="663.9" width="50" height="41" as="geometry" />
        </mxCell>
        <mxCell id="gclnOcu_DNjMdLOXnFwR-60" style="edgeStyle=orthogonalEdgeStyle;rounded=1;orthogonalLoop=1;jettySize=auto;html=1;entryX=1;entryY=0.5;entryDx=0;entryDy=0;startArrow=none;startFill=0;endArrow=openThin;endFill=0;strokeColor=#4D9AFF;strokeWidth=6;" parent="yJk_V7Hbr1PSN4Hg7ylu-46" source="gclnOcu_DNjMdLOXnFwR-50" target="i0vj7bkVoeIxhTv1__Wb-69" edge="1">
          <mxGeometry relative="1" as="geometry" />
        </mxCell>
        <mxCell id="gclnOcu_DNjMdLOXnFwR-50" value="DynTaxa /&lt;br&gt;GBIF Backbone" style="aspect=fixed;html=1;points=[];align=center;image;fontSize=12;image=img/lib/mscae/Database_General.svg;" parent="yJk_V7Hbr1PSN4Hg7ylu-46" vertex="1">
          <mxGeometry x="480.0000000000001" y="41.2" width="98.12" height="129.11" as="geometry" />
        </mxCell>
        <mxCell id="gclnOcu_DNjMdLOXnFwR-51" value="GenBank" style="aspect=fixed;html=1;points=[];align=center;image;fontSize=12;image=img/lib/mscae/Database_General.svg;" parent="yJk_V7Hbr1PSN4Hg7ylu-46" vertex="1">
          <mxGeometry x="480.0000000000001" y="460" width="98.12" height="129.11" as="geometry" />
        </mxCell>
        <mxCell id="gclnOcu_DNjMdLOXnFwR-66" style="edgeStyle=orthogonalEdgeStyle;rounded=1;orthogonalLoop=1;jettySize=auto;html=1;startArrow=none;startFill=0;endArrow=openThin;endFill=0;strokeColor=#4D9AFF;strokeWidth=6;exitX=0.989;exitY=0.581;exitDx=0;exitDy=0;exitPerimeter=0;jumpStyle=none;" parent="yJk_V7Hbr1PSN4Hg7ylu-46" source="gclnOcu_DNjMdLOXnFwR-54" target="gclnOcu_DNjMdLOXnFwR-6" edge="1">
          <mxGeometry relative="1" as="geometry">
            <Array as="points">
              <mxPoint x="620" y="725" />
              <mxPoint x="620" y="640" />
              <mxPoint x="197" y="640" />
            </Array>
          </mxGeometry>
        </mxCell>
        <mxCell id="gclnOcu_DNjMdLOXnFwR-54" value="WorldClim / &lt;br&gt;Copernicus ..." style="aspect=fixed;html=1;points=[];align=center;image;fontSize=12;image=img/lib/mscae/Database_General.svg;" parent="yJk_V7Hbr1PSN4Hg7ylu-46" vertex="1">
          <mxGeometry x="480.0000000000001" y="650" width="98.12" height="129.11" as="geometry" />
        </mxCell>
        <mxCell id="gclnOcu_DNjMdLOXnFwR-55" value="&lt;h1&gt;&lt;font style=&quot;font-size: 16px&quot;&gt;Environmental Variables&lt;/font&gt;&lt;/h1&gt;" style="text;html=1;spacing=5;spacingTop=-20;whiteSpace=wrap;overflow=hidden;rounded=0;fontSize=12;fillColor=#dae8fc;strokeColor=#6c8ebf;align=center;verticalAlign=middle;strokeWidth=4;" parent="yJk_V7Hbr1PSN4Hg7ylu-46" vertex="1">
          <mxGeometry x="642.5" y="696.62" width="195" height="44" as="geometry" />
        </mxCell>
        <mxCell id="gclnOcu_DNjMdLOXnFwR-59" style="edgeStyle=orthogonalEdgeStyle;rounded=1;orthogonalLoop=1;jettySize=auto;html=1;startArrow=none;startFill=0;endArrow=openThin;endFill=0;strokeColor=#4D9AFF;strokeWidth=6;entryX=0.519;entryY=-0.004;entryDx=0;entryDy=0;entryPerimeter=0;" parent="yJk_V7Hbr1PSN4Hg7ylu-46" source="gclnOcu_DNjMdLOXnFwR-2" target="gclnOcu_DNjMdLOXnFwR-8" edge="1">
          <mxGeometry relative="1" as="geometry">
            <mxPoint x="240" y="140" as="targetPoint" />
            <Array as="points">
              <mxPoint x="219" y="106" />
              <mxPoint x="219" y="140" />
              <mxPoint x="219" y="140" />
            </Array>
          </mxGeometry>
        </mxCell>
        <mxCell id="gclnOcu_DNjMdLOXnFwR-76" style="edgeStyle=orthogonalEdgeStyle;rounded=1;orthogonalLoop=1;jettySize=auto;html=1;startArrow=none;startFill=0;endArrow=none;endFill=0;strokeColor=#4D9AFF;strokeWidth=6;" parent="yJk_V7Hbr1PSN4Hg7ylu-46" source="gclnOcu_DNjMdLOXnFwR-6" target="gclnOcu_DNjMdLOXnFwR-7" edge="1">
          <mxGeometry relative="1" as="geometry" />
        </mxCell>
        <mxCell id="gclnOcu_DNjMdLOXnFwR-77" style="edgeStyle=orthogonalEdgeStyle;rounded=1;orthogonalLoop=1;jettySize=auto;html=1;startArrow=none;startFill=0;endArrow=none;endFill=0;strokeColor=#4D9AFF;strokeWidth=6;" parent="yJk_V7Hbr1PSN4Hg7ylu-46" source="gclnOcu_DNjMdLOXnFwR-6" target="gclnOcu_DNjMdLOXnFwR-5" edge="1">
          <mxGeometry relative="1" as="geometry" />
        </mxCell>
        <mxCell id="gclnOcu_DNjMdLOXnFwR-6" value="bioatlas API" style="aspect=fixed;html=1;points=[];align=center;image;fontSize=12;image=img/lib/azure2/app_services/API_Management_Services.svg;labelPosition=center;verticalLabelPosition=top;verticalAlign=bottom;" parent="yJk_V7Hbr1PSN4Hg7ylu-46" vertex="1">
          <mxGeometry x="170" y="491.14" width="54.16" height="50" as="geometry" />
        </mxCell>
        <mxCell id="gclnOcu_DNjMdLOXnFwR-52" value="TRY" style="aspect=fixed;html=1;points=[];align=center;image;fontSize=12;image=img/lib/mscae/Database_General.svg;" parent="yJk_V7Hbr1PSN4Hg7ylu-46" vertex="1">
          <mxGeometry x="480.0000000000001" y="270" width="98.12" height="129.11" as="geometry" />
        </mxCell>
        <mxCell id="gclnOcu_DNjMdLOXnFwR-63" style="edgeStyle=orthogonalEdgeStyle;rounded=1;orthogonalLoop=1;jettySize=auto;html=1;entryX=0.003;entryY=0.513;entryDx=0;entryDy=0;entryPerimeter=0;startArrow=none;startFill=0;endArrow=openThin;endFill=0;strokeColor=#4D9AFF;strokeWidth=6;exitX=-0.013;exitY=0.58;exitDx=0;exitDy=0;exitPerimeter=0;" parent="yJk_V7Hbr1PSN4Hg7ylu-46" source="gclnOcu_DNjMdLOXnFwR-52" target="gclnOcu_DNjMdLOXnFwR-41" edge="1">
          <mxGeometry relative="1" as="geometry">
            <Array as="points">
              <mxPoint x="410" y="345" />
              <mxPoint x="410" y="1062" />
            </Array>
          </mxGeometry>
        </mxCell>
        <mxCell id="gclnOcu_DNjMdLOXnFwR-65" style="edgeStyle=orthogonalEdgeStyle;rounded=1;orthogonalLoop=1;jettySize=auto;html=1;startArrow=none;startFill=0;endArrow=openThin;endFill=0;strokeColor=#4D9AFF;strokeWidth=6;exitX=-0.02;exitY=0.589;exitDx=0;exitDy=0;exitPerimeter=0;entryX=-0.007;entryY=0.519;entryDx=0;entryDy=0;entryPerimeter=0;" parent="yJk_V7Hbr1PSN4Hg7ylu-46" source="gclnOcu_DNjMdLOXnFwR-54" target="gclnOcu_DNjMdLOXnFwR-41" edge="1">
          <mxGeometry relative="1" as="geometry">
            <mxPoint x="749" y="1082" as="targetPoint" />
            <Array as="points">
              <mxPoint x="410" y="726" />
              <mxPoint x="410" y="1062" />
            </Array>
          </mxGeometry>
        </mxCell>
        <mxCell id="Y7cJZKocZSNqlVmRAGfy-12" value="" style="shape=flexArrow;endArrow=classic;html=1;strokeColor=#d6b656;strokeWidth=6;fillColor=#fff2cc;width=20;" parent="yJk_V7Hbr1PSN4Hg7ylu-46" edge="1">
          <mxGeometry width="50" height="50" relative="1" as="geometry">
            <mxPoint x="841" y="70" as="sourcePoint" />
            <mxPoint x="931" y="70" as="targetPoint" />
          </mxGeometry>
        </mxCell>
        <mxCell id="gclnOcu_DNjMdLOXnFwR-64" style="edgeStyle=orthogonalEdgeStyle;rounded=1;orthogonalLoop=1;jettySize=auto;html=1;startArrow=none;startFill=0;endArrow=openThin;endFill=0;strokeColor=#4D9AFF;strokeWidth=6;exitX=0.006;exitY=0.583;exitDx=0;exitDy=0;exitPerimeter=0;entryX=-0.006;entryY=0.512;entryDx=0;entryDy=0;entryPerimeter=0;" parent="yJk_V7Hbr1PSN4Hg7ylu-46" source="gclnOcu_DNjMdLOXnFwR-51" target="gclnOcu_DNjMdLOXnFwR-41" edge="1">
          <mxGeometry relative="1" as="geometry">
            <mxPoint x="750" y="1080" as="targetPoint" />
            <Array as="points">
              <mxPoint x="410" y="535" />
              <mxPoint x="410" y="1061" />
            </Array>
          </mxGeometry>
        </mxCell>
        <mxCell id="Y2ZBj6na6wr-5ao4Nka5-151" value="GIS" style="shape=image;html=1;verticalAlign=top;verticalLabelPosition=bottom;labelBackgroundColor=#ffffff;imageAspect=0;aspect=fixed;image=https://cdn2.iconfinder.com/data/icons/iconslandgps/PNG/128x128/GIS/Layers.png;fontSize=12;" parent="yJk_V7Hbr1PSN4Hg7ylu-46" vertex="1">
          <mxGeometry x="284" y="911.5" width="67" height="67" as="geometry" />
        </mxCell>
        <mxCell id="3pJFGj4-_oHTbB4DjswW-71" style="edgeStyle=orthogonalEdgeStyle;rounded=1;jumpStyle=none;orthogonalLoop=1;jettySize=auto;html=1;strokeColor=#4D9AFF;strokeWidth=6;endFill=0;endArrow=openThin;startFill=0;startArrow=none;entryX=-0.005;entryY=0.513;entryDx=0;entryDy=0;entryPerimeter=0;" parent="yJk_V7Hbr1PSN4Hg7ylu-46" source="Y2ZBj6na6wr-5ao4Nka5-151" target="gclnOcu_DNjMdLOXnFwR-41" edge="1">
          <mxGeometry relative="1" as="geometry">
            <mxPoint x="750" y="1060" as="targetPoint" />
            <Array as="points">
              <mxPoint x="410" y="945" />
              <mxPoint x="410" y="1062" />
            </Array>
          </mxGeometry>
        </mxCell>
        <mxCell id="3pJFGj4-_oHTbB4DjswW-74" value="Legend" style="swimlane;fillColor=#f5f5f5;strokeColor=#666666;fontColor=#333333;" parent="WIyWlLk6GJQsqaUBKTNV-1" vertex="1">
          <mxGeometry y="1180" width="200" height="620" as="geometry" />
        </mxCell>
        <mxCell id="3pJFGj4-_oHTbB4DjswW-50" value="Web portal" style="html=1;points=[];align=center;image;fontSize=12;image=img/lib/azure2/general/Dashboard.svg;aspect=fixed;" parent="3pJFGj4-_oHTbB4DjswW-74" vertex="1">
          <mxGeometry x="116.5" y="194" width="67" height="67" as="geometry" />
        </mxCell>
        <mxCell id="3pJFGj4-_oHTbB4DjswW-51" value="R package" style="shape=image;html=1;verticalAlign=top;verticalLabelPosition=bottom;labelBackgroundColor=#ffffff;imageAspect=0;image=https://cdn4.iconfinder.com/data/icons/logos-and-brands/512/285_R_Project_logo-128.png;aspect=fixed;" parent="3pJFGj4-_oHTbB4DjswW-74" vertex="1">
          <mxGeometry x="116.5" y="342" width="67" height="67" as="geometry" />
        </mxCell>
        <mxCell id="3pJFGj4-_oHTbB4DjswW-52" value="Spreadsheet" style="shape=image;html=1;verticalAlign=top;verticalLabelPosition=bottom;labelBackgroundColor=#ffffff;imageAspect=0;image=https://cdn4.iconfinder.com/data/icons/social-media-logos-6/512/79-excel-128.png;fontSize=12;aspect=fixed;" parent="3pJFGj4-_oHTbB4DjswW-74" vertex="1">
          <mxGeometry x="19.2800000000002" y="490" width="67" height="67" as="geometry" />
        </mxCell>
        <mxCell id="3pJFGj4-_oHTbB4DjswW-53" value="Database" style="html=1;points=[];align=center;image;fontSize=12;image=img/lib/mscae/Database_General.svg;aspect=fixed;" parent="3pJFGj4-_oHTbB4DjswW-74" vertex="1">
          <mxGeometry x="27.320000000000164" y="45.98000000000002" width="50.92" height="67" as="geometry" />
        </mxCell>
        <mxCell id="3pJFGj4-_oHTbB4DjswW-54" value="API" style="html=1;points=[];align=center;image;fontSize=12;image=img/lib/azure2/app_services/API_Management_Services.svg;aspect=fixed;" parent="3pJFGj4-_oHTbB4DjswW-74" vertex="1">
          <mxGeometry x="16.495000000000346" y="194" width="72.57" height="67" as="geometry" />
        </mxCell>
        <mxCell id="3pJFGj4-_oHTbB4DjswW-55" value="GIS" style="shape=image;html=1;verticalAlign=top;verticalLabelPosition=bottom;labelBackgroundColor=#ffffff;imageAspect=0;image=https://cdn2.iconfinder.com/data/icons/iconslandgps/PNG/128x128/GIS/Layers.png;fontSize=12;aspect=fixed;" parent="3pJFGj4-_oHTbB4DjswW-74" vertex="1">
          <mxGeometry x="19.2800000000002" y="342" width="67" height="67" as="geometry" />
        </mxCell>
        <mxCell id="3pJFGj4-_oHTbB4DjswW-69" value="Other Software" style="shape=image;html=1;verticalAlign=top;verticalLabelPosition=bottom;labelBackgroundColor=#ffffff;imageAspect=0;image=https://cdn3.iconfinder.com/data/icons/google-suits-1/32/3_sites_google_window_website_search_engine-128.png;fontSize=12;aspect=fixed;" parent="3pJFGj4-_oHTbB4DjswW-74" vertex="1">
          <mxGeometry x="116.5" y="45.98000000000002" width="67" height="67" as="geometry" />
        </mxCell>
        <mxCell id="3pJFGj4-_oHTbB4DjswW-73" value="Dataset" style="html=1;points=[];align=center;image;fontSize=12;image=img/lib/azure2/general/Files.svg;aspect=fixed;" parent="3pJFGj4-_oHTbB4DjswW-74" vertex="1">
          <mxGeometry x="119.375" y="490" width="61.25" height="67" as="geometry" />
        </mxCell>
        <mxCell id="Y7cJZKocZSNqlVmRAGfy-75" value="" style="shape=flexArrow;endArrow=classic;html=1;strokeColor=#d6b656;strokeWidth=6;fillColor=#fff2cc;width=20;" parent="WIyWlLk6GJQsqaUBKTNV-1" edge="1">
          <mxGeometry width="50" height="50" relative="1" as="geometry">
            <mxPoint x="804.51" y="1142" as="sourcePoint" />
            <mxPoint x="804.51" y="1232" as="targetPoint" />
          </mxGeometry>
        </mxCell>
      </root>
    </mxGraphModel>
  </diagram>
</mxfile>
